<?xml version="1.0" encoding="utf-8"?>
<!-- Generator: Adobe Illustrator 25.0.1, SVG Export Plug-In . SVG Version: 6.00 Build 0)  -->
<svg version="1.1" xmlns="http://www.w3.org/2000/svg" xmlns:xlink="http://www.w3.org/1999/xlink" x="0px" y="0px"
	 viewBox="0 0 1000 1000" style="enable-background:new 0 0 1000 1000;" xml:space="preserve">
<style type="text/css">
	.st0{fill:none;stroke:#50545E;stroke-width:1.1165;stroke-linecap:round;stroke-linejoin:round;stroke-miterlimit:10;}
	.st1{fill:#FFFFFF;stroke:#50545E;stroke-width:1.1165;stroke-linecap:round;stroke-linejoin:round;stroke-miterlimit:10;}
	.st2{fill:none;stroke:#50545E;stroke-width:1.1165;stroke-linecap:round;stroke-linejoin:round;}
	
		.st3{fill:none;stroke:#50545E;stroke-width:1.1165;stroke-linecap:round;stroke-linejoin:round;stroke-dasharray:15.7777,15.7777,15.7777,15.7777;}
	
		.st4{fill:none;stroke:#50545E;stroke-width:1.1165;stroke-linecap:round;stroke-linejoin:round;stroke-dasharray:15.7777,15.7777,15.7777,15.7777,15.7777,15.7777;}
	
		.st5{fill:none;stroke:#50545E;stroke-width:1.1165;stroke-linecap:round;stroke-linejoin:round;stroke-dasharray:17.0393,17.0393,17.0393,17.0393;}
	
		.st6{fill:none;stroke:#50545E;stroke-width:1.1165;stroke-linecap:round;stroke-linejoin:round;stroke-dasharray:17.0393,17.0393,17.0393,17.0393,17.0393,17.0393;}
	
		.st7{fill:none;stroke:#50545E;stroke-width:1.1165;stroke-linecap:round;stroke-linejoin:round;stroke-dasharray:20.7287,20.7287,20.7287,20.7287;}
	
		.st8{fill:none;stroke:#50545E;stroke-width:1.1165;stroke-linecap:round;stroke-linejoin:round;stroke-dasharray:20.7287,20.7287,20.7287,20.7287,20.7287,20.7287;}
	.st9{fill:#50545E;}
	.st10{opacity:0.8;}
	
		.st11{opacity:0.8;fill:none;stroke:#50545E;stroke-width:0.5582;stroke-linecap:round;stroke-linejoin:round;stroke-miterlimit:10;}
	.st12{display:none;}
	.st13{display:inline;opacity:0.8;}
	
		.st14{opacity:0.8;fill:none;stroke:#50545E;stroke-width:0.5559;stroke-linecap:round;stroke-linejoin:round;stroke-miterlimit:10;}
	.st15{fill:none;stroke:#50545E;stroke-width:0.5559;stroke-linecap:round;stroke-linejoin:round;stroke-miterlimit:10;}
	
		.st16{clip-path:url(#SVGID_2_);fill:none;stroke:#50545E;stroke-width:0.5559;stroke-linecap:round;stroke-linejoin:round;stroke-miterlimit:10;}
	
		.st17{clip-path:url(#SVGID_4_);fill:none;stroke:#50545E;stroke-width:0.5559;stroke-linecap:round;stroke-linejoin:round;stroke-miterlimit:10;}
	
		.st18{display:inline;opacity:0.8;fill:none;stroke:#50545E;stroke-width:0.5559;stroke-linecap:round;stroke-linejoin:round;stroke-miterlimit:10;}
	.st19{fill:#50545E;stroke:#50545E;stroke-width:2.2165;stroke-linecap:round;stroke-linejoin:round;stroke-miterlimit:10;}
</style>
<g id="Layer_8">
</g>
<g id="Окна_x2C__двери">
	<path class="st0" d="M99.43,540.43H-0.06c0,0,1.02,87.31,100.5,98.47"/>
	<path class="st0" d="M249.29,498.95v93.09c0,0,79.13-0.95,89.25-94.04"/>
	<g>
		<rect x="861.64" y="303.09" class="st0" width="51.71" height="403.97"/>
		<rect x="896.95" y="303.16" class="st0" width="7.94" height="403.91"/>
	</g>
	<polygon class="st0" points="991.58,674.08 991.58,674.04 991.64,674.04 991.64,473.31 922.24,473.31 922.24,473.33 913.93,473.33 
		913.93,464.31 999.94,464.31 999.94,683.05 913.93,683.05 913.93,674.08 	"/>
</g>
<g id="Шахты">
	<g>
		<rect x="431.93" y="278.12" class="st1" width="47.29" height="89.4"/>
		<rect x="436.7" y="353.29" class="st1" width="37.75" height="9.35"/>
		<rect x="436.7" y="282.99" class="st1" width="37.75" height="9.75"/>
		<rect x="436.7" y="297.62" class="st1" width="37.75" height="50.79"/>
	</g>
</g>
<g id="Пунктир">
	<g>
		<g>
			<line class="st2" x1="373.37" y1="700.78" x2="373.37" y2="690.81"/>
			<line class="st3" x1="373.37" y1="675.03" x2="373.37" y2="619.81"/>
			<line class="st4" x1="373.37" y1="611.92" x2="373.37" y2="525.14"/>
			<polyline class="st2" points="373.37,517.25 373.37,507.29 383.34,507.29 			"/>
			<line class="st5" x1="400.38" y1="507.29" x2="460.01" y2="507.29"/>
			<line class="st6" x1="468.53" y1="507.29" x2="664.48" y2="507.29"/>
			<polyline class="st2" points="673,507.29 682.97,507.29 682.97,497.32 			"/>
			<line class="st7" x1="682.97" y1="476.59" x2="682.97" y2="404.04"/>
			<line class="st8" x1="682.97" y1="393.67" x2="682.97" y2="279.67"/>
			<line class="st2" x1="682.97" y1="269.3" x2="682.97" y2="259.33"/>
		</g>
	</g>
</g>
<g id="Перегородки">
	<rect x="418.23" y="257.12" class="st9" width="13.26" height="244.86"/>
	<rect x="341.32" y="494.91" class="st9" width="91.05" height="12.38"/>
	<rect x="169.83" y="495.79" class="st9" width="73.37" height="12.38"/>
	<rect x="189.72" y="278.56" class="st9" width="216.13" height="6.63"/>
	<rect x="401.87" y="278.56" class="st9" width="3.98" height="220.77"/>
	<rect x="189.72" y="278.56" class="st9" width="5.3" height="123.31"/>
	<rect x="179.78" y="398.56" class="st9" width="15.25" height="3.31"/>
	<rect x="372.65" y="700.53" class="st9" width="11.13" height="38.97"/>
	<rect x="471.33" y="259.89" class="st9" width="8.21" height="17.96"/>
</g>
<g id="Layer_13">
</g>
<g id="Сантехника">
	<g class="st10">
		<rect x="496.01" y="259.58" class="st11" width="67.82" height="67.82"/>
		<circle class="st11" cx="529.96" cy="287.26" r="5.09"/>
		<circle class="st11" cx="529.96" cy="269.75" r="1.98"/>
		<circle class="st11" cx="549.63" cy="269.75" r="1.98"/>
		<path class="st11" d="M557.89,321.74h-55.95c-0.16,0-0.28-0.13-0.28-0.28v-55.95c0-0.16,0.13-0.28,0.28-0.28h55.95
			c0.16,0,0.28,0.13,0.28,0.28v55.95C558.18,321.62,558.05,321.74,557.89,321.74z"/>
		<path class="st11" d="M555.09,318.91H504.8c-0.16,0-0.28-0.13-0.28-0.28v-44.64c0-0.16,0.13-0.28,0.28-0.28h50.29
			c0.16,0,0.28,0.13,0.28,0.28v44.64C555.38,318.78,555.25,318.91,555.09,318.91z"/>
	</g>
	<g class="st10">
		<path class="st11" d="M381.37,447.96c-1.44,0-2.61-1.16-2.61-2.59c0-1.43,1.17-2.59,2.61-2.59c1.45,0,2.61,1.16,2.61,2.59
			C383.99,446.8,382.82,447.96,381.37,447.96z"/>
		<line class="st11" x1="381.37" y1="441.6" x2="381.37" y2="449.14"/>
		<line class="st11" x1="377.56" y1="445.37" x2="385.19" y2="445.37"/>
		<path class="st11" d="M393.91,447.22c-1.04,0-1.87-0.83-1.87-1.86c0-1.02,0.84-1.85,1.87-1.85c1.04,0,1.88,0.83,1.88,1.85
			C395.78,446.39,394.94,447.22,393.91,447.22z"/>
		<line class="st11" x1="393.91" y1="442.41" x2="393.91" y2="448.33"/>
		<line class="st11" x1="390.91" y1="445.37" x2="396.91" y2="445.37"/>
		<path class="st11" d="M382.48,473.31c1.34,0.1,3.01,0.16,4.92,0.09c0.75-0.03,2.17-0.1,3.96-0.32c1.47-0.18,3.31-0.48,5.4-1
			c1.69-0.56,3.37-1.11,5.06-1.67c0,0,0-0.01,0-0.02c0-0.71,0-50.25,0-50.45c0,0,0-0.01,0-0.02c-1.69-0.56-3.37-1.11-5.06-1.67
			c-2.09-0.51-3.92-0.81-5.4-1c-1.79-0.22-3.21-0.29-3.96-0.32c-1.91-0.07-3.58-0.01-4.92,0.09c-1.87,0.04-13.82,0.47-21.63,10.05
			c-5.78,7.09-5.9,15.03-5.9,18.08c0,3.05,0.12,10.99,5.9,18.08C368.66,472.83,380.61,473.27,382.48,473.31z"/>
		<path class="st11" d="M379.55,465.58c0.65,0.06,1.54,0.12,2.6-0.2c0.05-0.02,0.1-0.03,0.14-0.04c0,0,0.92-0.31,1.76-1.01
			c4.35-3.64,4.35-18.98,4.35-18.98v0c0-8.42-0.46-15.51-4.35-18.69c0,0,0,0,0,0c0,0,0,0,0,0c-0.86-0.74-1.63-0.97-1.75-1.01
			c0,0,0,0,0,0c-1.16-0.39-2.56-0.25-2.74-0.24c-1.33,0.09-2,0.13-2.96,0.32c-5.49,1.1-8.9,3.37-8.9,3.37
			c-2.54,1.69-4.08,3.54-4.87,4.5c-0.63,0.77-1.59,1.95-2.47,3.66c-1.92,3.74-2.02,7.18-2.02,8.1c-0.02,4.05,1.37,7.03,2.02,8.37
			c0,0,0,0,0,0c0.54,0.99,1.34,2.28,2.47,3.66c0.78,0.95,2.32,2.8,4.87,4.5c0,0,3.44,2.29,8.9,3.37
			C377.19,465.38,377.98,465.44,379.55,465.58z"/>
	</g>
	<g class="st10">
		<ellipse class="st11" cx="250.71" cy="296.11" rx="1.86" ry="1.86"/>
		<line class="st11" x1="253.97" y1="296.11" x2="252.58" y2="296.11"/>
		<line class="st11" x1="248.85" y1="296.11" x2="247.46" y2="296.11"/>
		<line class="st11" x1="250.71" y1="299.36" x2="250.71" y2="297.97"/>
		<line class="st11" x1="250.71" y1="294.26" x2="250.71" y2="292.87"/>
		<line class="st11" x1="261.07" y1="311.17" x2="260.32" y2="311.17"/>
		<line class="st11" x1="258.31" y1="311.17" x2="257.56" y2="311.17"/>
		<line class="st11" x1="259.32" y1="312.92" x2="259.32" y2="312.17"/>
		<line class="st11" x1="259.32" y1="310.17" x2="259.32" y2="309.42"/>
		<ellipse class="st11" cx="259.32" cy="311.17" rx="1" ry="1"/>
		<ellipse class="st11" cx="242.11" cy="311.17" rx="1" ry="1"/>
		<line class="st11" x1="243.87" y1="311.17" x2="243.12" y2="311.17"/>
		<line class="st11" x1="241.11" y1="311.17" x2="240.36" y2="311.17"/>
		<line class="st11" x1="242.11" y1="312.92" x2="242.11" y2="312.17"/>
		<line class="st11" x1="242.11" y1="310.17" x2="242.11" y2="309.42"/>
		<path class="st11" d="M232.54,327.21c0.05-0.78,0.11-1.41,0.15-1.83c1.36-7.63,3-12.74,4.36-20.37c4.11,0.48,8.68,0.79,13.67,0.79
			c5,0,9.6-0.31,13.72-0.79c1.36,7.63,2.95,12.74,4.31,20.37c0.04,0.42,0.1,1.06,0.15,1.83c0.3,4.58,0.81,12.28-2.96,19.24
			c-0.61,1.12-1.86,3.38-4.24,5.54c-1.43,1.29-5.22,4.63-10.84,4.63c-0.05,0-0.09,0-0.14,0c-0.05,0-0.09,0-0.14,0
			c-5.62,0-9.41-3.34-10.84-4.63c-2.38-2.16-3.63-4.42-4.24-5.54C231.73,339.49,232.24,331.78,232.54,327.21z"/>
		<path class="st11" d="M235.51,328.49c0.32-2.3,0.71-4.86,2.51-7.5c2.23-3.25,5.22-4.57,6.19-4.99c2.66-1.13,4.92-1.13,6.5-1.13
			c1.58,0,3.84,0,6.5,1.13c0.97,0.42,3.96,1.74,6.19,4.99c1.81,2.64,2.19,5.2,2.51,7.5c0.41,2.93,1.47,10.57-3.02,17.46
			c-1.12,1.71-3.52,5.33-8.12,6.83c-0.95,0.31-4.26,1.26-8.13,0c-4.6-1.49-7-5.11-8.12-6.83
			C234.04,339.06,235.1,331.41,235.51,328.49z"/>
		<path class="st11" d="M241.28,321.29c3.57-3.51,8.21-3.49,9.43-3.48c1.22-0.01,5.87-0.02,9.43,3.48c3.15,3.1,3.84,7.36,3.82,10.74
			c-0.01,2.09-0.19,3.69-0.41,4.99c-0.57,3.21-1.14,6.44-3.49,9.21c-1.86,2.19-5.17,4.49-9.38,4.45c-4.98-0.05-8.19-3.35-9.18-4.5
			c-2.48-2.88-3.09-6.23-3.62-9.16c-0.22-1.19-0.4-2.83-0.41-4.99C237.45,328.65,238.13,324.4,241.28,321.29z"/>
		<path class="st11" d="M246.01,323.13c0.19-0.55,0.59-1.44,1.38-2.27c0.45-0.46,0.9-0.77,1.26-0.98c0.01,0,0.01,0,0.02,0
			c1.9,0,2.19,0,4.07,0c0.01,0,0.01,0,0.02,0c0.36,0.21,0.81,0.52,1.26,0.98c0.8,0.82,1.19,1.72,1.38,2.27
			c0.07,2.53,0.13,5.05,0.2,7.58c-0.02,0.34-0.13,1.62-1.11,2.67c-0.76,0.82-1.64,1.06-1.99,1.14c-1.2,0-2.41,0-3.61,0
			c-0.35-0.08-1.23-0.32-1.99-1.14c-0.98-1.05-1.09-2.33-1.11-2.67C245.88,328.18,245.95,325.66,246.01,323.13z"/>
		<path class="st11" d="M245.92,326.12c0.57,0.45,2.28,1.66,4.73,1.68c2.53,0.02,4.28-1.24,4.85-1.68"/>
		<path class="st11" d="M231.32,284.84h38.8c0.52,0,0.95,0.45,0.95,1.01c0,0,0,9.4,0,10.4c-0.12,0.55-0.31,1.27-0.62,2.07
			c-0.31,0.8-0.75,1.7-1.37,2.6c-0.81,1.19-1.71,2.08-2.54,2.74c-0.83,0.66-1.58,1.08-2.09,1.34c-2.06,0.24-4.24,0.44-6.53,0.57
			c-2.29,0.14-4.69,0.22-7.19,0.22c-2.49,0-4.88-0.08-7.16-0.22s-4.45-0.34-6.5-0.57c-0.45-0.19-1.13-0.52-1.9-1.04
			c-0.76-0.53-1.61-1.26-2.4-2.26c-0.85-1.08-1.4-2.19-1.76-3.15c-0.36-0.96-0.53-1.79-0.61-2.3c0-1.15,0-10.4,0-10.4
			C230.37,285.3,230.79,284.84,231.32,284.84z"/>
	</g>
	<g class="st10">
		<polygon class="st11" points="310.86,317.96 310.86,284.84 401.56,284.84 401.56,375.27 368.34,375.27 368.34,371.02 
			396.88,371.02 396.88,306.28 380.18,289.09 315.67,289.09 315.67,317.96 		"/>
		<path class="st11" d="M368.34,375.27c-31.74,0-57.48-25.66-57.48-57.3"/>
		<path class="st11" d="M375.56,308.07l6.4-6.38l0.27-0.28l2.84-2.83c0,0,1.36-1.27,2.56-0.07c1.19,1.19-0.08,2.55-0.08,2.55
			l-2.84,2.83l-0.28,0.28l-6.4,6.38c0,0-1.36,1.27-2.56,0.08C374.29,309.43,375.56,308.07,375.56,308.07z"/>
		<path class="st11" d="M360.26,319.24c-2.13,2.13-2.13,5.68,0,7.81c2.14,2.13,5.7,2.13,7.82,0c2.14-2.13,2.14-5.67,0-7.8
			C365.95,317.1,362.4,317.1,360.26,319.24z"/>
		<path class="st11" d="M387.64,298.51c-1.2-1.19-2.56,0.07-2.56,0.07l-2.22,2.22c-1.69-1.8-3.2-3.68-4.2-5.33
			c-0.5-0.82-0.96-1.66-1.37-2.52v0c-0.29-0.62-0.19-1.3,0.24-1.74c0.89-0.7,1.77-1.41,2.66-2.11c0.96,0.98,1.91,1.97,2.87,2.95
			c-0.04,0.03-0.1,0.09-0.15,0.17c-0.34,0.6,0.52,1.75,1.01,2.24c3.95,3.94,5.36,5.27,7.59,7.57c0.39,0.4,1.47,1.55,2.12,1.26
			c0.1-0.04,0.16-0.11,0.2-0.16c1.02,1.05,2.04,2.1,3.06,3.15c-0.71,0.75-1.41,1.35-2.12,2.11c-0.43,0.42-1.1,0.54-1.7,0.26
			c-0.93-0.43-1.82-0.93-2.7-1.45c-1.56-0.95-3.31-2.34-5.02-3.92l2.22-2.21C387.56,301.06,388.83,299.7,387.64,298.51z"/>
		<path class="st11" d="M370.34,315.75c-3.56-3.55-3.56-9.3,0-12.84c3.13-3.12,7.97-3.49,11.52-1.11l-6.29,6.27
			c0,0-1.27,1.36-0.07,2.55c1.2,1.19,2.56-0.08,2.56-0.08l6.29-6.27c2.38,3.53,2.02,8.36-1.12,11.48
			C379.66,319.3,373.9,319.3,370.34,315.75z"/>
	</g>
</g>
<g id="Мебель" class="st12">
	<g class="st13">
		<rect x="649.49" y="300.53" class="st14" width="67.53" height="56.27"/>
		<path class="st14" d="M704.57,300.53L704.57,300.53c0-0.75-1.04-1.83-2.29-1.83h-38.06c-1.26,0-2.29,1.08-2.29,1.83"/>
		<polyline class="st14" points="659.47,336.79 662.2,323.29 679.96,323.29 682.69,336.79 		"/>
		<path class="st14" d="M707.04,329.34c0,0-1.27,8.67-10.69,8.67c-5.17,0-7.54-2.87-8.63-5.47c-1.1-2.64-1.08-5.65,0.25-8.18
			c1.07-2.05,3.75-4.1,7.65-4.1c4.46,0,6.21,2.38,6.88,4.42c0.62,1.87,0.38,3.95-0.66,5.63c-0.85,1.38-2.96,2.76-5.49,2.76
			c-5.07,0-4.55-4.97-4.55-4.97s0.03-3.32,3.32-3.32c2.78,0,2.52,2.52,2.52,2.52s-0.19,1.95-1.95,1.95"/>
		<path class="st14" d="M681.92,332.97l-2.56,1.55c-0.59,0.36-1.33,0.35-1.92,0l-1.75-1.08c-0.58-0.35-1.29-0.37-1.87-0.03
			l-2.01,1.14c-0.6,0.34-1.34,0.32-1.92-0.06l-1.54-1.01c-0.57-0.37-1.3-0.4-1.9-0.08l-2.11,1.16c-0.61,0.33-1.35,0.3-1.93-0.1
			l-2.16-1.48"/>
		<line class="st14" x1="662.89" y1="320.26" x2="679.28" y2="320.26"/>
	</g>
	<g class="st13">
		<rect x="407.49" y="368.05" class="st14" width="67.53" height="67.53"/>
		<rect x="407.49" y="430.24" class="st14" width="67.53" height="5.34"/>
		<line class="st14" x1="417.21" y1="403.76" x2="427.18" y2="413.73"/>
		<line class="st14" x1="417.21" y1="413.73" x2="427.18" y2="403.76"/>
		<line class="st14" x1="415.15" y1="408.75" x2="429.25" y2="408.75"/>
		<line class="st14" x1="422.2" y1="415.8" x2="422.2" y2="401.7"/>
		<line class="st14" x1="436.13" y1="403.76" x2="446.09" y2="413.73"/>
		<line class="st14" x1="436.13" y1="413.73" x2="446.09" y2="403.76"/>
		<line class="st14" x1="434.06" y1="408.75" x2="448.16" y2="408.75"/>
		<line class="st14" x1="441.12" y1="415.8" x2="441.12" y2="401.7"/>
		<line class="st14" x1="455.34" y1="403.76" x2="465.31" y2="413.73"/>
		<line class="st14" x1="455.34" y1="413.73" x2="465.31" y2="403.76"/>
		<line class="st14" x1="453.27" y1="408.75" x2="467.37" y2="408.75"/>
		<line class="st14" x1="460.32" y1="415.8" x2="460.32" y2="401.7"/>
		<path class="st14" d="M472.47,435.58L472.47,435.58c0,1.02-0.56,1.97-1.24,1.97h-20.62c-0.68,0-1.24-0.95-1.24-1.97"/>
	</g>
	<g class="st13">
		<polyline class="st15" points="622.84,406.15 621.23,407.38 620.72,408.92 618.98,409.39 617.76,410.28 617.06,410.89 		"/>
		<polyline class="st15" points="623.95,415.48 624.7,416.98 625.35,419.79 625.68,422.42 626.2,423.36 624,423.5 622.4,423.45 
			621.14,423.03 621.18,422.09 		"/>
		<polyline class="st15" points="616.52,420.33 615.75,419.23 613.73,417.13 612.33,414.34 611.43,410.86 610.69,409.2 
			611.84,407.45 612.45,405.51 613.07,403.56 614.42,403.33 616.13,403.68 617.61,403.01 620.36,401.94 623.61,401.24 
			625.06,401.43 626.54,401.11 629.15,400.52 		"/>
		<line class="st15" x1="621.28" y1="424.71" x2="621.77" y2="423.24"/>
		<polyline class="st15" points="638.1,410.81 637.19,410.69 636.17,410.96 634.93,411.72 634.56,413.21 635.36,416.05 
			635.46,418.61 		"/>
		<path class="st15" d="M615.97,421.62c-1.96-2-3.23-4.56-3.65-7.33"/>
		<polyline class="st15" points="635.12,411.6 635.01,410.33 634.3,408.64 632.99,406.58 631.21,405.03 629.34,404.14 
			627.32,403.82 624.37,404.05 622.73,404.66 622.31,405.22 626.1,411.83 628.21,415.39 631.02,419.18 632.1,418.2 633.65,416.94 
			634.35,415.11 634.83,414.19 		"/>
		<polyline class="st15" points="625.49,412.3 622.4,410.61 620.72,408.92 		"/>
		<polyline class="st15" points="622.52,406.39 620.25,406.95 619.12,407.56 617.9,408.64 616.97,410.05 617.06,410.89 		"/>
		<polyline class="st15" points="617.06,410.89 622.78,414.64 623.89,413.55 625.21,413.37 625.49,412.3 625.19,410.24 		"/>
		<polyline class="st15" points="626.2,423.36 627.51,422.79 626.76,419.51 625.73,416.42 624.79,415.53 623.95,415.48 
			623.72,416.05 622.31,419.89 621.18,422.09 620.2,423.26 619.64,424.81 		"/>
		<polyline class="st15" points="623.18,417.49 622.45,416.84 617.76,419.37 615.7,420.97 616.22,422.23 617.2,423.26 
			618.33,424.39 619.64,424.81 621.28,424.71 624,424.89 626.86,426.3 629.84,425.88 631.15,424.72 633.34,423.88 634.02,421.35 
			636.07,417.45 637.18,413.46 638.1,410.81 637.58,409.66 636.03,406.66 632.89,404.55 631.1,401.6 630.07,400.76 		"/>
		<polyline class="st15" points="622.08,414.18 615.89,412.91 615.14,413 614.62,414.5 614.58,416.28 615,418.2 615.75,419.23 
			622.26,415.53 622.52,414.47 		"/>
		<polyline class="st15" points="621.51,415.02 615.33,414.27 615.23,415.06 		"/>
		<polyline class="st15" points="633.68,414.25 632.83,415.93 631.99,417.06 630.37,418.3 		"/>
		<line class="st15" x1="627.4" y1="411.81" x2="629.13" y2="412.56"/>
		<line class="st15" x1="632.69" y1="413.78" x2="630.96" y2="413.17"/>
		<polyline class="st15" points="631.66,406.84 630.63,406.05 629.69,405.53 		"/>
		<polyline class="st15" points="612.99,410.46 613.55,407.93 614.16,406.05 		"/>
		<polyline class="st15" points="632.52,392 631.6,392.8 631.49,393.69 631.09,394.29 630.87,395.4 630.46,395.81 630.38,396.59 
			629.87,397.24 629.76,398.14 629.36,398.64 629.13,399.97 629.21,401.81 631,399.61 634.13,392.01 		"/>
		<polygon class="st15" points="636.35,387.43 638.63,382.35 638.74,381.54 638.63,380.57 638.38,380.1 637.95,379.73 
			637.16,380.02 636.43,381.16 635.27,383.49 633.56,387.05 632.44,390.22 632.42,391.74 632.79,392.68 633.53,392.55 
			634.32,391.85 		"/>
		<polyline class="st15" points="633.5,390.22 633.72,390.41 633.66,390.79 		"/>
		<polyline class="st15" points="634.94,387.26 634.67,387.34 634.64,387.86 		"/>
		<polyline class="st15" points="637.33,381.62 637.08,382.08 637.3,382.41 		"/>
		<polyline class="st15" points="632.12,404.48 633.17,402.41 634.21,400.45 635.11,399.39 635.53,399.64 		"/>
		<polyline class="st15" points="632.79,404.95 633.96,402.77 635.38,400.45 635.77,400.77 		"/>
		<polyline class="st15" points="633.51,405.31 635.39,402.28 637.15,399.96 637.84,398.94 638.09,398 637.88,396.98 637.94,396.33 
			640.78,392.28 645.45,385.84 647.13,383.52 647.1,382.64 646.47,381.98 645.19,382.45 642.72,387.21 639.87,391.98 637.24,396 
			636.78,396.24 635.81,396.35 635.21,396.59 634.45,397.6 633.07,400.17 632.12,402.13 631.36,403.89 		"/>
		<path class="st15" d="M613.94,403.41l0.08-0.9l-1.47-1.52l-1.44-0.9l-1-1.25l-0.03-0.92l0.48-1.25l1.12-0.9l0.98-0.19l1.06,0.54
			l1.06,1.11l1.36,1.9l1.27,1.15l0.87,0.03l2.35-0.38c1.54-0.6,3.18-0.91,4.84-0.91c1.27,0,2.53,0.18,3.74,0.54"/>
		<path class="st15" d="M625.45,425.61c-1.61,0-3.2-0.29-4.7-0.86"/>
		<path class="st15" d="M630.62,400.08c4.92,2.07,8.12,6.9,8.12,12.24c0,4.09-1.89,7.95-5.11,10.47"/>
	</g>
	<g class="st13">
		<polyline class="st15" points="796.29,427.66 795.54,427.67 795.21,427.08 795.88,426.71 796.29,427.66 795.72,428.78 		"/>
		<polyline class="st15" points="793.39,427.54 794.35,428.95 796.19,430.46 		"/>
		<polyline class="st15" points="791.07,429.79 791.24,430.83 792.14,430.63 792.08,429.85 791.07,429.79 789.21,426.63 
			788.28,423.7 		"/>
		<polygon class="st15" points="791.4,424.68 791.41,423.66 790.92,423.42 790.57,423.97 		"/>
		<polyline class="st15" points="794.93,424.46 792.66,424.3 789.83,425.14 		"/>
		<line class="st15" x1="790.56" y1="394.38" x2="790.18" y2="392.69"/>
		<polyline class="st15" points="790.32,397.36 790.65,398.21 791.64,397.5 790.32,397.36 787,397.94 		"/>
		<polyline class="st15" points="784.26,404.6 783.83,400.32 782.91,397.75 782.22,396.71 782.29,395.47 781.53,395.13 
			781.15,396.19 782.22,396.71 		"/>
		<polyline class="st15" points="782.91,397.75 783.75,396.17 786.49,393.75 		"/>
		<polyline class="st15" points="785,409.2 783.16,410.46 781.81,412.88 		"/>
		<line class="st15" x1="765.47" y1="416.03" x2="764.22" y2="413.58"/>
		<line class="st15" x1="767.71" y1="417.32" x2="765.34" y2="418.48"/>
		<polyline class="st15" points="772.28,414.87 772.73,414.03 772.23,413.39 771.29,414 772.28,414.87 773.51,416.37 		"/>
		<line class="st15" x1="777.53" y1="417.21" x2="777.13" y2="415.32"/>
		<polyline class="st15" points="776.06,416.36 775.22,414.49 775.29,413.09 		"/>
		<polyline class="st15" points="774.55,424.06 774.61,423.18 773.83,422.94 773.56,423.47 774.55,424.06 776.76,423.96 
			780.44,420.88 		"/>
		<polyline class="st15" points="765.53,457.71 767.09,458.22 765.98,459.22 765.33,458.65 765.53,457.71 766.01,453.84 		"/>
		<polyline class="st15" points="764.49,451.87 764.58,450.52 763.38,449.89 763.13,450.7 763.78,451.94 768.32,451.48 		"/>
		<polyline class="st15" points="769.97,457.86 769.46,457.23 768.93,454.35 768.32,451.48 		"/>
		<polyline class="st15" points="770.04,446.54 770.3,445.72 769.83,445.39 769.3,446.03 769.63,446.55 770.57,446.52 		"/>
		<polyline class="st15" points="778.17,428.5 772.89,431.41 770.26,431.21 		"/>
		<polyline class="st15" points="796.87,394.22 792.97,394.95 790.56,394.38 787,397.94 784.26,404.6 782.24,409.36 781.81,412.88 
			782.85,417.18 		"/>
		<polyline class="st15" points="785.8,396.61 785.19,399.38 785.67,401.2 		"/>
		<polyline class="st15" points="783.08,421.14 785.77,426.1 787.01,427.77 		"/>
		<polyline class="st15" points="787.07,433.23 786.62,430.25 785.77,426.1 		"/>
		<polyline class="st15" points="756.07,452.02 757.02,451.3 759.18,451.21 761.06,452.36 764.16,454.33 766.01,453.84 
			768.32,451.48 770.57,446.52 773.41,442.79 775.89,436.07 778.17,428.5 781.06,421.65 		"/>
		<polyline class="st15" points="772.97,443.37 772.61,446.18 773.17,448.63 773.09,450.8 772.19,451.96 		"/>
		<line class="st15" x1="778.6" y1="439.81" x2="778.57" y2="442.42"/>
		<polyline class="st15" points="786.86,419.59 788.43,419.66 789.57,419 790.63,417.74 791.66,417.7 791.73,419.69 790.86,421.79 
			789.03,422.45 787.36,421.53 786.47,420.6 		"/>
		<polygon class="st15" points="787.92,412.61 786.09,411.88 784.93,412.28 785.31,413.28 787.01,413.68 788.13,414.32 
			788.97,414.13 		"/>
		<polyline class="st15" points="769.84,448.13 767.43,448.46 766.06,447.16 765.41,446.29 765.86,446.04 766.42,446.43 
			766.06,447.16 		"/>
		<polyline class="st15" points="780.63,440.08 781.58,440.76 782.01,439.55 780.63,440.08 778.6,439.81 776.4,437.39 776.27,434.8 
					"/>
		<polyline class="st15" points="772.89,431.41 772.29,434.34 771.51,435.27 772.17,435.92 772.63,435.57 772.29,434.34 		"/>
		<polygon class="st15" points="771.3,433.56 772.56,433.01 771.45,432.97 		"/>
		<polyline class="st15" points="783.49,406.43 786.16,405.24 788.74,405.01 789.58,404.26 790.48,405.09 789.43,405.94 
			788.74,405.01 		"/>
		<polygon class="st15" points="788.85,398.86 787.97,397.77 787.54,398.8 788.25,399.29 		"/>
		<polyline class="st15" points="798.39,428.63 798.98,427.75 798.27,427.12 797.75,427.65 798.39,428.63 795.72,428.78 
			791.08,426.32 786.97,422.48 783.4,419.54 		"/>
		<polyline class="st15" points="774.77,426.88 776.42,425.68 776.76,423.96 		"/>
		<polyline class="st15" points="760.16,410.87 761.25,414.12 762.97,415.38 765.47,416.03 767.71,417.32 770.37,417.08 
			773.51,416.37 776.06,416.36 781.49,419.51 		"/>
		<path class="st15" d="M768.82,421.06c0.86,7,7.22,11.98,14.22,11.12c7-0.86,11.98-7.22,11.12-14.22
			c-0.86-7-7.22-11.98-14.22-11.12C772.94,407.7,767.97,414.06,768.82,421.06"/>
		<path class="st15" d="M778.11,419.93c0.23,1.87,1.93,3.19,3.79,2.97c1.87-0.23,3.19-1.93,2.97-3.79
			c-0.23-1.87-1.93-3.19-3.79-2.97C779.21,416.36,777.88,418.06,778.11,419.93"/>
		<path class="st15" d="M786.11,409.75c3.47,1.4,5.99,4.47,6.7,8.15"/>
		<path class="st15" d="M777.46,420.01c0.27,2.23,2.3,3.81,4.53,3.54c2.23-0.27,3.81-2.3,3.54-4.53c-0.27-2.23-2.3-3.81-4.53-3.54
			C778.77,415.75,777.18,417.78,777.46,420.01"/>
	</g>
	<g class="st13">
		<rect x="381.27" y="676.56" class="st14" width="59.04" height="106.28"/>
	</g>
	<g class="st13">
		<path class="st14" d="M306.18,613.58h47.4c2.41,0,4.36,2.37,4.36,5.29v225.6c0,2.92-1.95,5.29-4.36,5.29h-47.4"/>
		<path class="st14" d="M224.37,820.54v17.4c0,6.52-5.29,11.81-11.81,11.81h-14.03c-3.26,0-5.9-2.65-5.9-5.91V619.49
			c0-3.26,2.64-5.91,5.9-5.91h14.03c6.52,0,11.81,5.29,11.81,11.81v17.44"/>
		<path class="st14" d="M224.37,642.83v-23.34v0c0-3.26,2.65-5.9,5.91-5.9h75.13c2.93,0,5.3,2.37,5.3,5.29v225.6
			c0,2.92-2.37,5.29-5.3,5.29h-75.13c-3.26,0-5.91-2.64-5.91-5.9v0v-23.31"/>
		<line class="st14" x1="224.37" y1="668.78" x2="224.37" y2="794.65"/>
		<path class="st14" d="M307.4,839.75c0,0-2.44-47.66-2.44-131.7c0-84.04,2.44-84.46,2.44-84.46"/>
		<path class="st14" d="M195.94,623.59c0,0,2.44,0.42,2.44,84.46c0,84.04-2.44,131.7-2.44,131.7"/>
		<path class="st14" d="M224.49,668.78l10.39,7.65c0,0,17.65-13.66,22.85-41.61l-11.71-1.43"/>
		<path class="st14" d="M231.34,668.23c-14.75,2.52-22.85-4.41-22.85-4.41c20.15-19.12,22.85-40.77,22.85-40.77
			s11.21,3.79,17.86,14.71"/>
		<path class="st14" d="M238.2,638.38c0,0,1.66,16.19-15.78,25.85"/>
		<path class="st14" d="M224.49,794.65l10.39-7.64c0,0,17.65,13.66,22.85,41.61l-11.71,1.43"/>
		<path class="st14" d="M231.34,795.2c-14.75-2.52-22.85,4.41-22.85,4.41c20.15,19.12,22.85,40.77,22.85,40.77
			s11.21-3.79,17.86-14.72"/>
		<path class="st14" d="M238.2,825.05c0,0,1.66-16.19-15.78-25.85"/>
	</g>
	<g class="st13">
		<polyline class="st15" points="271.1,760.47 273,760.06 275.09,760.26 276.67,761.07 		"/>
		<polyline class="st15" points="268.43,751.93 268.67,750.43 269.25,749.03 269.93,748.06 270.75,747.92 271.48,748.93 
			271.91,750.14 272.2,751.79 272.68,753.24 273.44,754.47 273.6,755.57 274.16,756.99 273.88,758.48 273.67,760.11 272.97,760.72 
					"/>
		<polyline class="st15" points="263.93,751.35 265.53,751.21 266.2,750.92 267.32,750.97 267.99,750.58 268.62,750.72 		"/>
		<polyline class="st15" points="262.53,759.77 262.24,758.51 261.51,757.93 		"/>
		<polyline class="st15" points="257.4,776.49 257.93,775.91 259.27,775.49 259.58,775.1 260.81,774.73 261.9,773.95 262.88,772.66 
			264,771.46 264.03,770.68 263.38,770.93 262.26,771.74 260.81,772.58 259.3,773.48 258.29,774.57 257.56,775.99 257.28,776.86 
			256.28,777.45 256.11,778.46 255.69,778.71 255.3,779.13 254.37,779.35 253.59,779.18 252.98,778.6 252.86,777.73 253.14,777.28 
			254.26,775.62 254.32,775.1 255.13,774.23 256.12,772.03 258.21,768.78 259.95,766.52 260.35,765.23 260.5,762.81 260.45,760.97 
			260.89,759.48 261.51,757.93 261.56,757.2 261.03,756.38 261.27,755.7 261.08,754.06 260.55,752.42 260.5,750.82 260.89,749.76 
			261.76,749.76 262.82,750.48 263.93,751.35 264.64,752.19 264.88,752.77 		"/>
		<polyline class="st15" points="256.79,777.15 256.86,777.95 257.54,778.57 258.4,778.82 259.55,778.96 260.42,778.57 
			261.4,778.12 262.32,778.04 263.52,777.34 264.36,777.11 265.76,776.89 267.72,776.27 268.92,774.45 270.43,773.17 271.95,772.36 
			274.21,772.08 277.65,771.89 280.66,772.29 		"/>
		<polyline class="st15" points="267.1,779.21 267.55,778.2 267.72,776.27 		"/>
		<polyline class="st15" points="261.15,778.23 261.68,779.01 262.49,779.77 262.81,780.36 		"/>
		<line class="st15" x1="259.01" y1="775.57" x2="258.18" y2="774.79"/>
		<polyline class="st15" points="272.57,752.89 274,753.42 274.37,754.19 275.49,754.61 276.49,755.66 278.81,757.58 281.47,759.22 
			283.93,761.3 285.87,762.99 287,764.83 287.84,766.4 288.06,767.18 288.79,769.08 288.62,769.67 288.9,772.89 288.68,776.02 
			287.94,778.57 287.17,780.42 285.96,781.9 285.89,783.61 285.09,785.12 284.32,786.26 283.41,786.77 282.74,787.54 281.76,787.91 
			280.76,788.51 280.25,788.41 279.55,789.08 278.27,789.52 277.1,789.55 274.48,789.59 272.26,789.25 270.42,788.78 269.14,788.18 
			268,788.08 267.39,787.47 266.29,787.4 266.08,786.9 264.64,786.43 264.54,785.79 263.1,784.68 262.26,783.24 262.32,781.39 
			262.85,780.27 263.61,779.38 264.89,778.82 266.29,778.79 267.1,779.21 268.12,780.09 267.96,780.89 266.92,781.22 266.35,781.86 
			266.79,782.75 267.92,783.31 268.65,784 270.18,784.36 272.76,785.08 275.21,785.73 277.55,785.77 279.81,785.33 281.82,783.87 		
			"/>
		<polyline class="st15" points="269.12,761.3 269.19,760.88 269.68,760.42 269.29,760.16 268.54,760.44 267.73,760.44 
			267.75,760.84 268.49,761.07 		"/>
		<polygon class="st15" points="264.46,757.31 264.91,756.79 265.61,756.76 266.31,757.07 266.68,757.9 266.21,758.46 
			265.51,758.64 264.79,758.48 264.39,757.9 		"/>
		<line class="st15" x1="265.42" y1="757.66" x2="265.35" y2="756.96"/>
		<polygon class="st15" points="269.87,756.13 269.33,756.78 269.31,757.62 269.82,757.87 270.48,757.9 271.13,757.41 271.2,756.76 
			271.07,756.18 270.62,755.94 		"/>
		<line class="st15" x1="270.24" y1="756.99" x2="270.03" y2="756.31"/>
		<polyline class="st15" points="270.86,752.53 270.82,752 270.06,752.09 269.94,751.56 269.05,752.65 		"/>
		<polyline class="st15" points="262.72,753.78 263.17,753.78 263.21,753.41 263.81,753.37 263.81,752.61 263.41,751.68 		"/>
		<line class="st15" x1="268.2" y1="755.47" x2="268.28" y2="754.06"/>
		<line class="st15" x1="266.69" y1="755.16" x2="265.75" y2="754.3"/>
		<line class="st15" x1="267.24" y1="754.78" x2="267.24" y2="753.78"/>
		<line class="st15" x1="266.43" y1="762" x2="264.3" y2="762.76"/>
		<polyline class="st15" points="276.38,762.8 274.21,761.43 271.95,761.23 270.5,761.51 		"/>
		<line class="st15" x1="271.67" y1="759.58" x2="274.57" y2="759.06"/>
		<polyline class="st15" points="271.67,771.51 272.23,769.81 273.16,768.69 275.05,767.27 		"/>
		<polyline class="st15" points="272.76,771.3 274.77,770.14 277.27,769.37 		"/>
		<polyline class="st15" points="262.29,773.44 264.26,772.67 265.75,771.42 266.55,769.77 		"/>
		<polyline class="st15" points="265.14,767.03 264.74,767.88 265.26,768.6 		"/>
		<polyline class="st15" points="262.29,782.45 261.39,782.42 260.91,782.83 260.91,783.75 261.19,784.12 262,784.88 263.17,785.37 
			264.15,785.49 		"/>
		<polyline class="st15" points="277.98,760.67 276.94,763.63 275.66,765.26 		"/>
		<polyline class="st15" points="268.23,761.77 268.95,761.91 269.42,761.68 		"/>
		<polyline class="st15" points="261.89,754.21 261.33,752.68 261.19,751.29 		"/>
		<line class="st15" x1="269.29" y1="750.93" x2="270.26" y2="750.28"/>
		<line class="st15" x1="269.9" y1="749.64" x2="270.46" y2="749.12"/>
		<polyline class="st15" points="263.89,760.48 265.29,760.09 266.4,760.19 		"/>
		<polyline class="st15" points="261.76,762.51 262.64,761.96 264.74,761.39 267,761.27 		"/>
		<polyline class="st15" points="267.12,763.72 268.59,764 270.12,763.86 271.3,763.16 		"/>
		<polyline class="st15" points="268.86,765.46 266.43,765.04 263.85,763.3 		"/>
		<line class="st15" x1="267.89" y1="757.01" x2="267.7" y2="756.14"/>
		<line class="st15" x1="266.44" y1="756.52" x2="266.05" y2="755.51"/>
	</g>
	<g class="st13">
		<path class="st14" d="M225.96,907.59c-9.1,0-16.47-7.38-16.47-16.47c0-9.09,7.37-16.47,16.47-16.47c9.1,0,16.47,7.37,16.47,16.47
			C242.43,900.21,235.06,907.59,225.96,907.59z"/>
		<path class="st14" d="M225.96,897.53c-3.54,0-6.41-2.88-6.41-6.41c0-3.54,2.87-6.41,6.41-6.41c3.54,0,6.41,2.88,6.41,6.41
			C232.37,894.65,229.51,897.53,225.96,897.53z"/>
		<path class="st14" d="M228.01,891.07h4.36 M225.3,889.16l-1.97-3.89 M225.23,893.01l-1.83,3.96 M225.98,893.05
			c-1.1,0-1.99-0.88-1.99-1.98c0-1.09,0.89-1.98,1.99-1.98c1.09,0,1.98,0.88,1.98,1.98C227.96,892.16,227.08,893.05,225.98,893.05z"
			/>
	</g>
	<g class="st13">
		<polyline class="st15" points="411.81,692.29 387.66,699.31 387.02,700.02 387.02,701.38 398.09,736.57 398.89,737.13 
			400.16,736.97 423.14,729.76 423.48,729.23 		"/>
		<polyline class="st15" points="402.44,722.06 396.52,723.95 396.07,723.82 392.59,712.85 392.9,712.46 400.04,710.16 
			400.62,710.51 403.88,720.98 		"/>
		<polyline class="st15" points="410.86,697.58 399.85,700.85 402.38,709.04 404.26,708.4 		"/>
		<polyline class="st15" points="407.05,718.45 405.45,718.96 402.6,709.65 		"/>
		<polyline class="st15" points="408.36,725.17 407.62,725.52 407.02,723.85 		"/>
		<polyline class="st15" points="408.3,727.47 410.06,726.86 409.61,725.36 409,725.65 		"/>
		<polyline class="st15" points="409.48,727.89 409.77,729.07 408.75,729.49 408.33,728.17 		"/>
		<polyline class="st15" points="411.53,699.54 419.91,725.9 411.11,728.69 		"/>
		<line class="st15" x1="407.08" y1="717.1" x2="404.78" y2="709.81"/>
		<line class="st15" x1="409.64" y1="724.01" x2="408.01" y2="719.15"/>
		<polyline class="st15" points="414.31,726.89 413.48,724.56 412.07,725.04 		"/>
		<polyline class="st15" points="403.98,700.46 405.1,703.95 403.53,704.49 		"/>
		<polyline class="st15" points="405.86,699.73 406.67,702.16 405.38,702.61 		"/>
		<polyline class="st15" points="410.47,701.55 409.22,702.03 408.65,700.56 		"/>
		<line class="st15" x1="409.51" y1="702.86" x2="409.9" y2="704.05"/>
		<line class="st15" x1="408.74" y1="726.01" x2="409.15" y2="727.18"/>
		<polyline class="st15" points="407.91,720.94 406.38,721.47 405.8,719.71 		"/>
		<polyline class="st15" points="416.07,724.28 417.59,723.78 418.53,726.34 		"/>
		<line class="st15" x1="412.42" y1="712.39" x2="412.92" y2="713.96"/>
		<line class="st15" x1="415.03" y1="715.48" x2="413.59" y2="715.96"/>
		<polyline class="st15" points="414.28,717.96 415.64,717.38 415.32,716.23 		"/>
		<polyline class="st15" points="414.49,718.95 414.89,719.99 416.26,719.56 416.04,718.6 		"/>
		<polyline class="st15" points="417.85,715.76 411.96,696.92 413.14,696.49 		"/>
		<polygon class="st15" points="411.81,692.29 419.27,687.62 419.76,687.78 432.59,729.64 431.82,730.08 423.48,729.23 		"/>
		<polyline class="st15" points="431.04,728.15 419.04,689.33 413.85,692.81 		"/>
		<line class="st15" x1="425.62" y1="708.63" x2="425.9" y2="709.62"/>
		<line class="st15" x1="417.18" y1="721.68" x2="415.66" y2="722.19"/>
		<line class="st15" x1="412.95" y1="722.74" x2="412.13" y2="720.29"/>
	</g>
	<g class="st13">
		<polyline class="st15" points="409.32,760.2 411.83,760.19 411.81,761.61 409.35,761.68 		"/>
		<polygon class="st15" points="399.98,760.89 400.01,759.99 393.58,759.3 392.98,759.82 393.4,760.53 		"/>
		<line class="st15" x1="400.99" y1="758.53" x2="401.52" y2="758.07"/>
		<polyline class="st15" points="405.06,763.72 406.63,762.46 406.91,761.12 406.12,759.51 		"/>
		<polyline class="st15" points="398.13,766.44 399.95,767.98 401.28,768.54 		"/>
		<polyline class="st15" points="402.87,757.42 403.8,757.24 404.87,757.42 		"/>
		<path class="st15" d="M398.82,760.82c0,0.08-0.01,0.16-0.01,0.24c0,2.66,2.16,4.82,4.82,4.82s4.82-2.16,4.82-4.82
			c0-2.66-2.16-4.82-4.82-4.82c-2.2,0-4.13,1.5-4.67,3.63"/>
		<path class="st15" d="M397.88,760.78c0,0.09-0.01,0.19-0.01,0.28c0,3.18,2.58,5.75,5.75,5.75s5.75-2.58,5.75-5.75
			c0-3.18-2.58-5.75-5.75-5.75c-2.68,0-5.01,1.85-5.61,4.47"/>
		<path class="st15" d="M394.56,760.6c-0.01,0.15-0.01,0.31-0.01,0.47c0,5.02,4.07,9.08,9.08,9.08c5.02,0,9.08-4.07,9.08-9.08
			s-4.07-9.08-9.08-9.08c-4.38,0-8.14,3.13-8.93,7.44"/>
	</g>
	<g class="st13">
		
			<rect x="479.73" y="169.48" transform="matrix(-1 1.071519e-10 -1.071519e-10 -1 1028.0442 397.1417)" class="st14" width="68.58" height="58.19"/>
		
			<rect x="479.73" y="169.48" transform="matrix(-1 1.074570e-10 -1.074570e-10 -1 1028.0442 392.2924)" class="st14" width="68.58" height="53.34"/>
		<line class="st14" x1="429.01" y1="213.09" x2="431.01" y2="177.7"/>
		<line class="st14" x1="433.36" y1="213.09" x2="435.35" y2="177.7"/>
		<line class="st14" x1="456.75" y1="213.09" x2="458.74" y2="177.7"/>
		<line class="st14" x1="447.58" y1="213.09" x2="442.06" y2="177.7"/>
		<line class="st14" x1="454.21" y1="213.09" x2="448.69" y2="177.7"/>
		<line class="st14" x1="426.65" y1="213.09" x2="421.13" y2="177.7"/>
		<line class="st14" x1="469.13" y1="213.09" x2="463.61" y2="177.7"/>
		<line class="st14" x1="475.76" y1="213.09" x2="470.24" y2="177.7"/>
		<line class="st14" x1="417.15" y1="195.39" x2="479.73" y2="195.39"/>
		
			<rect x="417.15" y="169.48" transform="matrix(-1 9.620292e-11 -9.620292e-11 -1 896.8815 397.1417)" class="st14" width="62.58" height="58.19"/>
		
			<rect x="417.15" y="169.48" transform="matrix(-1 9.604305e-11 -9.604305e-11 -1 896.8815 392.2924)" class="st14" width="62.58" height="53.34"/>
	</g>
	<g class="st13">
		
			<rect x="347.64" y="189.28" transform="matrix(-1.241700e-10 -1 1 -1.241700e-10 158.8328 595.5908)" class="st14" width="59.15" height="58.19"/>
		
			<rect x="350.06" y="191.71" transform="matrix(-1.241700e-10 -1 1 -1.241700e-10 161.2574 598.0154)" class="st14" width="59.15" height="53.34"/>
		<line class="st14" x1="362.69" y1="145.06" x2="398.09" y2="146.78"/>
		<line class="st14" x1="362.69" y1="148.81" x2="398.09" y2="150.52"/>
		<line class="st14" x1="362.69" y1="168.98" x2="398.09" y2="170.69"/>
		<line class="st14" x1="362.69" y1="161.07" x2="398.09" y2="156.31"/>
		<line class="st14" x1="362.69" y1="166.79" x2="398.09" y2="162.03"/>
		<line class="st14" x1="362.69" y1="143.02" x2="398.09" y2="138.26"/>
		<line class="st14" x1="362.69" y1="179.66" x2="398.09" y2="174.9"/>
		<line class="st14" x1="362.69" y1="185.38" x2="398.09" y2="180.62"/>
		<line class="st14" x1="380.39" y1="134.83" x2="380.39" y2="188.8"/>
		
			<rect x="350.22" y="132.72" transform="matrix(-1.114530e-10 -1 1 -1.114530e-10 215.3979 539.0256)" class="st14" width="53.98" height="58.19"/>
		
			<rect x="352.65" y="135.14" transform="matrix(-1.113855e-10 -1 1 -1.113855e-10 217.8226 541.4503)" class="st14" width="53.98" height="53.34"/>
	</g>
	<g class="st13">
		<g class="st10">
			<path class="st15" d="M701.79,611.62c6.6,1.94,7.44,7.79,8.71,14.54l2.76,14.78c0.1,2.9-1.35,5.61-3.77,7
				c-4.18,2.39-11.07,5.66-17.45,5.66c-6.38,0-13.26-3.27-17.45-5.66c-2.42-1.39-3.87-4.09-3.77-7l2.77-14.78
				c1.27-6.75,2.11-12.6,8.71-14.54C683.31,611.33,700.78,611.33,701.79,611.62z"/>
			<path class="st15" d="M670.1,650.76c0,0,10.37,6.2,21.95,6.2c11.58,0,21.95-6.2,21.95-6.2v3.54c0,0-10.37,6.2-21.95,6.2
				c-11.58,0-21.95-6.2-21.95-6.2V650.76z"/>
			<path class="st15" d="M677.18,659.72c-0.1,0.47,0.2,0.95,0.67,1.05c0.48,0.11,0.96-0.19,1.06-0.67l0.41-1.8
				c-0.59-0.19-1.15-0.38-1.69-0.58L677.18,659.72z"/>
			<path class="st15" d="M680.95,651.06l-1.66-0.72l-0.92,4.1c0.54,0.19,1.11,0.37,1.69,0.55L680.95,651.06z"/>
			<path class="st15" d="M704.8,650.35l-1.66,0.72l0.9,3.94c0.58-0.18,1.15-0.37,1.69-0.56L704.8,650.35z"/>
			<path class="st15" d="M705.18,660.1c0.11,0.47,0.58,0.77,1.06,0.67c0.48-0.1,0.78-0.58,0.67-1.05l-0.45-1.99
				c-0.54,0.2-1.11,0.39-1.69,0.58L705.18,660.1z"/>
		</g>
		<g class="st10">
			<path class="st15" d="M767.08,611.62c6.6,1.94,7.44,7.79,8.71,14.54l2.76,14.78c0.1,2.9-1.35,5.61-3.77,7
				c-4.18,2.39-11.07,5.66-17.45,5.66c-6.38,0-13.26-3.27-17.45-5.66c-2.42-1.39-3.87-4.09-3.77-7l2.77-14.78
				c1.27-6.75,2.11-12.6,8.71-14.54C748.6,611.33,766.07,611.33,767.08,611.62z"/>
			<path class="st15" d="M735.38,650.76c0,0,10.37,6.2,21.95,6.2c11.58,0,21.95-6.2,21.95-6.2v3.54c0,0-10.37,6.2-21.95,6.2
				c-11.58,0-21.95-6.2-21.95-6.2V650.76z"/>
			<path class="st15" d="M742.46,659.72c-0.1,0.47,0.2,0.95,0.67,1.05c0.48,0.11,0.96-0.19,1.06-0.67l0.41-1.8
				c-0.59-0.19-1.15-0.38-1.69-0.58L742.46,659.72z"/>
			<path class="st15" d="M746.23,651.06l-1.66-0.72l-0.92,4.1c0.54,0.19,1.11,0.37,1.69,0.55L746.23,651.06z"/>
			<path class="st15" d="M770.08,650.35l-1.66,0.72l0.9,3.94c0.58-0.18,1.15-0.37,1.69-0.56L770.08,650.35z"/>
			<path class="st15" d="M770.47,660.1c0.11,0.47,0.58,0.77,1.06,0.67c0.48-0.1,0.78-0.58,0.67-1.05l-0.45-1.99
				c-0.54,0.2-1.11,0.39-1.69,0.58L770.47,660.1z"/>
		</g>
	</g>
	<g class="st13">
		<line class="st15" x1="785.63" y1="570.76" x2="784.43" y2="570.96"/>
		<polyline class="st15" points="771.53,559.41 770.86,560.22 770.62,560.76 770.26,560.79 768.42,562.43 766.94,563.27 
			766.74,563.63 765.46,564.79 764.3,565.91 762.7,566.79 761.69,569.83 761.26,571.24 761.26,572.5 		"/>
		<polyline class="st15" points="759.46,566.15 759.69,567.97 759.93,569.24 760.03,570.79 760.47,571.95 760.42,572.77 		"/>
		<polyline class="st15" points="754.89,565.16 755.64,567.21 756.48,568.16 757.48,569.43 758.53,570.27 758.7,571.26 
			759.39,572.01 759.43,572.76 		"/>
		<polyline class="st15" points="761.45,573.57 761.72,575.53 762.39,578.86 762.55,579.18 762.35,579.5 762.33,580.37 
			762.43,580.75 762.22,581.16 761.86,581.32 760.96,583.47 760.58,584.57 760.58,585.34 760.5,586.23 760.08,587.17 759.86,586.9 
			759.67,586.92 759.61,586.4 759.55,585.48 759.89,584.51 759.86,584.09 760.33,583.29 761.36,581.43 761.66,580.07 761.64,578.71 
			761.19,576.35 760.87,573.68 		"/>
		<polyline class="st15" points="760.11,573.69 759.5,574.41 757.82,575.31 755.73,576.36 754.62,577.01 752.23,577.4 
			750.33,577.06 752.23,577 753.96,576.36 756.53,574.7 758.36,573.22 		"/>
		<polyline class="st15" points="759.5,574.41 759.01,575.69 758.05,577.65 757.08,580.15 756.62,582.42 756.45,585.45 
			756.62,587.78 757.89,588.18 759.85,588.11 762.64,587.44 765.47,586.81 767.11,586.14 768.57,586.01 769.34,585.51 769.7,584.98 
			770.47,584.88 770.14,581.45 769.44,579.92 768.67,578.82 768.14,576.89 767.07,574.79 765.7,573.18 		"/>
		<polyline class="st15" points="763.69,572.16 765.22,570.6 766.85,569.64 769.08,568.64 		"/>
		<line class="st15" x1="765.37" y1="571.81" x2="766.11" y2="570.08"/>
		<polyline class="st15" points="758.6,572.55 757.96,571.95 756.9,571.17 756.16,569.62 754.7,567.77 754.17,565.76 753.59,563.77 
			753.22,561.36 753.24,559.79 754.63,559.51 758.51,558.7 760.25,558.49 762.19,558.53 765.41,559.09 767.68,559.09 767.82,560.09 
			767.55,562.1 767.61,564.75 767.3,566.53 767.39,567.51 766.54,568.89 		"/>
		<polyline class="st15" points="766.94,563.27 766.29,563.22 765.36,564.33 765.12,564.28 764.49,565.17 763.3,565.65 
			764.04,563.55 763.85,562.99 763.32,562.74 763.31,563.76 762.59,565.76 760.83,570.62 759.93,569.24 		"/>
		<line class="st15" x1="763.85" y1="562.99" x2="763.83" y2="561.08"/>
		<path class="st15" d="M753.86,585.04c-4.53-3.05-7.24-8.16-7.24-13.62c0-9.07,7.36-16.43,16.43-16.43s16.43,7.36,16.43,16.43
			c0,7.34-4.86,13.78-11.92,15.8"/>
		<path class="st15" d="M767.72,560.81c4.21,1.85,6.92,6.01,6.92,10.61c0,3.72-1.78,7.21-4.79,9.39"/>
		<path class="st15" d="M767.33,566.33c1.5,1.26,2.37,3.13,2.37,5.1c0,1.77-0.7,3.46-1.95,4.71"/>
		<path class="st15" d="M757.04,574.29c-0.43-0.89-0.65-1.87-0.65-2.86c0-0.35,0.03-0.7,0.08-1.04"/>
		<path class="st15" d="M755.42,573.9c-0.26-0.8-0.39-1.64-0.39-2.48c0-0.28,0.01-0.56,0.04-0.84"/>
		<path class="st15" d="M768.46,571.71c-0.06,1.2-0.52,2.34-1.3,3.25"/>
		<path class="st15" d="M773.64,570.14c0.05,0.43,0.08,0.85,0.08,1.28c0,1.67-0.39,3.32-1.15,4.81"/>
		<path class="st15" d="M754.77,579.55c-2.13-2.17-3.32-5.08-3.32-8.12c0-2.52,0.82-4.97,2.33-6.98"/>
		<polygon class="st15" points="758.6,572.55 758.33,572.85 758.36,573.22 758.73,573.52 759.56,573.7 760.87,573.68 762.1,573.44 
			764.02,573.44 765.26,573.37 765.7,573.18 765.65,572.55 765.37,571.81 764.97,571.97 764.36,572.15 762.82,572.18 761.74,572.29 
			761.26,572.5 760.42,572.77 759.17,572.76 		"/>
		<polyline class="st15" points="770.25,568.64 769.08,568.64 767.42,568.57 766.42,568.94 764.25,569.9 762.95,571.07 
			762.07,572.26 		"/>
		<polyline class="st15" points="770.16,560.88 770.25,560.1 770.92,558.4 		"/>
		<line class="st15" x1="758.87" y1="566.51" x2="759.6" y2="567.23"/>
		<polyline class="st15" points="759.75,581.92 759.55,580.45 759.88,578.55 760.58,576.82 760.99,574.71 		"/>
		<polyline class="st15" points="756.55,586.82 754.69,586.44 753.78,585.53 754.02,584.04 754.45,582.32 754.45,580.26 
			755.08,578.87 756.42,577.14 757.54,575.45 		"/>
		<polyline class="st15" points="760.35,587.99 762.11,588.27 764.84,588.27 767.23,587.77 767.85,586.73 767.84,586.08 		"/>
		<polyline class="st15" points="740.58,560.94 740.57,566.93 740.84,567.77 741.48,568.51 741.32,583.32 741.63,583.67 
			742.07,583.67 742.52,583.38 742.46,568.54 743.21,567.9 743.38,566.4 743.21,565.23 742.75,560.94 		"/>
		<line class="st15" x1="741.38" y1="560.94" x2="741.58" y2="564.97"/>
		<line class="st15" x1="742.05" y1="560.9" x2="742.31" y2="565"/>
		<polyline class="st15" points="743.09,564.15 742.31,565 741.58,564.97 740.58,564.37 		"/>
		<polygon class="st15" points="785.62,558.75 785.08,559.09 784.47,560.23 784.13,561.67 783.9,565 783.97,569.2 784.3,570.36 
			784.43,570.96 784.33,583.18 784.93,583.75 785.5,583.68 785.93,583.31 785.63,570.76 785.8,570.25 785.97,558.94 		"/>
		<polygon class="st15" points="790.28,583.22 789.64,583.52 788.88,583.35 788.79,582.49 789.39,575.5 789.56,573.63 
			789.39,571.54 788.88,570.99 788.24,570.43 787.98,568.86 788.36,567.2 789.13,565.75 789.81,565.32 790.58,565.32 791.3,565.92 
			791.64,567.03 791.82,568.47 791.6,569.92 791.01,570.69 790.11,571.37 790.37,582.24 		"/>
		<polyline class="st15" points="789.8,570.62 789.23,570.16 788.77,569.39 		"/>
		<path class="st15" d="M780.94,549.59c0-2.07-1.68-3.74-3.74-3.74c-2.07,0-3.74,1.68-3.74,3.74c0,2.07,1.68,3.74,3.74,3.74
			C779.26,553.33,780.94,551.65,780.94,549.59"/>
		<path class="st15" d="M782.66,549.59c0-3.02-2.45-5.47-5.47-5.47c-3.02,0-5.47,2.45-5.47,5.47c0,3.02,2.45,5.47,5.47,5.47
			C780.21,555.05,782.66,552.6,782.66,549.59"/>
		<path class="st15" d="M778.44,547.29c0.84,0.46,1.37,1.34,1.37,2.3c0,1.3-0.95,2.4-2.23,2.59"/>
		<path class="st15" d="M774.41,553.23c-1.14-0.87-1.8-2.21-1.8-3.64"/>
	</g>
	<g class="st13">
		<line class="st15" x1="719.3" y1="570.76" x2="718.1" y2="570.96"/>
		<polyline class="st15" points="705.2,559.41 704.53,560.22 704.29,560.76 703.93,560.79 702.09,562.43 700.61,563.27 
			700.41,563.63 699.13,564.79 697.97,565.91 696.37,566.79 695.36,569.83 694.93,571.24 694.93,572.5 		"/>
		<polyline class="st15" points="693.13,566.15 693.36,567.97 693.6,569.24 693.7,570.79 694.14,571.95 694.09,572.77 		"/>
		<polyline class="st15" points="688.56,565.16 689.31,567.21 690.15,568.16 691.14,569.43 692.2,570.27 692.37,571.26 
			693.06,572.01 693.1,572.76 		"/>
		<polyline class="st15" points="695.12,573.57 695.39,575.53 696.06,578.86 696.22,579.18 696.02,579.5 696,580.37 696.1,580.75 
			695.89,581.16 695.53,581.32 694.63,583.47 694.25,584.57 694.25,585.34 694.17,586.23 693.75,587.17 693.53,586.9 693.33,586.92 
			693.28,586.4 693.22,585.48 693.56,584.51 693.53,584.09 694,583.29 695.03,581.43 695.33,580.07 695.31,578.71 694.86,576.35 
			694.54,573.68 		"/>
		<polyline class="st15" points="693.78,573.69 693.17,574.41 691.49,575.31 689.4,576.36 688.29,577.01 685.9,577.4 684,577.06 
			685.9,577 687.63,576.36 690.2,574.7 692.03,573.22 		"/>
		<polyline class="st15" points="693.17,574.41 692.68,575.69 691.72,577.65 690.75,580.15 690.29,582.42 690.12,585.45 
			690.29,587.78 691.56,588.18 693.52,588.11 696.31,587.44 699.14,586.81 700.78,586.14 702.24,586.01 703.01,585.51 
			703.37,584.98 704.14,584.88 703.81,581.45 703.11,579.92 702.34,578.82 701.81,576.89 700.74,574.79 699.37,573.18 		"/>
		<polyline class="st15" points="697.36,572.16 698.89,570.6 700.52,569.64 702.75,568.64 		"/>
		<line class="st15" x1="699.04" y1="571.81" x2="699.78" y2="570.08"/>
		<polyline class="st15" points="692.27,572.55 691.63,571.95 690.57,571.17 689.83,569.62 688.37,567.77 687.84,565.76 
			687.26,563.77 686.89,561.36 686.91,559.79 688.3,559.51 692.18,558.7 693.92,558.49 695.86,558.53 699.08,559.09 701.35,559.09 
			701.49,560.09 701.22,562.1 701.28,564.75 700.97,566.53 701.06,567.51 700.21,568.89 		"/>
		<polyline class="st15" points="700.61,563.27 699.96,563.22 699.03,564.33 698.79,564.28 698.16,565.17 696.97,565.65 
			697.71,563.55 697.52,562.99 696.99,562.74 696.98,563.76 696.26,565.76 694.5,570.62 693.6,569.24 		"/>
		<line class="st15" x1="697.52" y1="562.99" x2="697.5" y2="561.08"/>
		<path class="st15" d="M687.53,585.04c-4.53-3.05-7.24-8.16-7.24-13.62c0-9.07,7.36-16.43,16.43-16.43s16.43,7.36,16.43,16.43
			c0,7.34-4.86,13.78-11.92,15.8"/>
		<path class="st15" d="M701.39,560.81c4.21,1.85,6.92,6.01,6.92,10.61c0,3.72-1.78,7.21-4.79,9.39"/>
		<path class="st15" d="M701,566.33c1.5,1.26,2.37,3.13,2.37,5.1c0,1.77-0.7,3.46-1.95,4.71"/>
		<path class="st15" d="M690.71,574.29c-0.43-0.89-0.65-1.87-0.65-2.86c0-0.35,0.03-0.7,0.08-1.04"/>
		<path class="st15" d="M689.09,573.9c-0.26-0.8-0.39-1.64-0.39-2.48c0-0.28,0.01-0.56,0.04-0.84"/>
		<path class="st15" d="M702.13,571.71c-0.06,1.2-0.52,2.34-1.3,3.25"/>
		<path class="st15" d="M707.31,570.14c0.05,0.43,0.08,0.85,0.08,1.28c0,1.67-0.39,3.32-1.15,4.81"/>
		<path class="st15" d="M688.44,579.55c-2.13-2.17-3.32-5.08-3.32-8.12c0-2.52,0.82-4.97,2.33-6.98"/>
		<polygon class="st15" points="692.27,572.55 692,572.85 692.03,573.22 692.4,573.52 693.23,573.7 694.54,573.68 695.77,573.44 
			697.69,573.44 698.93,573.37 699.37,573.18 699.32,572.55 699.04,571.81 698.64,571.97 698.03,572.15 696.49,572.18 
			695.41,572.29 694.93,572.5 694.09,572.77 692.84,572.76 		"/>
		<polyline class="st15" points="703.92,568.64 702.75,568.64 701.09,568.57 700.09,568.94 697.92,569.9 696.62,571.07 
			695.74,572.26 		"/>
		<polyline class="st15" points="703.83,560.88 703.92,560.1 704.59,558.4 		"/>
		<line class="st15" x1="692.54" y1="566.51" x2="693.27" y2="567.23"/>
		<polyline class="st15" points="693.42,581.92 693.22,580.45 693.55,578.55 694.25,576.82 694.66,574.71 		"/>
		<polyline class="st15" points="690.22,586.82 688.36,586.44 687.45,585.53 687.69,584.04 688.12,582.32 688.12,580.26 
			688.75,578.87 690.09,577.14 691.21,575.45 		"/>
		<polyline class="st15" points="694.02,587.99 695.78,588.27 698.51,588.27 700.9,587.77 701.52,586.73 701.51,586.08 		"/>
		<polyline class="st15" points="674.25,560.94 674.24,566.93 674.51,567.77 675.15,568.51 674.99,583.32 675.3,583.67 
			675.74,583.67 676.19,583.38 676.13,568.54 676.88,567.9 677.05,566.4 676.88,565.23 676.41,560.94 		"/>
		<line class="st15" x1="675.05" y1="560.94" x2="675.25" y2="564.97"/>
		<line class="st15" x1="675.72" y1="560.9" x2="675.98" y2="565"/>
		<polyline class="st15" points="676.76,564.15 675.98,565 675.25,564.97 674.25,564.37 		"/>
		<polygon class="st15" points="719.29,558.75 718.75,559.09 718.14,560.23 717.8,561.67 717.57,565 717.64,569.2 717.97,570.36 
			718.1,570.96 718,583.18 718.6,583.75 719.17,583.68 719.6,583.31 719.3,570.76 719.46,570.25 719.64,558.94 		"/>
		<polygon class="st15" points="723.95,583.22 723.31,583.52 722.54,583.35 722.46,582.49 723.06,575.5 723.23,573.63 
			723.06,571.54 722.54,570.99 721.91,570.43 721.65,568.86 722.03,567.2 722.8,565.75 723.48,565.32 724.25,565.32 724.97,565.92 
			725.31,567.03 725.49,568.47 725.27,569.92 724.68,570.69 723.78,571.37 724.04,582.24 		"/>
		<polyline class="st15" points="723.47,570.62 722.9,570.16 722.44,569.39 		"/>
		<path class="st15" d="M714.61,549.59c0-2.07-1.68-3.74-3.74-3.74c-2.07,0-3.74,1.68-3.74,3.74c0,2.07,1.68,3.74,3.74,3.74
			C712.93,553.33,714.61,551.65,714.61,549.59"/>
		<path class="st15" d="M716.33,549.59c0-3.02-2.45-5.47-5.47-5.47c-3.02,0-5.47,2.45-5.47,5.47c0,3.02,2.45,5.47,5.47,5.47
			C713.88,555.05,716.33,552.6,716.33,549.59"/>
		<path class="st15" d="M712.11,547.29c0.84,0.46,1.37,1.34,1.37,2.3c0,1.3-0.95,2.4-2.23,2.59"/>
		<path class="st15" d="M708.08,553.23c-1.14-0.87-1.8-2.21-1.8-3.64"/>
	</g>
	<g class="st13">
		<g class="st10">
			<g>
				<defs>
					<rect id="SVGID_1_" x="795.27" y="717" width="6.61" height="113.1"/>
				</defs>
				<clipPath id="SVGID_2_">
					<use xlink:href="#SVGID_1_"  style="overflow:visible;"/>
				</clipPath>
				<rect x="795.55" y="717.28" class="st16" width="6.05" height="112.55"/>
				
					<use xlink:href="#SVGID_1_"  style="overflow:visible;fill:none;stroke:#50545E;stroke-width:0.5559;stroke-linecap:round;stroke-linejoin:round;stroke-miterlimit:10;"/>
			</g>
		</g>
		<g class="st10">
			<g>
				<polygon class="st15" points="801.6,818.71 806.11,808.96 806.11,737.7 801.6,727.94 				"/>
			</g>
		</g>
		<g class="st10">
			<g>
				<defs>
					<rect id="SVGID_3_" x="805.82" y="765.61" width="2.81" height="15.91"/>
				</defs>
				<clipPath id="SVGID_4_">
					<use xlink:href="#SVGID_3_"  style="overflow:visible;"/>
				</clipPath>
				<rect x="806.1" y="765.89" class="st17" width="2.26" height="15.35"/>
				
					<use xlink:href="#SVGID_3_"  style="overflow:visible;fill:none;stroke:#50545E;stroke-width:0.5559;stroke-linecap:round;stroke-linejoin:round;stroke-miterlimit:10;"/>
			</g>
		</g>
	</g>
	<polygon class="st18" points="810.01,536.11 810.01,436.02 810.01,368.34 745.1,368.34 407.51,368.34 407.51,436.02 745.1,436.02 
		745.1,536.11 637.32,536.11 637.32,601.24 811.39,601.24 811.39,536.11 	"/>
</g>
<g id="Несущие">
	<polygon class="st19" points="105.87,652.9 129.22,652.9 129.22,740.13 861.98,740.13 861.98,689.14 899.54,689.14 899.54,683 
		914.35,683 914.35,764.08 105.87,764.08 	"/>
	<polygon class="st19" points="127.99,532.5 105.87,532.5 105.87,483.97 155.63,483.97 155.63,235.18 914.35,235.18 914.35,318.72 
		899.54,318.72 899.54,313.19 861.98,313.19 861.98,259.14 180.2,259.14 180.2,507.92 127.99,507.92 	"/>
	<polygon class="st19" points="899.54,418.85 899.54,423.77 861.98,423.77 861.98,459.4 899.54,459.4 899.54,464.31 914.35,464.31 
		914.35,418.85 	"/>
</g>
<g id="Layer_14">
</g>
<g id="Площади">
	<g>
		<g>
			<path class="st9" d="M521.78,444.49h-2.7c-0.9,0-1.35-0.45-1.35-1.35c0-0.9,0.45-1.35,1.35-1.35h2.7c1.13,0,2.09-0.39,2.87-1.18
				c0.78-0.78,1.18-1.74,1.18-2.87c0-1.12-0.4-2.07-1.19-2.86c-0.79-0.79-1.74-1.19-2.86-1.19h-5.4c-0.9,0-1.35-0.45-1.35-1.35
				s0.45-1.35,1.35-1.35h5.4c1.87,0,3.46,0.66,4.77,1.98c1.32,1.32,1.97,2.91,1.97,4.76c0,2.24-0.9,4.03-2.7,5.4
				c1.8,1.36,2.7,3.16,2.7,5.4v2.7c0,1.87-0.66,3.46-1.98,4.77c-1.32,1.32-2.91,1.97-4.76,1.97h-5.4c-0.9,0-1.35-0.45-1.35-1.35
				s0.45-1.35,1.35-1.35h5.4c1.13,0,2.09-0.39,2.87-1.18c0.78-0.78,1.18-1.74,1.18-2.87v-2.7c0-1.12-0.4-2.07-1.19-2.86
				C523.85,444.88,522.89,444.49,521.78,444.49z"/>
			<path class="st9" d="M534.9,455.28c0.9,0,1.35,0.44,1.35,1.33c0,0.12-0.46,2.04-1.39,5.74c-0.16,0.68-0.6,1.02-1.31,1.02
				c-0.9,0-1.35-0.45-1.35-1.35c0-0.61,0.46-2.52,1.39-5.72C533.79,455.62,534.22,455.28,534.9,455.28z"/>
			<path class="st9" d="M546.1,445.84l-1,0c-0.9,0-1.35-0.45-1.35-1.35s0.45-1.35,1.35-1.35l1.59,0l2.12-9.44h-9.1
				c-0.9,0-1.35-0.45-1.35-1.35s0.45-1.35,1.35-1.35h10.79c0.89,0,1.34,0.44,1.35,1.31c0,0.08-0.01,0.19-0.04,0.33l-2.33,10.51
				l1.02,0c0.9,0,1.35,0.45,1.35,1.35s-0.45,1.35-1.35,1.35l-1.64,0l-2.44,11.08c-0.16,0.71-0.59,1.06-1.29,1.06
				c-0.91,0-1.37-0.45-1.37-1.35c0-0.14,0.01-0.24,0.03-0.31L546.1,445.84z"/>
			<path class="st9" d="M563.22,457.98c-1.87,0-3.46-0.66-4.77-1.97c-1.32-1.31-1.97-2.91-1.97-4.77v-2.7c0-2.23,0.9-4.03,2.7-5.4
				c-1.8-1.36-2.7-3.16-2.7-5.4c0-1.87,0.66-3.46,1.97-4.77c1.31-1.31,2.91-1.97,4.77-1.97c1.87,0,3.46,0.66,4.77,1.97
				c1.32,1.32,1.97,2.91,1.97,4.77c0,2.24-0.9,4.03-2.7,5.4c1.29,0.98,2.11,2.19,2.45,3.62c0.16,0.72,0.25,2.21,0.25,4.48
				c0,1.87-0.66,3.46-1.97,4.77C566.68,457.32,565.08,457.98,563.22,457.98z M563.22,441.79c1.13,0,2.09-0.39,2.87-1.18
				c0.78-0.78,1.18-1.74,1.18-2.87c0-1.12-0.4-2.07-1.19-2.86c-0.79-0.79-1.74-1.19-2.86-1.19c-1.13,0-2.09,0.39-2.87,1.18
				c-0.78,0.78-1.18,1.74-1.18,2.87s0.39,2.09,1.18,2.87S562.09,441.79,563.22,441.79z M563.22,455.28c1.13,0,2.09-0.39,2.87-1.18
				c0.78-0.78,1.18-1.74,1.18-2.87v-2.7c0-1.12-0.4-2.07-1.19-2.86c-0.79-0.79-1.74-1.19-2.86-1.19c-1.13,0-2.09,0.39-2.87,1.18
				c-0.78,0.78-1.18,1.74-1.18,2.87v2.7c0,1.13,0.39,2.09,1.18,2.87C561.13,454.89,562.09,455.28,563.22,455.28z"/>
		</g>
	</g>
	<g>
		<g>
			<path class="st9" d="M760.38,435.61l-3.1,3.1c-0.26,0.25-0.57,0.38-0.94,0.38c-0.9,0-1.35-0.45-1.35-1.35
				c0-0.37,0.13-0.68,0.39-0.94l5.27-5.27c0.35-0.35,0.72-0.53,1.08-0.53c0.9,0,1.35,0.45,1.35,1.35v24.29
				c0,0.9-0.45,1.35-1.35,1.35c-0.9,0-1.35-0.45-1.35-1.35V435.61z"/>
			<path class="st9" d="M781.48,444.49c0,3.22-0.4,6-1.19,8.34c-1.16,3.43-3.01,5.15-5.56,5.15c-2.55,0-4.4-1.71-5.56-5.13
				c-0.79-2.34-1.19-5.13-1.19-8.36s0.4-6.02,1.19-8.36c1.16-3.42,3.01-5.13,5.56-5.13c2.55,0,4.4,1.72,5.56,5.15
				C781.09,438.49,781.48,441.27,781.48,444.49z M778.78,444.49c0-2.23-0.24-4.34-0.72-6.32c-0.72-2.98-1.83-4.48-3.33-4.48
				c-1.49,0-2.59,1.5-3.31,4.5c-0.49,2.02-0.74,4.12-0.74,6.3c0,2.22,0.24,4.33,0.72,6.32c0.72,2.98,1.83,4.48,3.33,4.48
				c1.5,0,2.61-1.49,3.33-4.48C778.54,448.82,778.78,446.71,778.78,444.49z"/>
			<path class="st9" d="M787.35,455.28c0.9,0,1.35,0.44,1.35,1.33c0,0.12-0.46,2.04-1.39,5.74c-0.16,0.68-0.6,1.02-1.31,1.02
				c-0.9,0-1.35-0.45-1.35-1.35c0-0.61,0.46-2.52,1.39-5.72C786.24,455.62,786.67,455.28,787.35,455.28z"/>
			<path class="st9" d="M799.87,457.98c-1.87,0-3.46-0.66-4.77-1.97c-1.32-1.31-1.97-2.91-1.97-4.77v-2.7c0-2.23,0.9-4.03,2.7-5.4
				c-1.8-1.36-2.7-3.16-2.7-5.4c0-1.87,0.66-3.46,1.97-4.77c1.31-1.31,2.91-1.97,4.77-1.97c1.87,0,3.46,0.66,4.77,1.97
				c1.32,1.32,1.97,2.91,1.97,4.77c0,2.24-0.9,4.03-2.7,5.4c1.29,0.98,2.11,2.19,2.45,3.62c0.16,0.72,0.25,2.21,0.25,4.48
				c0,1.87-0.66,3.46-1.97,4.77C803.33,457.32,801.73,457.98,799.87,457.98z M799.87,441.79c1.13,0,2.09-0.39,2.87-1.18
				c0.78-0.78,1.18-1.74,1.18-2.87c0-1.12-0.4-2.07-1.19-2.86c-0.79-0.79-1.74-1.19-2.86-1.19c-1.13,0-2.09,0.39-2.87,1.18
				c-0.78,0.78-1.18,1.74-1.18,2.87s0.39,2.09,1.18,2.87S798.74,441.79,799.87,441.79z M799.87,455.28c1.13,0,2.09-0.39,2.87-1.18
				c0.78-0.78,1.18-1.74,1.18-2.87v-2.7c0-1.12-0.4-2.07-1.19-2.86c-0.79-0.79-1.74-1.19-2.86-1.19c-1.13,0-2.09,0.39-2.87,1.18
				c-0.78,0.78-1.18,1.74-1.18,2.87v2.7c0,1.13,0.39,2.09,1.18,2.87C797.78,454.89,798.74,455.28,799.87,455.28z"/>
			<path class="st9" d="M811.53,443.14v-10.79c0-0.9,0.45-1.35,1.35-1.35h9.44c0.9,0,1.35,0.45,1.35,1.35s-0.45,1.35-1.35,1.35h-8.1
				v8.1h4.05c1.87,0,3.46,0.66,4.77,1.98c1.32,1.32,1.97,2.91,1.97,4.76v2.7c0,1.87-0.66,3.46-1.98,4.77
				c-1.32,1.32-2.91,1.97-4.76,1.97h-5.4c-0.9,0-1.35-0.45-1.35-1.35s0.45-1.35,1.35-1.35h5.4c1.13,0,2.09-0.39,2.87-1.18
				c0.78-0.78,1.18-1.74,1.18-2.87v-2.7c0-1.12-0.4-2.07-1.19-2.86c-0.79-0.79-1.74-1.19-2.86-1.19h-5.4
				C811.98,444.49,811.53,444.04,811.53,443.14z"/>
		</g>
	</g>
	<g>
		<g>
			<path class="st9" d="M218.76,692.55h-2.7c-0.9,0-1.35-0.45-1.35-1.35c0-0.9,0.45-1.35,1.35-1.35h2.7c1.13,0,2.09-0.39,2.87-1.18
				c0.78-0.78,1.18-1.74,1.18-2.87c0-1.12-0.4-2.07-1.19-2.86c-0.79-0.79-1.74-1.19-2.86-1.19h-5.4c-0.9,0-1.35-0.45-1.35-1.35
				s0.45-1.35,1.35-1.35h5.4c1.87,0,3.46,0.66,4.77,1.98c1.32,1.32,1.97,2.91,1.97,4.76c0,2.24-0.9,4.03-2.7,5.4
				c1.8,1.36,2.7,3.16,2.7,5.4v2.7c0,1.87-0.66,3.46-1.98,4.77c-1.32,1.32-2.91,1.97-4.76,1.97h-5.4c-0.9,0-1.35-0.45-1.35-1.35
				s0.45-1.35,1.35-1.35h5.4c1.13,0,2.09-0.39,2.87-1.18c0.78-0.78,1.18-1.74,1.18-2.87v-2.7c0-1.12-0.4-2.07-1.19-2.86
				C220.83,692.95,219.88,692.55,218.76,692.55z"/>
			<path class="st9" d="M231.89,703.34c0.9,0,1.35,0.44,1.35,1.33c0,0.12-0.46,2.04-1.39,5.74c-0.16,0.68-0.6,1.02-1.31,1.02
				c-0.9,0-1.35-0.45-1.35-1.35c0-0.61,0.46-2.52,1.39-5.72C230.77,703.68,231.21,703.34,231.89,703.34z"/>
			<path class="st9" d="M240.81,706.04c-0.35,0-0.67-0.14-0.94-0.41s-0.41-0.59-0.41-0.94c0-0.63,0.22-1.02,0.67-1.17
				c0.98-0.33,1.8-0.7,2.45-1.12c2.9-1.88,4.52-4.27,4.87-7.16h-3.95c-1.87,0-3.46-0.66-4.77-1.97c-1.32-1.31-1.97-2.91-1.97-4.77
				v-2.7c0-1.87,0.66-3.46,1.97-4.77c1.31-1.31,2.91-1.97,4.77-1.97c1.88,0,3.48,0.65,4.78,1.95c1.31,1.3,1.96,2.89,1.96,4.75v8.14
				c0,4.58-2.13,8.2-6.4,10.85C242.48,705.61,241.46,706.04,240.81,706.04z M247.56,692.55v-6.75c0-1.12-0.4-2.07-1.19-2.86
				c-0.79-0.79-1.74-1.19-2.86-1.19c-1.12,0-2.07,0.4-2.86,1.19c-0.79,0.79-1.19,1.74-1.19,2.86v2.7c0,1.13,0.39,2.09,1.18,2.87
				c0.78,0.78,1.74,1.18,2.87,1.18H247.56z"/>
			<path class="st9" d="M261.26,692.55h-2.7c-0.9,0-1.35-0.45-1.35-1.35c0-0.9,0.45-1.35,1.35-1.35h2.7c1.13,0,2.09-0.39,2.87-1.18
				c0.78-0.78,1.18-1.74,1.18-2.87c0-1.12-0.4-2.07-1.19-2.86c-0.79-0.79-1.74-1.19-2.86-1.19h-5.4c-0.9,0-1.35-0.45-1.35-1.35
				s0.45-1.35,1.35-1.35h5.4c1.87,0,3.46,0.66,4.77,1.98c1.32,1.32,1.97,2.91,1.97,4.76c0,2.24-0.9,4.03-2.7,5.4
				c1.8,1.36,2.7,3.16,2.7,5.4v2.7c0,1.87-0.66,3.46-1.98,4.77c-1.32,1.32-2.91,1.97-4.76,1.97h-5.4c-0.9,0-1.35-0.45-1.35-1.35
				s0.45-1.35,1.35-1.35h5.4c1.13,0,2.09-0.39,2.87-1.18c0.78-0.78,1.18-1.74,1.18-2.87v-2.7c0-1.12-0.4-2.07-1.19-2.86
				C263.33,692.95,262.38,692.55,261.26,692.55z"/>
		</g>
	</g>
	<g>
		<g>
			<path class="st9" d="M222.04,444.49h-2.7c-0.9,0-1.35-0.45-1.35-1.35c0-0.9,0.45-1.35,1.35-1.35h2.7c1.13,0,2.09-0.39,2.87-1.18
				c0.78-0.78,1.18-1.74,1.18-2.87c0-1.12-0.4-2.07-1.19-2.86c-0.79-0.79-1.74-1.19-2.86-1.19h-5.4c-0.9,0-1.35-0.45-1.35-1.35
				s0.45-1.35,1.35-1.35h5.4c1.87,0,3.46,0.66,4.77,1.98c1.32,1.32,1.97,2.91,1.97,4.76c0,2.24-0.9,4.03-2.7,5.4
				c1.8,1.36,2.7,3.16,2.7,5.4v2.7c0,1.87-0.66,3.46-1.98,4.77c-1.32,1.32-2.91,1.97-4.76,1.97h-5.4c-0.9,0-1.35-0.45-1.35-1.35
				s0.45-1.35,1.35-1.35h5.4c1.13,0,2.09-0.39,2.87-1.18c0.78-0.78,1.18-1.74,1.18-2.87v-2.7c0-1.12-0.4-2.07-1.19-2.86
				C224.11,444.88,223.16,444.49,222.04,444.49z"/>
			<path class="st9" d="M235.17,455.28c0.9,0,1.35,0.44,1.35,1.33c0,0.12-0.46,2.04-1.39,5.74c-0.16,0.68-0.6,1.02-1.31,1.02
				c-0.9,0-1.35-0.45-1.35-1.35c0-0.61,0.46-2.52,1.39-5.72C234.05,455.62,234.49,455.28,235.17,455.28z"/>
			<path class="st9" d="M244.21,435.61l-3.1,3.1c-0.26,0.25-0.57,0.38-0.94,0.38c-0.9,0-1.35-0.45-1.35-1.35
				c0-0.37,0.13-0.68,0.39-0.94l5.27-5.27c0.35-0.35,0.72-0.53,1.08-0.53c0.9,0,1.35,0.45,1.35,1.35v24.29
				c0,0.9-0.45,1.35-1.35,1.35c-0.9,0-1.35-0.45-1.35-1.35V435.61z"/>
			<path class="st9" d="M251.81,451.23c0-0.15,0.01-0.27,0.04-0.37l5.4-18.89c0.19-0.65,0.63-0.98,1.31-0.98
				c0.9,0,1.35,0.45,1.35,1.35c0,0.12-0.02,0.25-0.05,0.39l-4.92,17.15h6.32v-4.05c0-0.9,0.45-1.35,1.35-1.35s1.35,0.45,1.35,1.35
				v4.05h2.7c0.9,0,1.35,0.45,1.35,1.35s-0.45,1.35-1.35,1.35h-2.7v4.05c0,0.9-0.45,1.35-1.35,1.35s-1.35-0.45-1.35-1.35v-4.05h-8.1
				C252.26,452.58,251.81,452.13,251.81,451.23z"/>
		</g>
	</g>
</g>
</svg>
