<?xml version="1.0" encoding="utf-8"?>
<!-- Generator: Adobe Illustrator 25.0.1, SVG Export Plug-In . SVG Version: 6.00 Build 0)  -->
<svg version="1.1" xmlns="http://www.w3.org/2000/svg" xmlns:xlink="http://www.w3.org/1999/xlink" x="0px" y="0px"
	 viewBox="0 0 1000 1000" style="enable-background:new 0 0 1000 1000;" xml:space="preserve">
<style type="text/css">
	.st0{fill:none;stroke:#50545E;stroke-width:1.1026;stroke-linecap:round;stroke-linejoin:round;stroke-miterlimit:10;}
	.st1{fill:#FFFFFF;stroke:#50545E;stroke-width:0.9819;stroke-linecap:round;stroke-linejoin:round;stroke-miterlimit:10;}
	.st2{fill:none;stroke:#50545E;stroke-width:1.1026;stroke-linecap:round;stroke-linejoin:round;}
	
		.st3{fill:none;stroke:#50545E;stroke-width:1.1026;stroke-linecap:round;stroke-linejoin:round;stroke-dasharray:19.9555,19.9555,19.9555,19.9555;}
	
		.st4{fill:none;stroke:#50545E;stroke-width:1.1026;stroke-linecap:round;stroke-linejoin:round;stroke-dasharray:19.9555,19.9555,19.9555,19.9555,19.9555,19.9555;}
	
		.st5{fill:none;stroke:#50545E;stroke-width:1.1026;stroke-linecap:round;stroke-linejoin:round;stroke-dasharray:20.7492,20.7492,20.7492,20.7492;}
	
		.st6{fill:none;stroke:#50545E;stroke-width:1.1026;stroke-linecap:round;stroke-linejoin:round;stroke-dasharray:20.7492,20.7492,20.7492,20.7492,20.7492,20.7492;}
	
		.st7{fill:none;stroke:#50545E;stroke-width:1.1026;stroke-linecap:round;stroke-linejoin:round;stroke-dasharray:15.5906,15.5906,15.5906,15.5906;}
	
		.st8{fill:none;stroke:#50545E;stroke-width:1.1026;stroke-linecap:round;stroke-linejoin:round;stroke-dasharray:15.5906,15.5906,15.5906,15.5906,15.5906,15.5906;}
	.st9{fill:#50545E;}
	.st10{opacity:0.8;}
	
		.st11{opacity:0.8;fill:none;stroke:#50545E;stroke-width:0.5513;stroke-linecap:round;stroke-linejoin:round;stroke-miterlimit:10;}
	.st12{display:none;}
	.st13{display:inline;opacity:0.8;}
	
		.st14{opacity:0.8;fill:none;stroke:#50545E;stroke-width:0.5559;stroke-linecap:round;stroke-linejoin:round;stroke-miterlimit:10;}
	.st15{fill:none;stroke:#50545E;stroke-width:0.5559;stroke-linecap:round;stroke-linejoin:round;stroke-miterlimit:10;}
	
		.st16{clip-path:url(#SVGID_2_);fill:none;stroke:#50545E;stroke-width:0.5559;stroke-linecap:round;stroke-linejoin:round;stroke-miterlimit:10;}
	
		.st17{clip-path:url(#SVGID_4_);fill:none;stroke:#50545E;stroke-width:0.5559;stroke-linecap:round;stroke-linejoin:round;stroke-miterlimit:10;}
	
		.st18{display:inline;opacity:0.8;fill:none;stroke:#50545E;stroke-width:0.5559;stroke-linecap:round;stroke-linejoin:round;stroke-miterlimit:10;}
	.st19{fill:#50545E;stroke:#50545E;stroke-width:2.189;stroke-linecap:round;stroke-linejoin:round;stroke-miterlimit:10;}
</style>
<g id="Layer_8">
</g>
<g id="Окна_x2C__двери">
	<path class="st0" d="M743.2,506.25v91.06c0,0-77.41-0.93-87.31-91.99"/>
	<path class="st0" d="M887.8,539.93h111.63c0,0-1.14,94.89-112.77,107.03"/>
	<g>
		
			<rect x="84.95" y="309.34" transform="matrix(-1 -3.619295e-11 3.619295e-11 -1 221.8474 1006.9336)" class="st0" width="51.94" height="388.25"/>
		
			<rect x="93.45" y="309.34" transform="matrix(-1 -3.385349e-11 3.385349e-11 -1 194.873 1006.8699)" class="st0" width="7.98" height="388.18"/>
	</g>
	<polygon class="st0" points="7.76,471.43 7.76,471.47 7.7,471.47 7.7,669.71 76.87,669.71 76.87,669.69 85.15,669.69 85.15,678.6 
		-0.58,678.6 -0.58,462.57 85.15,462.57 85.15,471.43 	"/>
</g>
<g id="Шахты">
	<g>
		<rect x="512.72" y="283.24" class="st1" width="50.12" height="93.12"/>
		<rect x="517.77" y="361.54" class="st1" width="40.02" height="9.73"/>
		<rect x="517.77" y="288.32" class="st1" width="40.02" height="10.16"/>
		<rect x="517.77" y="303.56" class="st1" width="40.02" height="52.91"/>
	</g>
</g>
<g id="Пунктир">
	<g>
		<g>
			<line class="st2" x1="313.47" y1="267.64" x2="313.47" y2="277.48"/>
			<line class="st3" x1="313.47" y1="297.44" x2="313.47" y2="367.28"/>
			<line class="st4" x1="313.47" y1="377.26" x2="313.47" y2="487.02"/>
			<polyline class="st2" points="313.47,497 313.47,506.84 323.31,506.84 			"/>
			<line class="st5" x1="344.06" y1="506.84" x2="416.68" y2="506.84"/>
			<line class="st6" x1="427.06" y1="506.84" x2="541.18" y2="506.84"/>
			<line class="st2" x1="551.55" y1="506.84" x2="561.4" y2="506.84"/>
		</g>
	</g>
	<g>
		<g>
			<line class="st2" x1="619.02" y1="507.71" x2="619.02" y2="517.56"/>
			<line class="st7" x1="619.02" y1="533.15" x2="619.02" y2="587.72"/>
			<line class="st8" x1="619.02" y1="595.51" x2="619.02" y2="681.26"/>
			<line class="st2" x1="619.02" y1="689.05" x2="619.02" y2="698.9"/>
		</g>
	</g>
</g>
<g id="Перегородки">
	<rect x="562.71" y="266.77" class="st9" width="10.48" height="238.98"/>
	<rect x="562.71" y="495.93" class="st9" width="89.05" height="12.56"/>
	<rect x="750.62" y="497.24" class="st9" width="64.82" height="12.44"/>
	<rect x="586.93" y="281.83" class="st9" width="214.1" height="6.55"/>
	<rect x="586.93" y="281.83" class="st9" width="4.58" height="216.72"/>
	<rect x="796.45" y="281.83" class="st9" width="4.58" height="122.44"/>
	<rect x="796.45" y="397.72" class="st9" width="14.4" height="6.55"/>
	<rect x="608.54" y="699.55" class="st9" width="13.09" height="38.63"/>
	<rect x="512.43" y="266.7" class="st9" width="8.14" height="16.15"/>
</g>
<g id="Layer_13">
</g>
<g id="Сантехника">
	<g class="st10">
		<rect x="442.86" y="267.91" class="st11" width="66.97" height="66.97"/>
		<circle class="st11" cx="476.39" cy="295.24" r="5.02"/>
		<circle class="st11" cx="476.39" cy="277.95" r="1.95"/>
		<circle class="st11" cx="495.82" cy="277.95" r="1.95"/>
		<path class="st11" d="M503.97,329.3h-55.24c-0.16,0-0.28-0.13-0.28-0.28v-55.24c0-0.16,0.13-0.28,0.28-0.28h55.24
			c0.16,0,0.28,0.13,0.28,0.28v55.24C504.25,329.17,504.13,329.3,503.97,329.3z"/>
		<path class="st11" d="M501.21,326.5h-49.66c-0.16,0-0.28-0.13-0.28-0.28v-44.08c0-0.16,0.13-0.28,0.28-0.28h49.66
			c0.16,0,0.28,0.13,0.28,0.28v44.08C501.49,326.38,501.36,326.5,501.21,326.5z"/>
	</g>
	<g class="st10">
		<ellipse class="st11" cx="742.11" cy="300.12" rx="1.84" ry="1.83"/>
		<line class="st11" x1="738.89" y1="300.12" x2="740.26" y2="300.12"/>
		<line class="st11" x1="743.95" y1="300.12" x2="745.33" y2="300.12"/>
		<line class="st11" x1="742.11" y1="303.32" x2="742.11" y2="301.95"/>
		<line class="st11" x1="742.11" y1="298.29" x2="742.11" y2="296.92"/>
		<line class="st11" x1="731.85" y1="314.99" x2="732.59" y2="314.99"/>
		<line class="st11" x1="734.58" y1="314.99" x2="735.32" y2="314.99"/>
		<line class="st11" x1="733.58" y1="316.72" x2="733.58" y2="315.98"/>
		<line class="st11" x1="733.58" y1="314" x2="733.58" y2="313.26"/>
		<ellipse class="st11" cx="733.58" cy="314.99" rx="1" ry="0.99"/>
		<ellipse class="st11" cx="750.63" cy="314.99" rx="1" ry="0.99"/>
		<line class="st11" x1="748.89" y1="314.99" x2="749.64" y2="314.99"/>
		<line class="st11" x1="751.63" y1="314.99" x2="752.37" y2="314.99"/>
		<line class="st11" x1="750.63" y1="316.72" x2="750.63" y2="315.98"/>
		<line class="st11" x1="750.63" y1="314" x2="750.63" y2="313.26"/>
		<path class="st11" d="M760.12,330.83c-0.05-0.77-0.11-1.39-0.15-1.81c-1.35-7.54-2.97-12.58-4.32-20.12
			c-4.07,0.47-8.61,0.78-13.54,0.78c-4.96,0-9.51-0.31-13.59-0.78c-1.35,7.54-2.92,12.58-4.27,20.12c-0.04,0.41-0.1,1.04-0.15,1.81
			c-0.3,4.52-0.8,12.13,2.93,19c0.6,1.11,1.84,3.34,4.2,5.47c1.42,1.28,5.18,4.57,10.74,4.57c0.05,0,0.09,0,0.14,0
			c0.05,0,0.09,0,0.14,0c5.57,0,9.33-3.29,10.74-4.57c2.36-2.13,3.6-4.36,4.2-5.47C760.92,342.96,760.42,335.35,760.12,330.83z"/>
		<path class="st11" d="M757.17,332.09c-0.32-2.27-0.7-4.8-2.49-7.41c-2.21-3.21-5.17-4.52-6.14-4.93
			c-2.63-1.12-4.88-1.12-6.44-1.12c-1.57,0-3.81,0-6.44,1.12c-0.97,0.41-3.93,1.72-6.14,4.93c-1.79,2.6-2.17,5.14-2.49,7.41
			c-0.4,2.89-1.46,10.44,2.99,17.24c1.11,1.69,3.48,5.27,8.04,6.74c0.95,0.31,4.22,1.24,8.06,0c4.56-1.48,6.93-5.05,8.04-6.74
			C758.63,342.53,757.58,334.98,757.17,332.09z"/>
		<path class="st11" d="M751.45,324.99c-3.53-3.46-8.14-3.45-9.35-3.44c-1.21-0.01-5.81-0.02-9.35,3.44
			c-3.13,3.06-3.8,7.27-3.78,10.61c0.01,2.07,0.18,3.64,0.41,4.93c0.56,3.17,1.13,6.36,3.46,9.1c1.84,2.16,5.12,4.44,9.29,4.39
			c4.93-0.05,8.11-3.31,9.09-4.44c2.46-2.84,3.06-6.15,3.59-9.05c0.21-1.17,0.4-2.8,0.41-4.93
			C755.26,332.26,754.58,328.05,751.45,324.99z"/>
		<path class="st11" d="M746.77,326.8c-0.19-0.54-0.58-1.43-1.37-2.24c-0.44-0.46-0.89-0.76-1.25-0.97c-0.01,0-0.01,0-0.02,0
			c-1.88,0-2.17,0-4.03,0c-0.01,0-0.01,0-0.02,0c-0.36,0.2-0.81,0.51-1.25,0.97c-0.79,0.81-1.18,1.7-1.37,2.24
			c-0.07,2.5-0.13,4.99-0.2,7.49c0.02,0.34,0.13,1.6,1.1,2.64c0.75,0.81,1.62,1.05,1.97,1.12c1.19,0,2.38,0,3.57,0
			c0.35-0.07,1.22-0.31,1.97-1.12c0.97-1.04,1.08-2.3,1.1-2.64C746.9,331.79,746.83,329.3,746.77,326.8z"/>
		<path class="st11" d="M746.86,329.75c-0.57,0.44-2.26,1.64-4.69,1.66c-2.5,0.02-4.24-1.22-4.81-1.66"/>
		<path class="st11" d="M761.33,288.99h-38.44c-0.52,0-0.94,0.45-0.94,1c0,0,0,9.28,0,10.27c0.12,0.54,0.31,1.25,0.62,2.04
			c0.31,0.79,0.75,1.68,1.36,2.57c0.8,1.18,1.7,2.06,2.52,2.71c0.82,0.65,1.57,1.07,2.07,1.32c2.04,0.24,4.2,0.43,6.47,0.57
			c2.27,0.14,4.65,0.21,7.12,0.21c2.47,0,4.84-0.08,7.1-0.21c2.26-0.14,4.41-0.33,6.45-0.57c0.45-0.19,1.12-0.51,1.88-1.03
			c0.76-0.52,1.6-1.24,2.38-2.23c0.84-1.07,1.39-2.16,1.75-3.11c0.36-0.95,0.52-1.76,0.61-2.27c0-1.13,0-10.27,0-10.27
			C762.27,289.44,761.85,288.99,761.33,288.99z"/>
	</g>
	<g class="st10">
		<path class="st11" d="M612.3,436.46c1.41,0,2.56-1.15,2.56-2.56c0-1.41-1.14-2.55-2.56-2.55c-1.42,0-2.56,1.14-2.56,2.55
			C609.74,435.31,610.89,436.46,612.3,436.46z"/>
		<line class="st11" x1="612.3" y1="430.17" x2="612.3" y2="437.62"/>
		<line class="st11" x1="616.04" y1="433.9" x2="608.56" y2="433.9"/>
		<path class="st11" d="M600.02,435.73c1.01,0,1.84-0.82,1.84-1.83c0-1.01-0.82-1.83-1.84-1.83c-1.02,0-1.84,0.82-1.84,1.83
			C598.18,434.91,599.01,435.73,600.02,435.73z"/>
		<line class="st11" x1="600.02" y1="430.97" x2="600.02" y2="436.83"/>
		<line class="st11" x1="602.96" y1="433.9" x2="597.09" y2="433.9"/>
		<path class="st11" d="M611.22,461.49c-1.32,0.1-2.95,0.16-4.82,0.09c-0.73-0.03-2.13-0.1-3.88-0.31
			c-1.44-0.18-3.24-0.48-5.29-0.98c-1.65-0.55-3.3-1.1-4.96-1.65c0,0,0-0.01,0-0.01c0-0.7,0-49.63,0-49.83c0,0,0-0.01,0-0.01
			c1.65-0.55,3.3-1.1,4.96-1.65c2.04-0.51,3.84-0.8,5.29-0.98c1.75-0.22,3.15-0.29,3.88-0.31c1.87-0.07,3.51-0.01,4.82,0.09
			c1.83,0.04,13.54,0.47,21.19,9.93c5.66,7,5.78,14.84,5.78,17.86c0,3.02-0.12,10.86-5.78,17.86
			C624.76,461.02,613.05,461.45,611.22,461.49z"/>
		<path class="st11" d="M614.09,453.86c-0.64,0.06-1.51,0.11-2.54-0.19c-0.05-0.02-0.1-0.03-0.14-0.04c0,0-0.9-0.31-1.72-1
			c-4.26-3.59-4.26-18.74-4.26-18.74l0,0c0-8.32,0.45-15.32,4.26-18.46c0,0,0,0,0,0c0,0,0,0,0,0c0.84-0.73,1.59-0.96,1.72-1
			c0,0,0,0,0,0c1.13-0.39,2.51-0.25,2.68-0.24c1.31,0.09,1.96,0.13,2.9,0.32c5.37,1.08,8.72,3.33,8.72,3.33
			c2.49,1.67,4,3.49,4.77,4.44c0.62,0.76,1.56,1.93,2.42,3.61c1.89,3.69,1.98,7.09,1.98,8c0.02,4-1.34,6.94-1.98,8.27c0,0,0,0,0,0
			c-0.53,0.98-1.31,2.25-2.42,3.62c-0.76,0.94-2.27,2.77-4.77,4.44c0,0-3.37,2.26-8.72,3.33
			C616.4,453.66,615.63,453.72,614.09,453.86z"/>
	</g>
	<g class="st10">
		<polygon class="st11" points="681.57,321.81 681.57,288.99 592.27,288.99 592.27,378.59 624.98,378.59 624.98,374.38 
			596.88,374.38 596.88,310.23 613.32,293.2 676.84,293.2 676.84,321.81 		"/>
		<path class="st11" d="M624.98,378.59c31.25,0,56.59-25.42,56.59-56.78"/>
		<path class="st11" d="M617.87,312l-6.3-6.32l-0.27-0.27l-2.8-2.81c0,0-1.34-1.25-2.52-0.07c-1.18,1.18,0.08,2.53,0.08,2.53
			l2.79,2.81l0.27,0.27l6.3,6.32c0,0,1.34,1.26,2.52,0.08C619.12,313.35,617.87,312,617.87,312z"/>
		<path class="st11" d="M632.94,323.07c2.1,2.11,2.1,5.63,0,7.74c-2.11,2.11-5.61,2.11-7.7,0c-2.1-2.11-2.1-5.62,0-7.73
			C627.33,320.95,630.83,320.95,632.94,323.07z"/>
		<path class="st11" d="M605.98,302.53c1.18-1.18,2.52,0.07,2.52,0.07l2.19,2.19c1.67-1.79,3.15-3.64,4.13-5.28
			c0.49-0.81,0.94-1.65,1.35-2.5v0c0.29-0.61,0.19-1.29-0.24-1.72c-0.87-0.7-1.74-1.39-2.62-2.09c-0.94,0.98-1.88,1.95-2.82,2.93
			c0.04,0.03,0.1,0.09,0.15,0.17c0.33,0.59-0.51,1.73-0.99,2.22c-3.89,3.91-5.27,5.22-7.47,7.5c-0.38,0.4-1.45,1.53-2.08,1.25
			c-0.1-0.04-0.16-0.11-0.2-0.16c-1.01,1.04-2.01,2.08-3.02,3.13c0.7,0.75,1.38,1.34,2.08,2.09c0.42,0.42,1.08,0.53,1.67,0.25
			c0.91-0.42,1.8-0.92,2.66-1.44c1.53-0.94,3.26-2.32,4.95-3.89l-2.18-2.19C606.06,305.05,604.8,303.71,605.98,302.53z"/>
		<path class="st11" d="M623.02,319.62c3.5-3.52,3.5-9.21,0-12.73c-3.08-3.09-7.85-3.46-11.34-1.1l6.2,6.22c0,0,1.25,1.34,0.07,2.53
			c-1.18,1.18-2.52-0.08-2.52-0.08l-6.2-6.21c-2.35,3.5-1.98,8.28,1.1,11.38C613.83,323.13,619.51,323.13,623.02,319.62z"/>
	</g>
</g>
<g id="Мебель" class="st12">
	<g class="st13">
		<rect x="649.49" y="300.53" class="st14" width="67.53" height="56.27"/>
		<path class="st14" d="M704.57,300.53L704.57,300.53c0-0.75-1.04-1.83-2.29-1.83h-38.06c-1.26,0-2.29,1.08-2.29,1.83"/>
		<polyline class="st14" points="659.47,336.79 662.2,323.29 679.96,323.29 682.69,336.79 		"/>
		<path class="st14" d="M707.04,329.34c0,0-1.27,8.67-10.69,8.67c-5.17,0-7.54-2.87-8.63-5.47c-1.1-2.64-1.08-5.65,0.25-8.18
			c1.07-2.05,3.75-4.1,7.65-4.1c4.46,0,6.21,2.38,6.88,4.42c0.62,1.87,0.38,3.95-0.66,5.63c-0.85,1.38-2.96,2.76-5.49,2.76
			c-5.07,0-4.55-4.97-4.55-4.97s0.03-3.32,3.32-3.32c2.78,0,2.52,2.52,2.52,2.52s-0.19,1.95-1.95,1.95"/>
		<path class="st14" d="M681.92,332.97l-2.56,1.55c-0.59,0.36-1.33,0.35-1.92,0l-1.75-1.08c-0.58-0.35-1.29-0.37-1.87-0.03
			l-2.01,1.14c-0.6,0.34-1.34,0.32-1.92-0.06l-1.54-1.01c-0.57-0.37-1.3-0.4-1.9-0.08l-2.11,1.16c-0.61,0.33-1.35,0.3-1.93-0.1
			l-2.16-1.48"/>
		<line class="st14" x1="662.89" y1="320.26" x2="679.28" y2="320.26"/>
	</g>
	<g class="st13">
		<rect x="407.49" y="368.05" class="st14" width="67.53" height="67.53"/>
		<rect x="407.49" y="430.24" class="st14" width="67.53" height="5.34"/>
		<line class="st14" x1="417.21" y1="403.76" x2="427.18" y2="413.73"/>
		<line class="st14" x1="417.21" y1="413.73" x2="427.18" y2="403.76"/>
		<line class="st14" x1="415.15" y1="408.75" x2="429.25" y2="408.75"/>
		<line class="st14" x1="422.2" y1="415.8" x2="422.2" y2="401.7"/>
		<line class="st14" x1="436.13" y1="403.76" x2="446.09" y2="413.73"/>
		<line class="st14" x1="436.13" y1="413.73" x2="446.09" y2="403.76"/>
		<line class="st14" x1="434.06" y1="408.75" x2="448.16" y2="408.75"/>
		<line class="st14" x1="441.12" y1="415.8" x2="441.12" y2="401.7"/>
		<line class="st14" x1="455.34" y1="403.76" x2="465.31" y2="413.73"/>
		<line class="st14" x1="455.34" y1="413.73" x2="465.31" y2="403.76"/>
		<line class="st14" x1="453.27" y1="408.75" x2="467.37" y2="408.75"/>
		<line class="st14" x1="460.32" y1="415.8" x2="460.32" y2="401.7"/>
		<path class="st14" d="M472.47,435.58L472.47,435.58c0,1.02-0.56,1.97-1.24,1.97h-20.62c-0.68,0-1.24-0.95-1.24-1.97"/>
	</g>
	<g class="st13">
		<polyline class="st15" points="622.84,406.15 621.23,407.38 620.72,408.92 618.98,409.39 617.76,410.28 617.06,410.89 		"/>
		<polyline class="st15" points="623.95,415.48 624.7,416.98 625.35,419.79 625.68,422.42 626.2,423.36 624,423.5 622.4,423.45 
			621.14,423.03 621.18,422.09 		"/>
		<polyline class="st15" points="616.52,420.33 615.75,419.23 613.73,417.13 612.33,414.34 611.43,410.86 610.69,409.2 
			611.84,407.45 612.45,405.51 613.07,403.56 614.42,403.33 616.13,403.68 617.61,403.01 620.36,401.94 623.61,401.24 
			625.06,401.43 626.54,401.11 629.15,400.52 		"/>
		<line class="st15" x1="621.28" y1="424.71" x2="621.77" y2="423.24"/>
		<polyline class="st15" points="638.1,410.81 637.19,410.69 636.17,410.96 634.93,411.72 634.56,413.21 635.36,416.05 
			635.46,418.61 		"/>
		<path class="st15" d="M615.97,421.62c-1.96-2-3.23-4.56-3.65-7.33"/>
		<polyline class="st15" points="635.12,411.6 635.01,410.33 634.3,408.64 632.99,406.58 631.21,405.03 629.34,404.14 
			627.32,403.82 624.37,404.05 622.73,404.66 622.31,405.22 626.1,411.83 628.21,415.39 631.02,419.18 632.1,418.2 633.65,416.94 
			634.35,415.11 634.83,414.19 		"/>
		<polyline class="st15" points="625.49,412.3 622.4,410.61 620.72,408.92 		"/>
		<polyline class="st15" points="622.52,406.39 620.25,406.95 619.12,407.56 617.9,408.64 616.97,410.05 617.06,410.89 		"/>
		<polyline class="st15" points="617.06,410.89 622.78,414.64 623.89,413.55 625.21,413.37 625.49,412.3 625.19,410.24 		"/>
		<polyline class="st15" points="626.2,423.36 627.51,422.79 626.76,419.51 625.73,416.42 624.79,415.53 623.95,415.48 
			623.72,416.05 622.31,419.89 621.18,422.09 620.2,423.26 619.64,424.81 		"/>
		<polyline class="st15" points="623.18,417.49 622.45,416.84 617.76,419.37 615.7,420.97 616.22,422.23 617.2,423.26 
			618.33,424.39 619.64,424.81 621.28,424.71 624,424.89 626.86,426.3 629.84,425.88 631.15,424.72 633.34,423.88 634.02,421.35 
			636.07,417.45 637.18,413.46 638.1,410.81 637.58,409.66 636.03,406.66 632.89,404.55 631.1,401.6 630.07,400.76 		"/>
		<polyline class="st15" points="622.08,414.18 615.89,412.91 615.14,413 614.62,414.5 614.58,416.28 615,418.2 615.75,419.23 
			622.26,415.53 622.52,414.47 		"/>
		<polyline class="st15" points="621.51,415.02 615.33,414.27 615.23,415.06 		"/>
		<polyline class="st15" points="633.68,414.25 632.83,415.93 631.99,417.06 630.37,418.3 		"/>
		<line class="st15" x1="627.4" y1="411.81" x2="629.13" y2="412.56"/>
		<line class="st15" x1="632.69" y1="413.78" x2="630.96" y2="413.17"/>
		<polyline class="st15" points="631.66,406.84 630.63,406.05 629.69,405.53 		"/>
		<polyline class="st15" points="612.99,410.46 613.55,407.93 614.16,406.05 		"/>
		<polyline class="st15" points="632.52,392 631.6,392.8 631.49,393.69 631.09,394.29 630.87,395.4 630.46,395.81 630.38,396.59 
			629.87,397.24 629.76,398.14 629.36,398.64 629.13,399.97 629.21,401.81 631,399.61 634.13,392.01 		"/>
		<polygon class="st15" points="636.35,387.43 638.63,382.35 638.74,381.54 638.63,380.57 638.38,380.1 637.95,379.73 
			637.16,380.02 636.43,381.16 635.27,383.49 633.56,387.05 632.44,390.22 632.42,391.74 632.79,392.68 633.53,392.55 
			634.32,391.85 		"/>
		<polyline class="st15" points="633.5,390.22 633.72,390.41 633.66,390.79 		"/>
		<polyline class="st15" points="634.94,387.26 634.67,387.34 634.64,387.86 		"/>
		<polyline class="st15" points="637.33,381.62 637.08,382.08 637.3,382.41 		"/>
		<polyline class="st15" points="632.12,404.48 633.17,402.41 634.21,400.45 635.11,399.39 635.53,399.64 		"/>
		<polyline class="st15" points="632.79,404.95 633.96,402.77 635.38,400.45 635.77,400.77 		"/>
		<polyline class="st15" points="633.51,405.31 635.39,402.28 637.15,399.96 637.84,398.94 638.09,398 637.88,396.98 637.94,396.33 
			640.78,392.28 645.45,385.84 647.13,383.52 647.1,382.64 646.47,381.98 645.19,382.45 642.72,387.21 639.87,391.98 637.24,396 
			636.78,396.24 635.81,396.35 635.21,396.59 634.45,397.6 633.07,400.17 632.12,402.13 631.36,403.89 		"/>
		<path class="st15" d="M613.94,403.41l0.08-0.9l-1.47-1.52l-1.44-0.9l-1-1.25l-0.03-0.92l0.48-1.25l1.12-0.9l0.98-0.19l1.06,0.54
			l1.06,1.11l1.36,1.9l1.27,1.15l0.87,0.03l2.35-0.38c1.54-0.6,3.18-0.91,4.84-0.91c1.27,0,2.53,0.18,3.74,0.54"/>
		<path class="st15" d="M625.45,425.61c-1.61,0-3.2-0.29-4.7-0.86"/>
		<path class="st15" d="M630.62,400.08c4.92,2.07,8.12,6.9,8.12,12.24c0,4.09-1.89,7.95-5.11,10.47"/>
	</g>
	<g class="st13">
		<polyline class="st15" points="796.29,427.66 795.54,427.67 795.21,427.08 795.88,426.71 796.29,427.66 795.72,428.78 		"/>
		<polyline class="st15" points="793.39,427.54 794.35,428.95 796.19,430.46 		"/>
		<polyline class="st15" points="791.07,429.79 791.24,430.83 792.14,430.63 792.08,429.85 791.07,429.79 789.21,426.63 
			788.28,423.7 		"/>
		<polygon class="st15" points="791.4,424.68 791.41,423.66 790.92,423.42 790.57,423.97 		"/>
		<polyline class="st15" points="794.93,424.46 792.66,424.3 789.83,425.14 		"/>
		<line class="st15" x1="790.56" y1="394.38" x2="790.18" y2="392.69"/>
		<polyline class="st15" points="790.32,397.36 790.65,398.21 791.64,397.5 790.32,397.36 787,397.94 		"/>
		<polyline class="st15" points="784.26,404.6 783.83,400.32 782.91,397.75 782.22,396.71 782.29,395.47 781.53,395.13 
			781.15,396.19 782.22,396.71 		"/>
		<polyline class="st15" points="782.91,397.75 783.75,396.17 786.49,393.75 		"/>
		<polyline class="st15" points="785,409.2 783.16,410.46 781.81,412.88 		"/>
		<line class="st15" x1="765.47" y1="416.03" x2="764.22" y2="413.58"/>
		<line class="st15" x1="767.71" y1="417.32" x2="765.34" y2="418.48"/>
		<polyline class="st15" points="772.28,414.87 772.73,414.03 772.23,413.39 771.29,414 772.28,414.87 773.51,416.37 		"/>
		<line class="st15" x1="777.53" y1="417.21" x2="777.13" y2="415.32"/>
		<polyline class="st15" points="776.06,416.36 775.22,414.49 775.29,413.09 		"/>
		<polyline class="st15" points="774.55,424.06 774.61,423.18 773.83,422.94 773.56,423.47 774.55,424.06 776.76,423.96 
			780.44,420.88 		"/>
		<polyline class="st15" points="765.53,457.71 767.09,458.22 765.98,459.22 765.33,458.65 765.53,457.71 766.01,453.84 		"/>
		<polyline class="st15" points="764.49,451.87 764.58,450.52 763.38,449.89 763.13,450.7 763.78,451.94 768.32,451.48 		"/>
		<polyline class="st15" points="769.97,457.86 769.46,457.23 768.93,454.35 768.32,451.48 		"/>
		<polyline class="st15" points="770.04,446.54 770.3,445.72 769.83,445.39 769.3,446.03 769.63,446.55 770.57,446.52 		"/>
		<polyline class="st15" points="778.17,428.5 772.89,431.41 770.26,431.21 		"/>
		<polyline class="st15" points="796.87,394.22 792.97,394.95 790.56,394.38 787,397.94 784.26,404.6 782.24,409.36 781.81,412.88 
			782.85,417.18 		"/>
		<polyline class="st15" points="785.8,396.61 785.19,399.38 785.67,401.2 		"/>
		<polyline class="st15" points="783.08,421.14 785.77,426.1 787.01,427.77 		"/>
		<polyline class="st15" points="787.07,433.23 786.62,430.25 785.77,426.1 		"/>
		<polyline class="st15" points="756.07,452.02 757.02,451.3 759.18,451.21 761.06,452.36 764.16,454.33 766.01,453.84 
			768.32,451.48 770.57,446.52 773.41,442.79 775.89,436.07 778.17,428.5 781.06,421.65 		"/>
		<polyline class="st15" points="772.97,443.37 772.61,446.18 773.17,448.63 773.09,450.8 772.19,451.96 		"/>
		<line class="st15" x1="778.6" y1="439.81" x2="778.57" y2="442.42"/>
		<polyline class="st15" points="786.86,419.59 788.43,419.66 789.57,419 790.63,417.74 791.66,417.7 791.73,419.69 790.86,421.79 
			789.03,422.45 787.36,421.53 786.47,420.6 		"/>
		<polygon class="st15" points="787.92,412.61 786.09,411.88 784.93,412.28 785.31,413.28 787.01,413.68 788.13,414.32 
			788.97,414.13 		"/>
		<polyline class="st15" points="769.84,448.13 767.43,448.46 766.06,447.16 765.41,446.29 765.86,446.04 766.42,446.43 
			766.06,447.16 		"/>
		<polyline class="st15" points="780.63,440.08 781.58,440.76 782.01,439.55 780.63,440.08 778.6,439.81 776.4,437.39 776.27,434.8 
					"/>
		<polyline class="st15" points="772.89,431.41 772.29,434.34 771.51,435.27 772.17,435.92 772.63,435.57 772.29,434.34 		"/>
		<polygon class="st15" points="771.3,433.56 772.56,433.01 771.45,432.97 		"/>
		<polyline class="st15" points="783.49,406.43 786.16,405.24 788.74,405.01 789.58,404.26 790.48,405.09 789.43,405.94 
			788.74,405.01 		"/>
		<polygon class="st15" points="788.85,398.86 787.97,397.77 787.54,398.8 788.25,399.29 		"/>
		<polyline class="st15" points="798.39,428.63 798.98,427.75 798.27,427.12 797.75,427.65 798.39,428.63 795.72,428.78 
			791.08,426.32 786.97,422.48 783.4,419.54 		"/>
		<polyline class="st15" points="774.77,426.88 776.42,425.68 776.76,423.96 		"/>
		<polyline class="st15" points="760.16,410.87 761.25,414.12 762.97,415.38 765.47,416.03 767.71,417.32 770.37,417.08 
			773.51,416.37 776.06,416.36 781.49,419.51 		"/>
		<path class="st15" d="M768.82,421.06c0.86,7,7.22,11.98,14.22,11.12c7-0.86,11.98-7.22,11.12-14.22
			c-0.86-7-7.22-11.98-14.22-11.12C772.94,407.7,767.97,414.06,768.82,421.06"/>
		<path class="st15" d="M778.11,419.93c0.23,1.87,1.93,3.19,3.79,2.97c1.87-0.23,3.19-1.93,2.97-3.79
			c-0.23-1.87-1.93-3.19-3.79-2.97C779.21,416.36,777.88,418.06,778.11,419.93"/>
		<path class="st15" d="M786.11,409.75c3.47,1.4,5.99,4.47,6.7,8.15"/>
		<path class="st15" d="M777.46,420.01c0.27,2.23,2.3,3.81,4.53,3.54c2.23-0.27,3.81-2.3,3.54-4.53c-0.27-2.23-2.3-3.81-4.53-3.54
			C778.77,415.75,777.18,417.78,777.46,420.01"/>
	</g>
	<g class="st13">
		<rect x="381.27" y="676.56" class="st14" width="59.04" height="106.28"/>
	</g>
	<g class="st13">
		<path class="st14" d="M306.18,613.58h47.4c2.41,0,4.36,2.37,4.36,5.29v225.6c0,2.92-1.95,5.29-4.36,5.29h-47.4"/>
		<path class="st14" d="M224.37,820.54v17.4c0,6.52-5.29,11.81-11.81,11.81h-14.03c-3.26,0-5.9-2.65-5.9-5.91V619.49
			c0-3.26,2.64-5.91,5.9-5.91h14.03c6.52,0,11.81,5.29,11.81,11.81v17.44"/>
		<path class="st14" d="M224.37,642.83v-23.34v0c0-3.26,2.65-5.9,5.91-5.9h75.13c2.93,0,5.3,2.37,5.3,5.29v225.6
			c0,2.92-2.37,5.29-5.3,5.29h-75.13c-3.26,0-5.91-2.64-5.91-5.9v0v-23.31"/>
		<line class="st14" x1="224.37" y1="668.78" x2="224.37" y2="794.65"/>
		<path class="st14" d="M307.4,839.75c0,0-2.44-47.66-2.44-131.7c0-84.04,2.44-84.46,2.44-84.46"/>
		<path class="st14" d="M195.94,623.59c0,0,2.44,0.42,2.44,84.46c0,84.04-2.44,131.7-2.44,131.7"/>
		<path class="st14" d="M224.49,668.78l10.39,7.65c0,0,17.65-13.66,22.85-41.61l-11.71-1.43"/>
		<path class="st14" d="M231.34,668.23c-14.75,2.52-22.85-4.41-22.85-4.41c20.15-19.12,22.85-40.77,22.85-40.77
			s11.21,3.79,17.86,14.71"/>
		<path class="st14" d="M238.2,638.38c0,0,1.66,16.19-15.78,25.85"/>
		<path class="st14" d="M224.49,794.65l10.39-7.64c0,0,17.65,13.66,22.85,41.61l-11.71,1.43"/>
		<path class="st14" d="M231.34,795.2c-14.75-2.52-22.85,4.41-22.85,4.41c20.15,19.12,22.85,40.77,22.85,40.77
			s11.21-3.79,17.86-14.72"/>
		<path class="st14" d="M238.2,825.05c0,0,1.66-16.19-15.78-25.85"/>
	</g>
	<g class="st13">
		<polyline class="st15" points="271.1,760.47 273,760.06 275.09,760.26 276.67,761.07 		"/>
		<polyline class="st15" points="268.43,751.93 268.67,750.43 269.25,749.03 269.93,748.06 270.75,747.92 271.48,748.93 
			271.91,750.14 272.2,751.79 272.68,753.24 273.44,754.47 273.6,755.57 274.16,756.99 273.88,758.48 273.67,760.11 272.97,760.72 
					"/>
		<polyline class="st15" points="263.93,751.35 265.53,751.21 266.2,750.92 267.32,750.97 267.99,750.58 268.62,750.72 		"/>
		<polyline class="st15" points="262.53,759.77 262.24,758.51 261.51,757.93 		"/>
		<polyline class="st15" points="257.4,776.49 257.93,775.91 259.27,775.49 259.58,775.1 260.81,774.73 261.9,773.95 262.88,772.66 
			264,771.46 264.03,770.68 263.38,770.93 262.26,771.74 260.81,772.58 259.3,773.48 258.29,774.57 257.56,775.99 257.28,776.86 
			256.28,777.45 256.11,778.46 255.69,778.71 255.3,779.13 254.37,779.35 253.59,779.18 252.98,778.6 252.86,777.73 253.14,777.28 
			254.26,775.62 254.32,775.1 255.13,774.23 256.12,772.03 258.21,768.78 259.95,766.52 260.35,765.23 260.5,762.81 260.45,760.97 
			260.89,759.48 261.51,757.93 261.56,757.2 261.03,756.38 261.27,755.7 261.08,754.06 260.55,752.42 260.5,750.82 260.89,749.76 
			261.76,749.76 262.82,750.48 263.93,751.35 264.64,752.19 264.88,752.77 		"/>
		<polyline class="st15" points="256.79,777.15 256.86,777.95 257.54,778.57 258.4,778.82 259.55,778.96 260.42,778.57 
			261.4,778.12 262.32,778.04 263.52,777.34 264.36,777.11 265.76,776.89 267.72,776.27 268.92,774.45 270.43,773.17 271.95,772.36 
			274.21,772.08 277.65,771.89 280.66,772.29 		"/>
		<polyline class="st15" points="267.1,779.21 267.55,778.2 267.72,776.27 		"/>
		<polyline class="st15" points="261.15,778.23 261.68,779.01 262.49,779.77 262.81,780.36 		"/>
		<line class="st15" x1="259.01" y1="775.57" x2="258.18" y2="774.79"/>
		<polyline class="st15" points="272.57,752.89 274,753.42 274.37,754.19 275.49,754.61 276.49,755.66 278.81,757.58 281.47,759.22 
			283.93,761.3 285.87,762.99 287,764.83 287.84,766.4 288.06,767.18 288.79,769.08 288.62,769.67 288.9,772.89 288.68,776.02 
			287.94,778.57 287.17,780.42 285.96,781.9 285.89,783.61 285.09,785.12 284.32,786.26 283.41,786.77 282.74,787.54 281.76,787.91 
			280.76,788.51 280.25,788.41 279.55,789.08 278.27,789.52 277.1,789.55 274.48,789.59 272.26,789.25 270.42,788.78 269.14,788.18 
			268,788.08 267.39,787.47 266.29,787.4 266.08,786.9 264.64,786.43 264.54,785.79 263.1,784.68 262.26,783.24 262.32,781.39 
			262.85,780.27 263.61,779.38 264.89,778.82 266.29,778.79 267.1,779.21 268.12,780.09 267.96,780.89 266.92,781.22 266.35,781.86 
			266.79,782.75 267.92,783.31 268.65,784 270.18,784.36 272.76,785.08 275.21,785.73 277.55,785.77 279.81,785.33 281.82,783.87 		
			"/>
		<polyline class="st15" points="269.12,761.3 269.19,760.88 269.68,760.42 269.29,760.16 268.54,760.44 267.73,760.44 
			267.75,760.84 268.49,761.07 		"/>
		<polygon class="st15" points="264.46,757.31 264.91,756.79 265.61,756.76 266.31,757.07 266.68,757.9 266.21,758.46 
			265.51,758.64 264.79,758.48 264.39,757.9 		"/>
		<line class="st15" x1="265.42" y1="757.66" x2="265.35" y2="756.96"/>
		<polygon class="st15" points="269.87,756.13 269.33,756.78 269.31,757.62 269.82,757.87 270.48,757.9 271.13,757.41 271.2,756.76 
			271.07,756.18 270.62,755.94 		"/>
		<line class="st15" x1="270.24" y1="756.99" x2="270.03" y2="756.31"/>
		<polyline class="st15" points="270.86,752.53 270.82,752 270.06,752.09 269.94,751.56 269.05,752.65 		"/>
		<polyline class="st15" points="262.72,753.78 263.17,753.78 263.21,753.41 263.81,753.37 263.81,752.61 263.41,751.68 		"/>
		<line class="st15" x1="268.2" y1="755.47" x2="268.28" y2="754.06"/>
		<line class="st15" x1="266.69" y1="755.16" x2="265.75" y2="754.3"/>
		<line class="st15" x1="267.24" y1="754.78" x2="267.24" y2="753.78"/>
		<line class="st15" x1="266.43" y1="762" x2="264.3" y2="762.76"/>
		<polyline class="st15" points="276.38,762.8 274.21,761.43 271.95,761.23 270.5,761.51 		"/>
		<line class="st15" x1="271.67" y1="759.58" x2="274.57" y2="759.06"/>
		<polyline class="st15" points="271.67,771.51 272.23,769.81 273.16,768.69 275.05,767.27 		"/>
		<polyline class="st15" points="272.76,771.3 274.77,770.14 277.27,769.37 		"/>
		<polyline class="st15" points="262.29,773.44 264.26,772.67 265.75,771.42 266.55,769.77 		"/>
		<polyline class="st15" points="265.14,767.03 264.74,767.88 265.26,768.6 		"/>
		<polyline class="st15" points="262.29,782.45 261.39,782.42 260.91,782.83 260.91,783.75 261.19,784.12 262,784.88 263.17,785.37 
			264.15,785.49 		"/>
		<polyline class="st15" points="277.98,760.67 276.94,763.63 275.66,765.26 		"/>
		<polyline class="st15" points="268.23,761.77 268.95,761.91 269.42,761.68 		"/>
		<polyline class="st15" points="261.89,754.21 261.33,752.68 261.19,751.29 		"/>
		<line class="st15" x1="269.29" y1="750.93" x2="270.26" y2="750.28"/>
		<line class="st15" x1="269.9" y1="749.64" x2="270.46" y2="749.12"/>
		<polyline class="st15" points="263.89,760.48 265.29,760.09 266.4,760.19 		"/>
		<polyline class="st15" points="261.76,762.51 262.64,761.96 264.74,761.39 267,761.27 		"/>
		<polyline class="st15" points="267.12,763.72 268.59,764 270.12,763.86 271.3,763.16 		"/>
		<polyline class="st15" points="268.86,765.46 266.43,765.04 263.85,763.3 		"/>
		<line class="st15" x1="267.89" y1="757.01" x2="267.7" y2="756.14"/>
		<line class="st15" x1="266.44" y1="756.52" x2="266.05" y2="755.51"/>
	</g>
	<g class="st13">
		<path class="st14" d="M225.96,907.59c-9.1,0-16.47-7.38-16.47-16.47c0-9.09,7.37-16.47,16.47-16.47c9.1,0,16.47,7.37,16.47,16.47
			C242.43,900.21,235.06,907.59,225.96,907.59z"/>
		<path class="st14" d="M225.96,897.53c-3.54,0-6.41-2.88-6.41-6.41c0-3.54,2.87-6.41,6.41-6.41c3.54,0,6.41,2.88,6.41,6.41
			C232.37,894.65,229.51,897.53,225.96,897.53z"/>
		<path class="st14" d="M228.01,891.07h4.36 M225.3,889.16l-1.97-3.89 M225.23,893.01l-1.83,3.96 M225.98,893.05
			c-1.1,0-1.99-0.88-1.99-1.98c0-1.09,0.89-1.98,1.99-1.98c1.09,0,1.98,0.88,1.98,1.98C227.96,892.16,227.08,893.05,225.98,893.05z"
			/>
	</g>
	<g class="st13">
		<polyline class="st15" points="411.81,692.29 387.66,699.31 387.02,700.02 387.02,701.38 398.09,736.57 398.89,737.13 
			400.16,736.97 423.14,729.76 423.48,729.23 		"/>
		<polyline class="st15" points="402.44,722.06 396.52,723.95 396.07,723.82 392.59,712.85 392.9,712.46 400.04,710.16 
			400.62,710.51 403.88,720.98 		"/>
		<polyline class="st15" points="410.86,697.58 399.85,700.85 402.38,709.04 404.26,708.4 		"/>
		<polyline class="st15" points="407.05,718.45 405.45,718.96 402.6,709.65 		"/>
		<polyline class="st15" points="408.36,725.17 407.62,725.52 407.02,723.85 		"/>
		<polyline class="st15" points="408.3,727.47 410.06,726.86 409.61,725.36 409,725.65 		"/>
		<polyline class="st15" points="409.48,727.89 409.77,729.07 408.75,729.49 408.33,728.17 		"/>
		<polyline class="st15" points="411.53,699.54 419.91,725.9 411.11,728.69 		"/>
		<line class="st15" x1="407.08" y1="717.1" x2="404.78" y2="709.81"/>
		<line class="st15" x1="409.64" y1="724.01" x2="408.01" y2="719.15"/>
		<polyline class="st15" points="414.31,726.89 413.48,724.56 412.07,725.04 		"/>
		<polyline class="st15" points="403.98,700.46 405.1,703.95 403.53,704.49 		"/>
		<polyline class="st15" points="405.86,699.73 406.67,702.16 405.38,702.61 		"/>
		<polyline class="st15" points="410.47,701.55 409.22,702.03 408.65,700.56 		"/>
		<line class="st15" x1="409.51" y1="702.86" x2="409.9" y2="704.05"/>
		<line class="st15" x1="408.74" y1="726.01" x2="409.15" y2="727.18"/>
		<polyline class="st15" points="407.91,720.94 406.38,721.47 405.8,719.71 		"/>
		<polyline class="st15" points="416.07,724.28 417.59,723.78 418.53,726.34 		"/>
		<line class="st15" x1="412.42" y1="712.39" x2="412.92" y2="713.96"/>
		<line class="st15" x1="415.03" y1="715.48" x2="413.59" y2="715.96"/>
		<polyline class="st15" points="414.28,717.96 415.64,717.38 415.32,716.23 		"/>
		<polyline class="st15" points="414.49,718.95 414.89,719.99 416.26,719.56 416.04,718.6 		"/>
		<polyline class="st15" points="417.85,715.76 411.96,696.92 413.14,696.49 		"/>
		<polygon class="st15" points="411.81,692.29 419.27,687.62 419.76,687.78 432.59,729.64 431.82,730.08 423.48,729.23 		"/>
		<polyline class="st15" points="431.04,728.15 419.04,689.33 413.85,692.81 		"/>
		<line class="st15" x1="425.62" y1="708.63" x2="425.9" y2="709.62"/>
		<line class="st15" x1="417.18" y1="721.68" x2="415.66" y2="722.19"/>
		<line class="st15" x1="412.95" y1="722.74" x2="412.13" y2="720.29"/>
	</g>
	<g class="st13">
		<polyline class="st15" points="409.32,760.2 411.83,760.19 411.81,761.61 409.35,761.68 		"/>
		<polygon class="st15" points="399.98,760.89 400.01,759.99 393.58,759.3 392.98,759.82 393.4,760.53 		"/>
		<line class="st15" x1="400.99" y1="758.53" x2="401.52" y2="758.07"/>
		<polyline class="st15" points="405.06,763.72 406.63,762.46 406.91,761.12 406.12,759.51 		"/>
		<polyline class="st15" points="398.13,766.44 399.95,767.98 401.28,768.54 		"/>
		<polyline class="st15" points="402.87,757.42 403.8,757.24 404.87,757.42 		"/>
		<path class="st15" d="M398.82,760.82c0,0.08-0.01,0.16-0.01,0.24c0,2.66,2.16,4.82,4.82,4.82s4.82-2.16,4.82-4.82
			c0-2.66-2.16-4.82-4.82-4.82c-2.2,0-4.13,1.5-4.67,3.63"/>
		<path class="st15" d="M397.88,760.78c0,0.09-0.01,0.19-0.01,0.28c0,3.18,2.58,5.75,5.75,5.75s5.75-2.58,5.75-5.75
			c0-3.18-2.58-5.75-5.75-5.75c-2.68,0-5.01,1.85-5.61,4.47"/>
		<path class="st15" d="M394.56,760.6c-0.01,0.15-0.01,0.31-0.01,0.47c0,5.02,4.07,9.08,9.08,9.08c5.02,0,9.08-4.07,9.08-9.08
			s-4.07-9.08-9.08-9.08c-4.38,0-8.14,3.13-8.93,7.44"/>
	</g>
	<g class="st13">
		
			<rect x="479.73" y="169.48" transform="matrix(-1 1.071519e-10 -1.071519e-10 -1 1028.0442 397.1417)" class="st14" width="68.58" height="58.19"/>
		
			<rect x="479.73" y="169.48" transform="matrix(-1 1.074570e-10 -1.074570e-10 -1 1028.0442 392.2924)" class="st14" width="68.58" height="53.34"/>
		<line class="st14" x1="429.01" y1="213.09" x2="431.01" y2="177.7"/>
		<line class="st14" x1="433.36" y1="213.09" x2="435.35" y2="177.7"/>
		<line class="st14" x1="456.75" y1="213.09" x2="458.74" y2="177.7"/>
		<line class="st14" x1="447.58" y1="213.09" x2="442.06" y2="177.7"/>
		<line class="st14" x1="454.21" y1="213.09" x2="448.69" y2="177.7"/>
		<line class="st14" x1="426.65" y1="213.09" x2="421.13" y2="177.7"/>
		<line class="st14" x1="469.13" y1="213.09" x2="463.61" y2="177.7"/>
		<line class="st14" x1="475.76" y1="213.09" x2="470.24" y2="177.7"/>
		<line class="st14" x1="417.15" y1="195.39" x2="479.73" y2="195.39"/>
		
			<rect x="417.15" y="169.48" transform="matrix(-1 9.620292e-11 -9.620292e-11 -1 896.8815 397.1417)" class="st14" width="62.58" height="58.19"/>
		
			<rect x="417.15" y="169.48" transform="matrix(-1 9.604305e-11 -9.604305e-11 -1 896.8815 392.2924)" class="st14" width="62.58" height="53.34"/>
	</g>
	<g class="st13">
		
			<rect x="347.64" y="189.28" transform="matrix(-1.241700e-10 -1 1 -1.241700e-10 158.8328 595.5908)" class="st14" width="59.15" height="58.19"/>
		
			<rect x="350.06" y="191.71" transform="matrix(-1.241700e-10 -1 1 -1.241700e-10 161.2574 598.0154)" class="st14" width="59.15" height="53.34"/>
		<line class="st14" x1="362.69" y1="145.06" x2="398.09" y2="146.78"/>
		<line class="st14" x1="362.69" y1="148.81" x2="398.09" y2="150.52"/>
		<line class="st14" x1="362.69" y1="168.98" x2="398.09" y2="170.69"/>
		<line class="st14" x1="362.69" y1="161.07" x2="398.09" y2="156.31"/>
		<line class="st14" x1="362.69" y1="166.79" x2="398.09" y2="162.03"/>
		<line class="st14" x1="362.69" y1="143.02" x2="398.09" y2="138.26"/>
		<line class="st14" x1="362.69" y1="179.66" x2="398.09" y2="174.9"/>
		<line class="st14" x1="362.69" y1="185.38" x2="398.09" y2="180.62"/>
		<line class="st14" x1="380.39" y1="134.83" x2="380.39" y2="188.8"/>
		
			<rect x="350.22" y="132.72" transform="matrix(-1.114530e-10 -1 1 -1.114530e-10 215.3979 539.0256)" class="st14" width="53.98" height="58.19"/>
		
			<rect x="352.65" y="135.14" transform="matrix(-1.113855e-10 -1 1 -1.113855e-10 217.8226 541.4503)" class="st14" width="53.98" height="53.34"/>
	</g>
	<g class="st13">
		<g class="st10">
			<path class="st15" d="M701.79,611.62c6.6,1.94,7.44,7.79,8.71,14.54l2.76,14.78c0.1,2.9-1.35,5.61-3.77,7
				c-4.18,2.39-11.07,5.66-17.45,5.66c-6.38,0-13.26-3.27-17.45-5.66c-2.42-1.39-3.87-4.09-3.77-7l2.77-14.78
				c1.27-6.75,2.11-12.6,8.71-14.54C683.31,611.33,700.78,611.33,701.79,611.62z"/>
			<path class="st15" d="M670.1,650.76c0,0,10.37,6.2,21.95,6.2c11.58,0,21.95-6.2,21.95-6.2v3.54c0,0-10.37,6.2-21.95,6.2
				c-11.58,0-21.95-6.2-21.95-6.2V650.76z"/>
			<path class="st15" d="M677.18,659.72c-0.1,0.47,0.2,0.95,0.67,1.05c0.48,0.11,0.96-0.19,1.06-0.67l0.41-1.8
				c-0.59-0.19-1.15-0.38-1.69-0.58L677.18,659.72z"/>
			<path class="st15" d="M680.95,651.06l-1.66-0.72l-0.92,4.1c0.54,0.19,1.11,0.37,1.69,0.55L680.95,651.06z"/>
			<path class="st15" d="M704.8,650.35l-1.66,0.72l0.9,3.94c0.58-0.18,1.15-0.37,1.69-0.56L704.8,650.35z"/>
			<path class="st15" d="M705.18,660.1c0.11,0.47,0.58,0.77,1.06,0.67c0.48-0.1,0.78-0.58,0.67-1.05l-0.45-1.99
				c-0.54,0.2-1.11,0.39-1.69,0.58L705.18,660.1z"/>
		</g>
		<g class="st10">
			<path class="st15" d="M767.08,611.62c6.6,1.94,7.44,7.79,8.71,14.54l2.76,14.78c0.1,2.9-1.35,5.61-3.77,7
				c-4.18,2.39-11.07,5.66-17.45,5.66c-6.38,0-13.26-3.27-17.45-5.66c-2.42-1.39-3.87-4.09-3.77-7l2.77-14.78
				c1.27-6.75,2.11-12.6,8.71-14.54C748.6,611.33,766.07,611.33,767.08,611.62z"/>
			<path class="st15" d="M735.38,650.76c0,0,10.37,6.2,21.95,6.2c11.58,0,21.95-6.2,21.95-6.2v3.54c0,0-10.37,6.2-21.95,6.2
				c-11.58,0-21.95-6.2-21.95-6.2V650.76z"/>
			<path class="st15" d="M742.46,659.72c-0.1,0.47,0.2,0.95,0.67,1.05c0.48,0.11,0.96-0.19,1.06-0.67l0.41-1.8
				c-0.59-0.19-1.15-0.38-1.69-0.58L742.46,659.72z"/>
			<path class="st15" d="M746.23,651.06l-1.66-0.72l-0.92,4.1c0.54,0.19,1.11,0.37,1.69,0.55L746.23,651.06z"/>
			<path class="st15" d="M770.08,650.35l-1.66,0.72l0.9,3.94c0.58-0.18,1.15-0.37,1.69-0.56L770.08,650.35z"/>
			<path class="st15" d="M770.47,660.1c0.11,0.47,0.58,0.77,1.06,0.67c0.48-0.1,0.78-0.58,0.67-1.05l-0.45-1.99
				c-0.54,0.2-1.11,0.39-1.69,0.58L770.47,660.1z"/>
		</g>
	</g>
	<g class="st13">
		<line class="st15" x1="785.63" y1="570.76" x2="784.43" y2="570.96"/>
		<polyline class="st15" points="771.53,559.41 770.86,560.22 770.62,560.76 770.26,560.79 768.42,562.43 766.94,563.27 
			766.74,563.63 765.46,564.79 764.3,565.91 762.7,566.79 761.69,569.83 761.26,571.24 761.26,572.5 		"/>
		<polyline class="st15" points="759.46,566.15 759.69,567.97 759.93,569.24 760.03,570.79 760.47,571.95 760.42,572.77 		"/>
		<polyline class="st15" points="754.89,565.16 755.64,567.21 756.48,568.16 757.48,569.43 758.53,570.27 758.7,571.26 
			759.39,572.01 759.43,572.76 		"/>
		<polyline class="st15" points="761.45,573.57 761.72,575.53 762.39,578.86 762.55,579.18 762.35,579.5 762.33,580.37 
			762.43,580.75 762.22,581.16 761.86,581.32 760.96,583.47 760.58,584.57 760.58,585.34 760.5,586.23 760.08,587.17 759.86,586.9 
			759.67,586.92 759.61,586.4 759.55,585.48 759.89,584.51 759.86,584.09 760.33,583.29 761.36,581.43 761.66,580.07 761.64,578.71 
			761.19,576.35 760.87,573.68 		"/>
		<polyline class="st15" points="760.11,573.69 759.5,574.41 757.82,575.31 755.73,576.36 754.62,577.01 752.23,577.4 
			750.33,577.06 752.23,577 753.96,576.36 756.53,574.7 758.36,573.22 		"/>
		<polyline class="st15" points="759.5,574.41 759.01,575.69 758.05,577.65 757.08,580.15 756.62,582.42 756.45,585.45 
			756.62,587.78 757.89,588.18 759.85,588.11 762.64,587.44 765.47,586.81 767.11,586.14 768.57,586.01 769.34,585.51 769.7,584.98 
			770.47,584.88 770.14,581.45 769.44,579.92 768.67,578.82 768.14,576.89 767.07,574.79 765.7,573.18 		"/>
		<polyline class="st15" points="763.69,572.16 765.22,570.6 766.85,569.64 769.08,568.64 		"/>
		<line class="st15" x1="765.37" y1="571.81" x2="766.11" y2="570.08"/>
		<polyline class="st15" points="758.6,572.55 757.96,571.95 756.9,571.17 756.16,569.62 754.7,567.77 754.17,565.76 753.59,563.77 
			753.22,561.36 753.24,559.79 754.63,559.51 758.51,558.7 760.25,558.49 762.19,558.53 765.41,559.09 767.68,559.09 767.82,560.09 
			767.55,562.1 767.61,564.75 767.3,566.53 767.39,567.51 766.54,568.89 		"/>
		<polyline class="st15" points="766.94,563.27 766.29,563.22 765.36,564.33 765.12,564.28 764.49,565.17 763.3,565.65 
			764.04,563.55 763.85,562.99 763.32,562.74 763.31,563.76 762.59,565.76 760.83,570.62 759.93,569.24 		"/>
		<line class="st15" x1="763.85" y1="562.99" x2="763.83" y2="561.08"/>
		<path class="st15" d="M753.86,585.04c-4.53-3.05-7.24-8.16-7.24-13.62c0-9.07,7.36-16.43,16.43-16.43s16.43,7.36,16.43,16.43
			c0,7.34-4.86,13.78-11.92,15.8"/>
		<path class="st15" d="M767.72,560.81c4.21,1.85,6.92,6.01,6.92,10.61c0,3.72-1.78,7.21-4.79,9.39"/>
		<path class="st15" d="M767.33,566.33c1.5,1.26,2.37,3.13,2.37,5.1c0,1.77-0.7,3.46-1.95,4.71"/>
		<path class="st15" d="M757.04,574.29c-0.43-0.89-0.65-1.87-0.65-2.86c0-0.35,0.03-0.7,0.08-1.04"/>
		<path class="st15" d="M755.42,573.9c-0.26-0.8-0.39-1.64-0.39-2.48c0-0.28,0.01-0.56,0.04-0.84"/>
		<path class="st15" d="M768.46,571.71c-0.06,1.2-0.52,2.34-1.3,3.25"/>
		<path class="st15" d="M773.64,570.14c0.05,0.43,0.08,0.85,0.08,1.28c0,1.67-0.39,3.32-1.15,4.81"/>
		<path class="st15" d="M754.77,579.55c-2.13-2.17-3.32-5.08-3.32-8.12c0-2.52,0.82-4.97,2.33-6.98"/>
		<polygon class="st15" points="758.6,572.55 758.33,572.85 758.36,573.22 758.73,573.52 759.56,573.7 760.87,573.68 762.1,573.44 
			764.02,573.44 765.26,573.37 765.7,573.18 765.65,572.55 765.37,571.81 764.97,571.97 764.36,572.15 762.82,572.18 761.74,572.29 
			761.26,572.5 760.42,572.77 759.17,572.76 		"/>
		<polyline class="st15" points="770.25,568.64 769.08,568.64 767.42,568.57 766.42,568.94 764.25,569.9 762.95,571.07 
			762.07,572.26 		"/>
		<polyline class="st15" points="770.16,560.88 770.25,560.1 770.92,558.4 		"/>
		<line class="st15" x1="758.87" y1="566.51" x2="759.6" y2="567.23"/>
		<polyline class="st15" points="759.75,581.92 759.55,580.45 759.88,578.55 760.58,576.82 760.99,574.71 		"/>
		<polyline class="st15" points="756.55,586.82 754.69,586.44 753.78,585.53 754.02,584.04 754.45,582.32 754.45,580.26 
			755.08,578.87 756.42,577.14 757.54,575.45 		"/>
		<polyline class="st15" points="760.35,587.99 762.11,588.27 764.84,588.27 767.23,587.77 767.85,586.73 767.84,586.08 		"/>
		<polyline class="st15" points="740.58,560.94 740.57,566.93 740.84,567.77 741.48,568.51 741.32,583.32 741.63,583.67 
			742.07,583.67 742.52,583.38 742.46,568.54 743.21,567.9 743.38,566.4 743.21,565.23 742.75,560.94 		"/>
		<line class="st15" x1="741.38" y1="560.94" x2="741.58" y2="564.97"/>
		<line class="st15" x1="742.05" y1="560.9" x2="742.31" y2="565"/>
		<polyline class="st15" points="743.09,564.15 742.31,565 741.58,564.97 740.58,564.37 		"/>
		<polygon class="st15" points="785.62,558.75 785.08,559.09 784.47,560.23 784.13,561.67 783.9,565 783.97,569.2 784.3,570.36 
			784.43,570.96 784.33,583.18 784.93,583.75 785.5,583.68 785.93,583.31 785.63,570.76 785.8,570.25 785.97,558.94 		"/>
		<polygon class="st15" points="790.28,583.22 789.64,583.52 788.88,583.35 788.79,582.49 789.39,575.5 789.56,573.63 
			789.39,571.54 788.88,570.99 788.24,570.43 787.98,568.86 788.36,567.2 789.13,565.75 789.81,565.32 790.58,565.32 791.3,565.92 
			791.64,567.03 791.82,568.47 791.6,569.92 791.01,570.69 790.11,571.37 790.37,582.24 		"/>
		<polyline class="st15" points="789.8,570.62 789.23,570.16 788.77,569.39 		"/>
		<path class="st15" d="M780.94,549.59c0-2.07-1.68-3.74-3.74-3.74c-2.07,0-3.74,1.68-3.74,3.74c0,2.07,1.68,3.74,3.74,3.74
			C779.26,553.33,780.94,551.65,780.94,549.59"/>
		<path class="st15" d="M782.66,549.59c0-3.02-2.45-5.47-5.47-5.47c-3.02,0-5.47,2.45-5.47,5.47c0,3.02,2.45,5.47,5.47,5.47
			C780.21,555.05,782.66,552.6,782.66,549.59"/>
		<path class="st15" d="M778.44,547.29c0.84,0.46,1.37,1.34,1.37,2.3c0,1.3-0.95,2.4-2.23,2.59"/>
		<path class="st15" d="M774.41,553.23c-1.14-0.87-1.8-2.21-1.8-3.64"/>
	</g>
	<g class="st13">
		<line class="st15" x1="719.3" y1="570.76" x2="718.1" y2="570.96"/>
		<polyline class="st15" points="705.2,559.41 704.53,560.22 704.29,560.76 703.93,560.79 702.09,562.43 700.61,563.27 
			700.41,563.63 699.13,564.79 697.97,565.91 696.37,566.79 695.36,569.83 694.93,571.24 694.93,572.5 		"/>
		<polyline class="st15" points="693.13,566.15 693.36,567.97 693.6,569.24 693.7,570.79 694.14,571.95 694.09,572.77 		"/>
		<polyline class="st15" points="688.56,565.16 689.31,567.21 690.15,568.16 691.14,569.43 692.2,570.27 692.37,571.26 
			693.06,572.01 693.1,572.76 		"/>
		<polyline class="st15" points="695.12,573.57 695.39,575.53 696.06,578.86 696.22,579.18 696.02,579.5 696,580.37 696.1,580.75 
			695.89,581.16 695.53,581.32 694.63,583.47 694.25,584.57 694.25,585.34 694.17,586.23 693.75,587.17 693.53,586.9 693.33,586.92 
			693.28,586.4 693.22,585.48 693.56,584.51 693.53,584.09 694,583.29 695.03,581.43 695.33,580.07 695.31,578.71 694.86,576.35 
			694.54,573.68 		"/>
		<polyline class="st15" points="693.78,573.69 693.17,574.41 691.49,575.31 689.4,576.36 688.29,577.01 685.9,577.4 684,577.06 
			685.9,577 687.63,576.36 690.2,574.7 692.03,573.22 		"/>
		<polyline class="st15" points="693.17,574.41 692.68,575.69 691.72,577.65 690.75,580.15 690.29,582.42 690.12,585.45 
			690.29,587.78 691.56,588.18 693.52,588.11 696.31,587.44 699.14,586.81 700.78,586.14 702.24,586.01 703.01,585.51 
			703.37,584.98 704.14,584.88 703.81,581.45 703.11,579.92 702.34,578.82 701.81,576.89 700.74,574.79 699.37,573.18 		"/>
		<polyline class="st15" points="697.36,572.16 698.89,570.6 700.52,569.64 702.75,568.64 		"/>
		<line class="st15" x1="699.04" y1="571.81" x2="699.78" y2="570.08"/>
		<polyline class="st15" points="692.27,572.55 691.63,571.95 690.57,571.17 689.83,569.62 688.37,567.77 687.84,565.76 
			687.26,563.77 686.89,561.36 686.91,559.79 688.3,559.51 692.18,558.7 693.92,558.49 695.86,558.53 699.08,559.09 701.35,559.09 
			701.49,560.09 701.22,562.1 701.28,564.75 700.97,566.53 701.06,567.51 700.21,568.89 		"/>
		<polyline class="st15" points="700.61,563.27 699.96,563.22 699.03,564.33 698.79,564.28 698.16,565.17 696.97,565.65 
			697.71,563.55 697.52,562.99 696.99,562.74 696.98,563.76 696.26,565.76 694.5,570.62 693.6,569.24 		"/>
		<line class="st15" x1="697.52" y1="562.99" x2="697.5" y2="561.08"/>
		<path class="st15" d="M687.53,585.04c-4.53-3.05-7.24-8.16-7.24-13.62c0-9.07,7.36-16.43,16.43-16.43s16.43,7.36,16.43,16.43
			c0,7.34-4.86,13.78-11.92,15.8"/>
		<path class="st15" d="M701.39,560.81c4.21,1.85,6.92,6.01,6.92,10.61c0,3.72-1.78,7.21-4.79,9.39"/>
		<path class="st15" d="M701,566.33c1.5,1.26,2.37,3.13,2.37,5.1c0,1.77-0.7,3.46-1.95,4.71"/>
		<path class="st15" d="M690.71,574.29c-0.43-0.89-0.65-1.87-0.65-2.86c0-0.35,0.03-0.7,0.08-1.04"/>
		<path class="st15" d="M689.09,573.9c-0.26-0.8-0.39-1.64-0.39-2.48c0-0.28,0.01-0.56,0.04-0.84"/>
		<path class="st15" d="M702.13,571.71c-0.06,1.2-0.52,2.34-1.3,3.25"/>
		<path class="st15" d="M707.31,570.14c0.05,0.43,0.08,0.85,0.08,1.28c0,1.67-0.39,3.32-1.15,4.81"/>
		<path class="st15" d="M688.44,579.55c-2.13-2.17-3.32-5.08-3.32-8.12c0-2.52,0.82-4.97,2.33-6.98"/>
		<polygon class="st15" points="692.27,572.55 692,572.85 692.03,573.22 692.4,573.52 693.23,573.7 694.54,573.68 695.77,573.44 
			697.69,573.44 698.93,573.37 699.37,573.18 699.32,572.55 699.04,571.81 698.64,571.97 698.03,572.15 696.49,572.18 
			695.41,572.29 694.93,572.5 694.09,572.77 692.84,572.76 		"/>
		<polyline class="st15" points="703.92,568.64 702.75,568.64 701.09,568.57 700.09,568.94 697.92,569.9 696.62,571.07 
			695.74,572.26 		"/>
		<polyline class="st15" points="703.83,560.88 703.92,560.1 704.59,558.4 		"/>
		<line class="st15" x1="692.54" y1="566.51" x2="693.27" y2="567.23"/>
		<polyline class="st15" points="693.42,581.92 693.22,580.45 693.55,578.55 694.25,576.82 694.66,574.71 		"/>
		<polyline class="st15" points="690.22,586.82 688.36,586.44 687.45,585.53 687.69,584.04 688.12,582.32 688.12,580.26 
			688.75,578.87 690.09,577.14 691.21,575.45 		"/>
		<polyline class="st15" points="694.02,587.99 695.78,588.27 698.51,588.27 700.9,587.77 701.52,586.73 701.51,586.08 		"/>
		<polyline class="st15" points="674.25,560.94 674.24,566.93 674.51,567.77 675.15,568.51 674.99,583.32 675.3,583.67 
			675.74,583.67 676.19,583.38 676.13,568.54 676.88,567.9 677.05,566.4 676.88,565.23 676.41,560.94 		"/>
		<line class="st15" x1="675.05" y1="560.94" x2="675.25" y2="564.97"/>
		<line class="st15" x1="675.72" y1="560.9" x2="675.98" y2="565"/>
		<polyline class="st15" points="676.76,564.15 675.98,565 675.25,564.97 674.25,564.37 		"/>
		<polygon class="st15" points="719.29,558.75 718.75,559.09 718.14,560.23 717.8,561.67 717.57,565 717.64,569.2 717.97,570.36 
			718.1,570.96 718,583.18 718.6,583.75 719.17,583.68 719.6,583.31 719.3,570.76 719.46,570.25 719.64,558.94 		"/>
		<polygon class="st15" points="723.95,583.22 723.31,583.52 722.54,583.35 722.46,582.49 723.06,575.5 723.23,573.63 
			723.06,571.54 722.54,570.99 721.91,570.43 721.65,568.86 722.03,567.2 722.8,565.75 723.48,565.32 724.25,565.32 724.97,565.92 
			725.31,567.03 725.49,568.47 725.27,569.92 724.68,570.69 723.78,571.37 724.04,582.24 		"/>
		<polyline class="st15" points="723.47,570.62 722.9,570.16 722.44,569.39 		"/>
		<path class="st15" d="M714.61,549.59c0-2.07-1.68-3.74-3.74-3.74c-2.07,0-3.74,1.68-3.74,3.74c0,2.07,1.68,3.74,3.74,3.74
			C712.93,553.33,714.61,551.65,714.61,549.59"/>
		<path class="st15" d="M716.33,549.59c0-3.02-2.45-5.47-5.47-5.47c-3.02,0-5.47,2.45-5.47,5.47c0,3.02,2.45,5.47,5.47,5.47
			C713.88,555.05,716.33,552.6,716.33,549.59"/>
		<path class="st15" d="M712.11,547.29c0.84,0.46,1.37,1.34,1.37,2.3c0,1.3-0.95,2.4-2.23,2.59"/>
		<path class="st15" d="M708.08,553.23c-1.14-0.87-1.8-2.21-1.8-3.64"/>
	</g>
	<g class="st13">
		<g class="st10">
			<g>
				<defs>
					<rect id="SVGID_1_" x="795.27" y="717" width="6.61" height="113.1"/>
				</defs>
				<clipPath id="SVGID_2_">
					<use xlink:href="#SVGID_1_"  style="overflow:visible;"/>
				</clipPath>
				<rect x="795.55" y="717.28" class="st16" width="6.05" height="112.55"/>
				
					<use xlink:href="#SVGID_1_"  style="overflow:visible;fill:none;stroke:#50545E;stroke-width:0.5559;stroke-linecap:round;stroke-linejoin:round;stroke-miterlimit:10;"/>
			</g>
		</g>
		<g class="st10">
			<g>
				<polygon class="st15" points="801.6,818.71 806.11,808.96 806.11,737.7 801.6,727.94 				"/>
			</g>
		</g>
		<g class="st10">
			<g>
				<defs>
					<rect id="SVGID_3_" x="805.82" y="765.61" width="2.81" height="15.91"/>
				</defs>
				<clipPath id="SVGID_4_">
					<use xlink:href="#SVGID_3_"  style="overflow:visible;"/>
				</clipPath>
				<rect x="806.1" y="765.89" class="st17" width="2.26" height="15.35"/>
				
					<use xlink:href="#SVGID_3_"  style="overflow:visible;fill:none;stroke:#50545E;stroke-width:0.5559;stroke-linecap:round;stroke-linejoin:round;stroke-miterlimit:10;"/>
			</g>
		</g>
	</g>
	<polygon class="st18" points="810.01,536.11 810.01,436.02 810.01,368.34 745.1,368.34 407.51,368.34 407.51,436.02 745.1,436.02 
		745.1,536.11 637.32,536.11 637.32,601.24 811.39,601.24 811.39,536.11 	"/>
</g>
<g id="Несущие">
	<polygon class="st19" points="885.5,531.94 860.62,531.94 860.62,509.68 810.85,509.68 810.85,266.77 137.12,266.77 137.12,311.94 
		99.59,311.94 99.59,319.14 84.09,319.14 84.09,239.27 835.74,239.27 835.74,484.14 885.5,484.14 	"/>
	<polygon class="st19" points="859.96,651.1 885.5,651.1 885.5,759.79 84.09,759.79 84.09,679.25 99.59,679.25 99.59,684.49 
		137.12,684.49 137.12,736.87 859.96,736.87 	"/>
	<polygon class="st19" points="137.12,424.23 99.59,424.23 99.59,415.72 84.09,415.72 84.09,461.55 99.59,461.55 99.59,453.04 
		137.12,453.04 	"/>
</g>
<g id="Layer_14">
</g>
<g id="Площади">
	<g>
		<g>
			<path class="st9" d="M180.31,419.17l-3.06,3.06c-0.26,0.25-0.57,0.38-0.93,0.38c-0.89,0-1.34-0.44-1.34-1.33
				c0-0.36,0.13-0.67,0.38-0.93l5.21-5.21c0.35-0.35,0.71-0.52,1.07-0.52c0.89,0,1.33,0.44,1.33,1.33v23.98
				c0,0.89-0.44,1.33-1.33,1.33c-0.89,0-1.33-0.44-1.33-1.33V419.17z"/>
			<path class="st9" d="M201.16,427.94c0,3.18-0.39,5.92-1.17,8.24c-1.14,3.39-2.97,5.09-5.49,5.09c-2.52,0-4.35-1.69-5.49-5.07
				c-0.78-2.31-1.17-5.07-1.17-8.26s0.39-5.94,1.17-8.26c1.14-3.38,2.97-5.07,5.49-5.07c2.52,0,4.35,1.7,5.49,5.09
				C200.77,422.02,201.16,424.77,201.16,427.94z M198.49,427.94c0-2.21-0.24-4.29-0.71-6.24c-0.71-2.95-1.81-4.42-3.29-4.42
				c-1.47,0-2.56,1.48-3.27,4.44c-0.48,1.99-0.73,4.06-0.73,6.22c0,2.19,0.24,4.27,0.71,6.24c0.71,2.95,1.81,4.42,3.29,4.42
				s2.58-1.47,3.29-4.42C198.26,432.22,198.49,430.14,198.49,427.94z"/>
			<path class="st9" d="M206.97,438.6c0.89,0,1.33,0.44,1.33,1.31c0,0.12-0.46,2.01-1.37,5.67c-0.16,0.67-0.59,1.01-1.29,1.01
				c-0.89,0-1.33-0.44-1.33-1.33c0-0.61,0.46-2.49,1.37-5.65C205.86,438.94,206.29,438.6,206.97,438.6z"/>
			<path class="st9" d="M219.33,441.27c-1.84,0-3.42-0.65-4.71-1.95c-1.3-1.3-1.95-2.87-1.95-4.71v-2.66c0-2.21,0.89-3.98,2.67-5.33
				c-1.78-1.35-2.67-3.12-2.67-5.33c0-1.84,0.65-3.42,1.95-4.71c1.3-1.3,2.87-1.95,4.71-1.95c1.84,0,3.42,0.65,4.71,1.95
				s1.95,2.87,1.95,4.71c0,2.21-0.89,3.98-2.67,5.33c1.28,0.97,2.09,2.16,2.42,3.57c0.16,0.71,0.24,2.19,0.24,4.42
				c0,1.84-0.65,3.42-1.95,4.71S221.18,441.27,219.33,441.27z M219.33,425.28c1.12,0,2.06-0.39,2.84-1.16
				c0.77-0.77,1.16-1.72,1.16-2.84c0-1.1-0.39-2.05-1.17-2.83c-0.78-0.78-1.72-1.17-2.83-1.17c-1.12,0-2.06,0.39-2.84,1.16
				s-1.16,1.72-1.16,2.84c0,1.12,0.39,2.06,1.16,2.84S218.22,425.28,219.33,425.28z M219.33,438.6c1.12,0,2.06-0.39,2.84-1.16
				c0.77-0.77,1.16-1.72,1.16-2.84v-2.66c0-1.1-0.39-2.05-1.17-2.83c-0.78-0.78-1.72-1.17-2.83-1.17c-1.12,0-2.06,0.39-2.84,1.16
				c-0.77,0.77-1.16,1.72-1.16,2.84v2.66c0,1.12,0.39,2.06,1.16,2.84S218.22,438.6,219.33,438.6z"/>
			<path class="st9" d="M230.86,426.61v-10.66c0-0.89,0.44-1.33,1.33-1.33h9.33c0.89,0,1.33,0.44,1.33,1.33
				c0,0.89-0.44,1.33-1.33,1.33h-7.99v7.99h4c1.84,0,3.42,0.65,4.71,1.96s1.95,2.87,1.95,4.7v2.66c0,1.84-0.65,3.42-1.96,4.71
				s-2.87,1.95-4.7,1.95h-5.33c-0.89,0-1.33-0.44-1.33-1.33s0.44-1.33,1.33-1.33h5.33c1.12,0,2.06-0.39,2.84-1.16
				c0.77-0.77,1.16-1.72,1.16-2.84v-2.66c0-1.1-0.39-2.05-1.17-2.83c-0.78-0.78-1.72-1.17-2.83-1.17h-5.33
				C231.3,427.94,230.86,427.5,230.86,426.61z"/>
		</g>
	</g>
	<g>
		<g>
			<path class="st9" d="M712.97,692.69h-2.66c-0.89,0-1.33-0.44-1.33-1.33s0.44-1.33,1.33-1.33h2.66c1.12,0,2.06-0.39,2.84-1.16
				c0.77-0.77,1.16-1.72,1.16-2.84c0-1.1-0.39-2.05-1.17-2.83c-0.78-0.78-1.72-1.17-2.83-1.17h-5.33c-0.89,0-1.33-0.44-1.33-1.33
				c0-0.89,0.44-1.33,1.33-1.33h5.33c1.84,0,3.42,0.65,4.71,1.96c1.3,1.31,1.95,2.87,1.95,4.7c0,2.21-0.89,3.98-2.67,5.33
				c1.78,1.35,2.67,3.12,2.67,5.33v2.66c0,1.84-0.65,3.42-1.96,4.71s-2.87,1.95-4.7,1.95h-5.33c-0.89,0-1.33-0.44-1.33-1.33
				s0.44-1.33,1.33-1.33h5.33c1.12,0,2.06-0.39,2.84-1.16c0.77-0.77,1.16-1.72,1.16-2.84v-2.66c0-1.1-0.39-2.05-1.17-2.83
				C715.02,693.08,714.07,692.69,712.97,692.69z"/>
			<path class="st9" d="M725.94,703.35c0.89,0,1.33,0.44,1.33,1.31c0,0.12-0.46,2.01-1.37,5.67c-0.16,0.67-0.59,1.01-1.29,1.01
				c-0.89,0-1.33-0.44-1.33-1.33c0-0.61,0.46-2.49,1.37-5.65C724.84,703.69,725.27,703.35,725.94,703.35z"/>
			<path class="st9" d="M734.76,706.02c-0.35,0-0.66-0.13-0.93-0.4c-0.27-0.27-0.4-0.58-0.4-0.93c0-0.62,0.22-1,0.67-1.15
				c0.97-0.32,1.78-0.69,2.42-1.11c2.87-1.86,4.47-4.21,4.8-7.07h-3.9c-1.84,0-3.42-0.65-4.71-1.95c-1.3-1.3-1.95-2.87-1.95-4.71
				v-2.67c0-1.84,0.65-3.42,1.95-4.71c1.3-1.3,2.87-1.95,4.71-1.95c1.86,0,3.43,0.64,4.72,1.93c1.29,1.29,1.94,2.85,1.94,4.69v8.04
				c0,4.52-2.11,8.1-6.32,10.72C736.41,705.59,735.41,706.02,734.76,706.02z M741.43,692.69v-6.66c0-1.1-0.39-2.05-1.17-2.83
				c-0.78-0.78-1.72-1.17-2.83-1.17s-2.05,0.39-2.83,1.17c-0.78,0.78-1.17,1.72-1.17,2.83v2.67c0,1.12,0.39,2.06,1.16,2.84
				c0.77,0.77,1.72,1.16,2.84,1.16H741.43z"/>
			<path class="st9" d="M754.97,692.69h-2.66c-0.89,0-1.33-0.44-1.33-1.33s0.44-1.33,1.33-1.33h2.66c1.12,0,2.06-0.39,2.84-1.16
				c0.77-0.77,1.16-1.72,1.16-2.84c0-1.1-0.39-2.05-1.17-2.83c-0.78-0.78-1.72-1.17-2.83-1.17h-5.33c-0.89,0-1.33-0.44-1.33-1.33
				c0-0.89,0.44-1.33,1.33-1.33h5.33c1.84,0,3.42,0.65,4.71,1.96c1.3,1.31,1.95,2.87,1.95,4.7c0,2.21-0.89,3.98-2.67,5.33
				c1.78,1.35,2.67,3.12,2.67,5.33v2.66c0,1.84-0.65,3.42-1.96,4.71s-2.87,1.95-4.7,1.95h-5.33c-0.89,0-1.33-0.44-1.33-1.33
				s0.44-1.33,1.33-1.33h5.33c1.12,0,2.06-0.39,2.84-1.16c0.77-0.77,1.16-1.72,1.16-2.84v-2.66c0-1.1-0.39-2.05-1.17-2.83
				C757.01,693.08,756.07,692.69,754.97,692.69z"/>
		</g>
	</g>
	<g>
		<g>
			<path class="st9" d="M403.49,427.94h-2.66c-0.89,0-1.33-0.44-1.33-1.33s0.44-1.33,1.33-1.33h2.66c1.12,0,2.06-0.39,2.84-1.16
				c0.77-0.77,1.16-1.72,1.16-2.84c0-1.1-0.39-2.05-1.17-2.83c-0.78-0.78-1.72-1.17-2.83-1.17h-5.33c-0.89,0-1.33-0.44-1.33-1.33
				c0-0.89,0.44-1.33,1.33-1.33h5.33c1.84,0,3.42,0.65,4.71,1.96c1.3,1.31,1.95,2.87,1.95,4.7c0,2.21-0.89,3.98-2.67,5.33
				c1.78,1.35,2.67,3.12,2.67,5.33v2.66c0,1.84-0.65,3.42-1.96,4.71s-2.87,1.95-4.7,1.95h-5.33c-0.89,0-1.33-0.44-1.33-1.33
				s0.44-1.33,1.33-1.33h5.33c1.12,0,2.06-0.39,2.84-1.16c0.77-0.77,1.16-1.72,1.16-2.84v-2.66c0-1.1-0.39-2.05-1.17-2.83
				C405.53,428.33,404.59,427.94,403.49,427.94z"/>
			<path class="st9" d="M416.46,438.6c0.89,0,1.33,0.44,1.33,1.31c0,0.12-0.46,2.01-1.37,5.67c-0.16,0.67-0.59,1.01-1.29,1.01
				c-0.89,0-1.33-0.44-1.33-1.33c0-0.61,0.46-2.49,1.37-5.65C415.36,438.94,415.79,438.6,416.46,438.6z"/>
			<path class="st9" d="M427.53,429.28l-0.99,0c-0.89,0-1.34-0.44-1.34-1.33s0.44-1.33,1.33-1.33l1.57,0l2.09-9.33h-8.99
				c-0.89,0-1.33-0.44-1.33-1.33c0-0.89,0.44-1.33,1.33-1.33h10.66c0.88,0,1.32,0.43,1.33,1.29c0,0.08-0.01,0.19-0.04,0.32
				l-2.31,10.38l1.01,0c0.89,0,1.33,0.44,1.33,1.33s-0.45,1.33-1.34,1.33l-1.62,0l-2.41,10.94c-0.16,0.7-0.59,1.05-1.27,1.05
				c-0.9,0-1.35-0.44-1.35-1.33c0-0.13,0.01-0.23,0.03-0.3L427.53,429.28z"/>
			<path class="st9" d="M444.44,441.27c-1.84,0-3.42-0.65-4.71-1.95c-1.3-1.3-1.95-2.87-1.95-4.71v-2.66c0-2.21,0.89-3.98,2.67-5.33
				c-1.78-1.35-2.67-3.12-2.67-5.33c0-1.84,0.65-3.42,1.95-4.71c1.3-1.3,2.87-1.95,4.71-1.95c1.84,0,3.42,0.65,4.71,1.95
				s1.95,2.87,1.95,4.71c0,2.21-0.89,3.98-2.67,5.33c1.28,0.97,2.09,2.16,2.42,3.57c0.16,0.71,0.24,2.19,0.24,4.42
				c0,1.84-0.65,3.42-1.95,4.71S446.29,441.27,444.44,441.27z M444.44,425.28c1.12,0,2.06-0.39,2.84-1.16
				c0.77-0.77,1.16-1.72,1.16-2.84c0-1.1-0.39-2.05-1.17-2.83c-0.78-0.78-1.72-1.17-2.83-1.17c-1.12,0-2.06,0.39-2.84,1.16
				s-1.16,1.72-1.16,2.84c0,1.12,0.39,2.06,1.16,2.84S443.32,425.28,444.44,425.28z M444.44,438.6c1.12,0,2.06-0.39,2.84-1.16
				c0.77-0.77,1.16-1.72,1.16-2.84v-2.66c0-1.1-0.39-2.05-1.17-2.83c-0.78-0.78-1.72-1.17-2.83-1.17c-1.12,0-2.06,0.39-2.84,1.16
				c-0.77,0.77-1.16,1.72-1.16,2.84v2.66c0,1.12,0.39,2.06,1.16,2.84S443.32,438.6,444.44,438.6z"/>
		</g>
	</g>
	<g>
		<g>
			<path class="st9" d="M716.2,427.94h-2.66c-0.89,0-1.33-0.44-1.33-1.33s0.44-1.33,1.33-1.33h2.66c1.12,0,2.06-0.39,2.84-1.16
				c0.77-0.77,1.16-1.72,1.16-2.84c0-1.1-0.39-2.05-1.17-2.83c-0.78-0.78-1.72-1.17-2.83-1.17h-5.33c-0.89,0-1.33-0.44-1.33-1.33
				c0-0.89,0.44-1.33,1.33-1.33h5.33c1.84,0,3.42,0.65,4.71,1.96c1.3,1.31,1.95,2.87,1.95,4.7c0,2.21-0.89,3.98-2.67,5.33
				c1.78,1.35,2.67,3.12,2.67,5.33v2.66c0,1.84-0.65,3.42-1.96,4.71s-2.87,1.95-4.7,1.95h-5.33c-0.89,0-1.33-0.44-1.33-1.33
				s0.44-1.33,1.33-1.33h5.33c1.12,0,2.06-0.39,2.84-1.16c0.77-0.77,1.16-1.72,1.16-2.84v-2.66c0-1.1-0.39-2.05-1.17-2.83
				C718.25,428.33,717.31,427.94,716.2,427.94z"/>
			<path class="st9" d="M729.18,438.6c0.89,0,1.33,0.44,1.33,1.31c0,0.12-0.46,2.01-1.37,5.67c-0.16,0.67-0.59,1.01-1.29,1.01
				c-0.89,0-1.33-0.44-1.33-1.33c0-0.61,0.46-2.49,1.37-5.65C728.07,438.94,728.5,438.6,729.18,438.6z"/>
			<path class="st9" d="M738.11,419.17l-3.06,3.06c-0.26,0.25-0.57,0.38-0.93,0.38c-0.89,0-1.34-0.44-1.34-1.33
				c0-0.36,0.13-0.67,0.38-0.93l5.21-5.21c0.35-0.35,0.71-0.52,1.07-0.52c0.89,0,1.33,0.44,1.33,1.33v23.98
				c0,0.89-0.44,1.33-1.33,1.33c-0.89,0-1.33-0.44-1.33-1.33V419.17z"/>
			<path class="st9" d="M745.64,434.61c0-0.15,0.01-0.27,0.04-0.36l5.33-18.65c0.19-0.65,0.62-0.97,1.29-0.97
				c0.89,0,1.33,0.45,1.33,1.34c0,0.12-0.02,0.25-0.05,0.38l-4.86,16.93h6.24v-4c0-0.89,0.44-1.33,1.33-1.33s1.33,0.44,1.33,1.33v4
				h2.67c0.89,0,1.33,0.44,1.33,1.33c0,0.89-0.44,1.33-1.33,1.33h-2.67v4c0,0.89-0.44,1.33-1.33,1.33s-1.33-0.44-1.33-1.33v-4h-7.99
				C746.08,435.94,745.64,435.49,745.64,434.61z"/>
		</g>
	</g>
</g>
</svg>
