<?xml version="1.0" encoding="utf-8"?>
<!-- Generator: Adobe Illustrator 27.3.1, SVG Export Plug-In . SVG Version: 6.00 Build 0)  -->
<svg version="1.1" xmlns="http://www.w3.org/2000/svg" xmlns:xlink="http://www.w3.org/1999/xlink" x="0px" y="0px"
	 viewBox="0 0 1001.22 1000" style="enable-background:new 0 0 1001.22 1000;" xml:space="preserve">
<style type="text/css">
	.st0{fill:none;stroke:#50545E;stroke-width:1.2201;stroke-linecap:round;stroke-linejoin:round;stroke-miterlimit:10;}
	.st1{fill:#FFFFFF;}
	.st2{fill:#50545E;}
	.st3{fill:none;stroke:#50545E;stroke-width:1.2201;stroke-linecap:round;stroke-linejoin:round;}
	
		.st4{fill:none;stroke:#50545E;stroke-width:1.2201;stroke-linecap:round;stroke-linejoin:round;stroke-dasharray:19.4655,19.4655,19.4655,19.4655;}
	
		.st5{fill:none;stroke:#50545E;stroke-width:1.2201;stroke-linecap:round;stroke-linejoin:round;stroke-dasharray:19.4655,19.4655,19.4655,19.4655,19.4655,19.4655;}
	
		.st6{fill:none;stroke:#50545E;stroke-width:1.2201;stroke-linecap:round;stroke-linejoin:round;stroke-dasharray:16.1016,16.1016,16.1016,16.1016;}
	
		.st7{fill:none;stroke:#50545E;stroke-width:1.2201;stroke-linecap:round;stroke-linejoin:round;stroke-dasharray:8.3772,8.3772,8.3772,8.3772;}
	.st8{opacity:0.8;fill:none;stroke:#50545E;stroke-width:0.6101;stroke-linecap:round;stroke-linejoin:round;stroke-miterlimit:10;}
	.st9{fill:#50545E;stroke:#50545E;stroke-width:2.4403;stroke-linecap:round;stroke-linejoin:round;stroke-miterlimit:10;}
</style>
<g id="Слой_1">
</g>
<g id="Окна_x2C__двери">
	<g>
		<path class="st0" d="M754.26,608.56v-86.64c-5.92,0-36.17,0.6-60.83,24.89c-25.26,24.88-25.81,56.06-25.81,61.75"/>
		<path class="st0" d="M515.22,500v99.17c-6.77,0-41.4-0.68-69.63-28.48c-28.91-28.48-29.54-64.16-29.54-70.68"/>
		<path class="st0" d="M889.96,475.99h110.65c0,7.56-0.76,46.2-31.78,77.69c-31.77,32.25-71.59,32.96-78.87,32.96"/>
		<g>
			<rect x="89.34" y="553.23" class="st0" width="8.35" height="235.91"/>
			<rect x="74.72" y="553.23" class="st0" width="54.28" height="235.91"/>
		</g>
		<g>
			<rect x="89.34" y="184.76" class="st0" width="8.35" height="235.91"/>
			<rect x="74.72" y="184.76" class="st0" width="54.28" height="235.91"/>
		</g>
		<g>
			<rect x="4.79" y="195.2" class="st0" width="65.76" height="213.99"/>
			<rect x="0.61" y="191.02" class="st0" width="74.11" height="222.34"/>
		</g>
	</g>
</g>
<g id="Шахты">
	<g>
		<g>
			<rect x="836.73" y="614.95" class="st1" width="37.58" height="69.28"/>
			<rect x="836.73" y="690.63" class="st1" width="37.58" height="12.79"/>
			<rect x="830.46" y="608.56" class="st1" width="50.11" height="101.25"/>
		</g>
		<g>
			<rect x="836.73" y="614.95" class="st0" width="37.58" height="69.28"/>
			<rect x="836.73" y="690.63" class="st0" width="37.58" height="12.79"/>
			<rect x="830.46" y="608.56" class="st0" width="50.11" height="101.25"/>
		</g>
	</g>
	<g>
		<g>
			<rect x="807.63" y="218.42" class="st1" width="38.36" height="65.71"/>
			<rect x="807.63" y="200.22" class="st1" width="38.36" height="12.13"/>
			<rect x="801.24" y="194.15" class="st1" width="51.15" height="96.03"/>
		</g>
		<g>
			<rect x="807.63" y="218.42" class="st0" width="38.36" height="65.71"/>
			<rect x="807.63" y="200.22" class="st0" width="38.36" height="12.13"/>
			<rect x="801.24" y="194.15" class="st0" width="51.15" height="96.03"/>
		</g>
	</g>
</g>
<g id="Перегородки">
	<rect x="129" y="489.56" class="st2" width="280.79" height="10.44"/>
	<rect x="683.28" y="377.87" class="st2" width="197.29" height="9.39"/>
	<polyline class="st2" points="880.57,450.94 880.57,469.73 905.62,469.73 905.62,450.94 880.57,450.94 	"/>
	<polygon class="st2" points="877.44,265.14 877.44,117.95 829.42,117.95 829.42,141.96 852.38,141.96 852.38,194.15 808.54,194.16 
		808.54,141.96 801.24,141.96 801.24,194.15 852.38,194.15 852.38,290.19 880.57,290.19 880.57,339.25 905.62,339.25 905.62,265.14 
			"/>
	<polygon class="st2" points="880.57,592.9 880.57,709.81 814.81,709.81 814.81,832.98 545.49,832.98 545.49,617.95 661.36,617.95 
		661.36,608.56 545.49,608.56 545.49,500 619.61,500 619.61,489.56 520.44,489.56 520.44,500 532.97,500 532.97,856.99 
		252.18,856.99 252.18,882.05 644.66,882.05 644.66,856.99 545.49,856.99 545.49,838.2 818.98,838.2 818.98,713.99 829.42,713.99 
		829.42,882.05 853.43,882.05 853.43,733.82 905.62,733.82 905.62,592.9 	"/>
	<polyline class="st2" points="644.66,117.95 252.18,117.95 252.18,141.96 644.66,141.96 644.66,117.95 	"/>
	<rect x="760.53" y="608.56" class="st2" width="69.94" height="9.39"/>
</g>
<g id="Пунктир">
	<g>
		<g>
			<line class="st3" x1="683.28" y1="141.96" x2="683.28" y2="152.86"/>
			<line class="st4" x1="683.28" y1="172.32" x2="683.28" y2="240.45"/>
			<line class="st5" x1="683.28" y1="250.18" x2="683.28" y2="357.24"/>
			<line class="st3" x1="683.28" y1="366.98" x2="683.28" y2="377.87"/>
		</g>
	</g>
	<g>
		<g>
			<line class="st3" x1="683.28" y1="387.27" x2="683.28" y2="398.16"/>
			<line class="st6" x1="683.28" y1="414.26" x2="683.28" y2="470.62"/>
			<polyline class="st3" points="683.28,478.67 683.28,489.56 672.39,489.56 			"/>
			<line class="st7" x1="664.01" y1="489.56" x2="634.69" y2="489.56"/>
			<line class="st3" x1="630.5" y1="489.56" x2="619.61" y2="489.56"/>
		</g>
	</g>
</g>
<g id="Сантехника">
	<g>
		<rect x="699.98" y="141.96" class="st8" width="74.11" height="74.11"/>
		<circle class="st8" cx="737.09" cy="172.21" r="5.56"/>
		<circle class="st8" cx="737.09" cy="153.08" r="2.16"/>
		<circle class="st8" cx="758.59" cy="153.08" r="2.16"/>
		<path class="st8" d="M767.3,209.9l-60.53,0c-0.34,0-0.62-0.28-0.62-0.62v-60.53c0-0.34,0.28-0.62,0.62-0.62l60.53,0
			c0.34,0,0.62,0.28,0.62,0.62l0,60.53C767.92,209.62,767.64,209.9,767.3,209.9z"/>
		<path class="st8" d="M764.24,206.81l-54.35,0c-0.34,0-0.62-0.28-0.62-0.62v-48.17c0-0.34,0.28-0.62,0.62-0.62l54.35,0
			c0.34,0,0.62,0.28,0.62,0.62v48.17C764.86,206.53,764.58,206.81,764.24,206.81z"/>
	</g>
	<g>
		<g>
			<line class="st8" x1="589.12" y1="822.37" x2="598.14" y2="822.37"/>
			<path class="st8" d="M602.13,822.37l18.64,0c2.54,0,4.6-2.23,4.6-4.97l0-144.21c0-9.84-3.39-19.34-9.52-26.62
				c-14.54-17.29-39.71-17.29-54.25,0c-6.13,7.29-9.53,16.79-9.53,26.62l0,144.21c0,2.74,2.07,4.97,4.61,4.97h21.82"/>
			<rect x="545.49" y="622.99" class="st8" width="86.47" height="209.99"/>
			<path class="st8" d="M588.73,790.19c2.44,0,4.42,1.98,4.42,4.42c0,2.44-1.98,4.42-4.42,4.42c-2.44,0-4.43-1.98-4.43-4.42
				C584.3,792.17,586.29,790.19,588.73,790.19z"/>
			<path class="st8" d="M598.14,832.98h4v-6.51v-0.44v-10.29c0,0-0.07-2.12-2-2.12c-1.92,0-2,2.12-2,2.12l0,10.29v0.44v2.4"/>
			<path class="st8" d="M581.53,827.38l-0.11,1.3c-0.17,2.06,1.38,4,3.65,4.27c0.15,0.02,0.3,0.03,0.46,0.03
				c0.15,0,0.31-0.01,0.46-0.03c2.27-0.27,3.81-2.21,3.65-4.27l-1.84-22.33c0-0.71-0.64-1.29-1.42-1.29h-1.68
				c-0.79,0-1.42,0.58-1.42,1.29l-0.94,11.31"/>
			<path class="st8" d="M578.13,816.94l0.65-0.4c1.17-0.7,2.69-0.32,3.39,0.85l5.4,8.96c0.7,1.16,0.32,2.69-0.84,3.39l-0.67,0.39
				c-1.15,0.7-2.68,0.32-3.39-0.84l-5.39-8.96C576.59,819.16,576.96,817.64,578.13,816.94z"/>
			<path class="st8" d="M581.65,827.57c-3.15,0.17-7.24,0.49-8.34,1.05c-1.53,0.78-0.85,2.95-0.85,2.95v1.39h26.15v-1.39
				c0,0,0.67-2.17-0.85-2.95c-1.08-0.55-5.07-0.87-8.21-1.04"/>
			<path class="st8" d="M603.86,822.37c2.33-1.31,3.91-3.8,3.91-6.67c0-4.22-3.42-7.64-7.63-7.64c-4.22,0-7.63,3.42-7.63,7.64
				c0,2.86,1.58,5.36,3.91,6.67"/>
		</g>
		<g>
			<path class="st8" d="M783.49,832.98v-12.14v-1.24c0-3.41-2.8-6.21-6.23-6.21h-32.02c-3.42,0-6.23,2.79-6.23,6.21v1.24v12.14
				H783.49z"/>
			<ellipse class="st8" cx="761.26" cy="818.02" rx="1.68" ry="1.67"/>
			<line class="st8" x1="764.19" y1="818.02" x2="762.93" y2="818.02"/>
			<line class="st8" x1="759.58" y1="818.02" x2="758.32" y2="818.02"/>
			<line class="st8" x1="761.26" y1="815.09" x2="761.26" y2="816.34"/>
			<line class="st8" x1="761.26" y1="819.69" x2="761.26" y2="820.94"/>
			<line class="st8" x1="772.75" y1="806.29" x2="771.92" y2="806.29"/>
			<line class="st8" x1="769.69" y1="806.29" x2="768.86" y2="806.29"/>
			<line class="st8" x1="770.81" y1="804.35" x2="770.81" y2="805.18"/>
			<line class="st8" x1="770.81" y1="807.41" x2="770.81" y2="808.24"/>
			<ellipse class="st8" cx="770.81" cy="806.29" rx="1.11" ry="1.11"/>
			<ellipse class="st8" cx="751.71" cy="806.29" rx="1.11" ry="1.11"/>
			<line class="st8" x1="753.65" y1="806.29" x2="752.82" y2="806.29"/>
			<line class="st8" x1="750.59" y1="806.29" x2="749.76" y2="806.29"/>
			<line class="st8" x1="751.71" y1="804.35" x2="751.71" y2="805.18"/>
			<line class="st8" x1="751.71" y1="807.41" x2="751.71" y2="808.24"/>
			<path class="st8" d="M739.69,785.96c0.06,0.86,0.13,1.57,0.18,2.03c1.61,8.47,3.22,16.95,4.83,25.42c5.52,0,11.03,0,16.55-0.01
				c5.52,0,11.03,0,16.55,0.01c1.61-8.47,3.22-16.95,4.83-25.42c0.05-0.46,0.12-1.17,0.18-2.03c0.36-5.08,0.96-13.64-3.51-21.36
				c-0.72-1.25-2.2-3.75-5.03-6.15c-1.69-1.44-6.2-5.14-12.86-5.14c-0.06,0-0.11,0-0.16,0.01c-0.05,0-0.11-0.01-0.16-0.01
				c-6.66,0-11.17,3.7-12.86,5.14c-2.83,2.4-4.31,4.91-5.03,6.15C738.73,772.32,739.33,780.88,739.69,785.96z"/>
			<path class="st8" d="M743.92,784.84c0.36,2.5,0.81,5.29,2.87,8.16c2.54,3.54,5.95,4.97,7.06,5.43c3.03,1.23,5.61,1.23,7.41,1.23
				c1.8,0,4.38,0,7.41-1.23c1.11-0.45,4.52-1.89,7.06-5.43c2.06-2.87,2.5-5.66,2.87-8.16c0.47-3.18,1.68-11.5-3.44-18.99
				c-1.28-1.86-4.01-5.8-9.26-7.43c-1.09-0.34-4.85-1.37-9.27,0c-5.25,1.63-7.98,5.56-9.26,7.43
				C742.24,773.34,743.46,781.66,743.92,784.84z"/>
			<path class="st8" d="M750.38,791.39c4.11,3.84,9.47,3.83,10.88,3.82c1.41,0.01,6.77,0.02,10.88-3.82
				c3.64-3.4,4.43-8.07,4.4-11.77c0.04-2.56-0.33-4.64-0.48-5.47c-0.36-2.02-1.25-6-4.38-9.51c-1.27-1.42-4.87-5.45-10.39-5.46
				c-5.56-0.01-9.2,4.06-10.46,5.46c-3.13,3.5-4.02,7.48-4.38,9.51c-0.15,0.82-0.52,2.9-0.48,5.47
				C745.95,783.32,746.74,787.99,750.38,791.39z"/>
			<path class="st8" d="M755.82,791.02c0.59,1.23,1.66,1.8,2.05,1.98c2.26,0,4.52,0,6.78,0c0.39-0.18,1.47-0.75,2.05-1.98
				c0.48-1.02,0.38-1.95,0.29-2.61c-0.29-2.23-1.69-3.74-2.34-4.35c-2.26,0-4.52,0-6.78,0c-0.64,0.59-2.01,2.04-2.33,4.22
				C755.44,788.98,755.31,789.96,755.82,791.02z"/>
		</g>
		<g>
			<path class="st8" d="M671.85,810.54c0-1.43,1.17-2.59,2.6-2.59c1.43,0,2.6,1.16,2.6,2.59c0,1.44-1.16,2.6-2.6,2.6
				C673.02,813.14,671.85,811.98,671.85,810.54z"/>
			<path class="st8" d="M670.33,810.54c0-2.27,1.85-4.11,4.13-4.11c2.27,0,4.12,1.84,4.12,4.11c0,2.28-1.84,4.11-4.12,4.11
				C672.18,814.65,670.33,812.82,670.33,810.54z"/>
			<path class="st8" d="M640.48,832.98h0.01h67.91h0.01c0-9.43,0-18.86,0-28.29c0-0.06,0-0.14-0.01-0.21
				c0.06-2.88-0.17-10.57-5.23-16.8c-4.24-5.23-9.69-6.74-13.95-7.92c-1.22-0.34-2.13-0.47-3.93-0.75c-8.52-1.37-15.93-0.93-21.71,0
				c-1.8,0.29-2.71,0.42-3.93,0.75c-4.26,1.18-9.71,2.69-13.95,7.92c-5.06,6.23-5.29,13.92-5.23,16.8c0,0.07-0.01,0.14-0.01,0.21
				C640.48,814.12,640.48,823.55,640.48,832.98z"/>
			<path class="st8" d="M648.02,800.89c0.03,1.66,0.07,3.54,0.69,5.87c0.2,0.76,0.91,3.44,2.34,5.41c2.61,3.6,7.1,3.93,14.66,4.86
				c3.6,0.45,6.56,0.44,8.75,0.43c0,0,0,0,0,0c0,0,0,0,0,0c2.19,0.01,5.15,0.02,8.75-0.43c7.55-0.93,12.04-1.26,14.66-4.86
				c1.4-1.93,2.1-4.52,2.31-5.29c0.64-2.37,0.69-4.29,0.72-5.99c0.05-3.33,0.09-5.3-0.75-7.48c-1.48-3.86-4.69-5.74-6.35-6.71
				c-2.11-1.23-4.43-1.66-9.07-2.5c0,0-5.06-0.92-10.26-0.92c0,0,0,0,0,0c0,0,0,0,0,0c-5.19,0-10.26,0.92-10.26,0.92
				c-4.61,0.84-6.91,1.26-8.98,2.45c-1.68,0.97-4.95,2.86-6.44,6.76C647.93,795.59,647.97,797.58,648.02,800.89z"/>
			<line class="st8" x1="679.86" y1="810.54" x2="669.05" y2="810.54"/>
			<line class="st8" x1="674.45" y1="805.14" x2="674.45" y2="815.95"/>
			<path class="st8" d="M672.28,825.51c0-1.2,0.98-2.18,2.18-2.18c1.2,0,2.17,0.97,2.17,2.18c0,1.2-0.97,2.18-2.17,2.18
				C673.25,827.69,672.28,826.71,672.28,825.51z"/>
			<line class="st8" x1="677.93" y1="825.51" x2="670.97" y2="825.51"/>
			<line class="st8" x1="674.45" y1="822.03" x2="674.45" y2="828.99"/>
		</g>
	</g>
</g>
<g id="Несущие">
	<g>
		<rect x="880.57" y="339.25" class="st9" width="25.05" height="111.69"/>
		<rect x="644.66" y="117.95" class="st9" width="184.76" height="24.01"/>
		<polygon class="st9" points="89.34,420.67 89.34,415.45 74.72,415.45 74.72,558.45 89.34,558.45 89.34,553.24 129,553.24 
			129,420.67 		"/>
		<polygon class="st9" points="252.18,117.95 74.72,117.95 74.72,189.98 89.34,189.98 89.34,184.76 129,184.76 129,141.96 
			252.18,141.96 		"/>
		<polygon class="st9" points="252.18,856.99 129,856.99 129,789.14 89.34,789.14 89.34,783.92 74.72,783.92 74.72,882.05 
			252.18,882.05 		"/>
		<rect x="644.66" y="856.99" class="st9" width="184.76" height="25.05"/>
	</g>
</g>
<g id="Лифты_x2C__лестницы">
</g>
<g id="Слой_12">
</g>
<g id="Площади">
	<g>
		<path class="st2" d="M700.6,662.18h-2.95c-0.98,0-1.47-0.49-1.47-1.47c0-0.98,0.49-1.47,1.47-1.47h2.95
			c1.24,0,2.28-0.43,3.14-1.29c0.86-0.86,1.28-1.9,1.28-3.14c0-1.22-0.43-2.26-1.3-3.13c-0.86-0.86-1.91-1.3-3.13-1.3h-5.9
			c-0.98,0-1.47-0.49-1.47-1.47c0-0.98,0.49-1.47,1.47-1.47h5.9c2.04,0,3.78,0.72,5.22,2.17c1.44,1.44,2.16,3.18,2.16,5.21
			c0,2.44-0.98,4.41-2.95,5.9c1.97,1.49,2.95,3.46,2.95,5.9v2.95c0,2.04-0.72,3.78-2.17,5.22c-1.44,1.44-3.18,2.16-5.21,2.16h-5.9
			c-0.98,0-1.47-0.49-1.47-1.47s0.49-1.47,1.47-1.47h5.9c1.24,0,2.28-0.43,3.14-1.28c0.86-0.86,1.28-1.9,1.28-3.14v-2.95
			c0-1.22-0.43-2.26-1.3-3.13C702.87,662.61,701.82,662.18,700.6,662.18z"/>
		<path class="st2" d="M715.12,673.97c0.98,0,1.47,0.48,1.47,1.45c0,0.13-0.51,2.23-1.52,6.28c-0.18,0.74-0.66,1.12-1.43,1.12
			c-0.98,0-1.47-0.49-1.47-1.47c0-0.67,0.51-2.76,1.52-6.26C713.9,674.35,714.37,673.97,715.12,673.97z"/>
		<path class="st2" d="M728.96,676.92c-2.04,0-3.78-0.72-5.22-2.16c-1.44-1.44-2.16-3.18-2.16-5.22v-2.95c0-2.44,0.98-4.41,2.95-5.9
			c-1.97-1.49-2.95-3.46-2.95-5.9c0-2.04,0.72-3.78,2.16-5.22c1.44-1.44,3.18-2.16,5.22-2.16c2.04,0,3.78,0.72,5.22,2.16
			c1.44,1.44,2.16,3.18,2.16,5.22c0,2.44-0.98,4.41-2.95,5.9c1.42,1.07,2.31,2.39,2.68,3.95c0.18,0.79,0.27,2.42,0.27,4.89
			c0,2.04-0.72,3.78-2.16,5.22C732.74,676.2,731,676.92,728.96,676.92z M728.96,659.23c1.24,0,2.28-0.43,3.14-1.29
			c0.86-0.86,1.28-1.9,1.28-3.14c0-1.22-0.43-2.26-1.3-3.13c-0.86-0.86-1.91-1.3-3.13-1.3c-1.24,0-2.28,0.43-3.14,1.29
			s-1.28,1.9-1.28,3.14s0.43,2.28,1.28,3.14C726.68,658.8,727.72,659.23,728.96,659.23z M728.96,673.97c1.24,0,2.28-0.43,3.14-1.28
			c0.86-0.86,1.28-1.9,1.28-3.14v-2.95c0-1.22-0.43-2.26-1.3-3.13c-0.86-0.86-1.91-1.3-3.13-1.3c-1.24,0-2.28,0.43-3.14,1.28
			s-1.28,1.9-1.28,3.14v2.95c0,1.24,0.43,2.28,1.28,3.14S727.72,673.97,728.96,673.97z"/>
		<path class="st2" d="M749.25,676.92c-2.04,0-3.78-0.72-5.22-2.16c-1.44-1.44-2.16-3.18-2.16-5.22v-2.95c0-2.44,0.98-4.41,2.95-5.9
			c-1.97-1.49-2.95-3.46-2.95-5.9c0-2.04,0.72-3.78,2.16-5.22c1.44-1.44,3.18-2.16,5.22-2.16c2.04,0,3.78,0.72,5.22,2.16
			c1.44,1.44,2.16,3.18,2.16,5.22c0,2.44-0.98,4.41-2.95,5.9c1.42,1.07,2.31,2.39,2.68,3.95c0.18,0.79,0.27,2.42,0.27,4.89
			c0,2.04-0.72,3.78-2.16,5.22C753.03,676.2,751.29,676.92,749.25,676.92z M749.25,659.23c1.24,0,2.28-0.43,3.14-1.29
			c0.86-0.86,1.28-1.9,1.28-3.14c0-1.22-0.43-2.26-1.3-3.13c-0.86-0.86-1.91-1.3-3.13-1.3c-1.24,0-2.28,0.43-3.14,1.29
			s-1.28,1.9-1.28,3.14s0.43,2.28,1.28,3.14C746.97,658.8,748.02,659.23,749.25,659.23z M749.25,673.97c1.24,0,2.28-0.43,3.14-1.28
			c0.86-0.86,1.28-1.9,1.28-3.14v-2.95c0-1.22-0.43-2.26-1.3-3.13c-0.86-0.86-1.91-1.3-3.13-1.3c-1.24,0-2.28,0.43-3.14,1.28
			s-1.28,1.9-1.28,3.14v2.95c0,1.24,0.43,2.28,1.28,3.14S748.02,673.97,749.25,673.97z"/>
	</g>
	<g>
		<path class="st2" d="M176.09,676.92c-0.39,0-0.73-0.15-1.03-0.45c-0.3-0.3-0.45-0.64-0.45-1.03c0-0.68,0.25-1.11,0.74-1.27
			c1.07-0.36,1.97-0.77,2.68-1.23c3.17-2.06,4.94-4.66,5.32-7.82h-4.31c-2.04,0-3.78-0.72-5.22-2.16c-1.44-1.44-2.16-3.18-2.16-5.22
			v-2.95c0-2.04,0.72-3.78,2.16-5.22c1.44-1.44,3.18-2.16,5.22-2.16c2.06,0,3.8,0.71,5.23,2.13c1.43,1.42,2.14,3.15,2.14,5.19v8.89
			c0,5-2.33,8.96-6.99,11.86C177.91,676.45,176.8,676.92,176.09,676.92z M183.46,662.18v-7.37c0-1.22-0.43-2.26-1.3-3.13
			c-0.86-0.86-1.91-1.3-3.13-1.3c-1.22,0-2.26,0.43-3.13,1.3c-0.86,0.86-1.3,1.91-1.3,3.13v2.95c0,1.24,0.43,2.28,1.28,3.14
			c0.86,0.86,1.9,1.29,3.14,1.29H183.46z"/>
		<path class="st2" d="M192.41,673.97c0.98,0,1.47,0.48,1.47,1.45c0,0.13-0.51,2.23-1.52,6.28c-0.18,0.74-0.66,1.12-1.43,1.12
			c-0.98,0-1.47-0.49-1.47-1.47c0-0.67,0.51-2.76,1.52-6.26C191.19,674.34,191.66,673.97,192.41,673.97z"/>
		<path class="st2" d="M199.58,660.7v-11.8c0-0.98,0.49-1.47,1.47-1.47h10.32c0.98,0,1.47,0.49,1.47,1.47
			c0,0.98-0.49,1.47-1.47,1.47h-8.85v8.85h4.42c2.04,0,3.78,0.72,5.22,2.17c1.44,1.45,2.16,3.18,2.16,5.21v2.95
			c0,2.04-0.72,3.78-2.17,5.22c-1.44,1.44-3.18,2.16-5.21,2.16h-5.9c-0.98,0-1.47-0.49-1.47-1.47s0.49-1.47,1.47-1.47h5.9
			c1.24,0,2.28-0.43,3.14-1.28c0.86-0.86,1.28-1.9,1.28-3.14v-2.95c0-1.22-0.43-2.26-1.3-3.13c-0.86-0.86-1.91-1.3-3.13-1.3h-5.9
			C200.07,662.18,199.58,661.68,199.58,660.7z"/>
		<path class="st2" d="M234.29,662.18c0,3.51-0.43,6.55-1.3,9.12c-1.27,3.75-3.29,5.63-6.08,5.63s-4.81-1.87-6.08-5.61
			c-0.86-2.56-1.3-5.61-1.3-9.14c0-3.53,0.43-6.58,1.3-9.14c1.27-3.74,3.29-5.61,6.08-5.61s4.81,1.88,6.08,5.63
			C233.86,655.62,234.29,658.66,234.29,662.18z M231.34,662.18c0-2.44-0.26-4.74-0.78-6.9c-0.79-3.26-2-4.89-3.64-4.89
			c-1.62,0-2.83,1.64-3.62,4.92c-0.54,2.21-0.8,4.5-0.8,6.88c0,2.43,0.26,4.73,0.78,6.9c0.79,3.26,2,4.89,3.64,4.89
			c1.64,0,2.85-1.63,3.64-4.89C231.08,666.9,231.34,664.6,231.34,662.18z"/>
	</g>
	<g>
		<path class="st2" d="M761.84,451.7h-2.95c-0.98,0-1.47-0.49-1.47-1.47c0-0.98,0.49-1.47,1.47-1.47h2.95
			c1.24,0,2.28-0.43,3.14-1.29c0.86-0.86,1.28-1.9,1.28-3.14c0-1.22-0.43-2.26-1.3-3.13c-0.86-0.86-1.91-1.3-3.13-1.3h-5.9
			c-0.98,0-1.47-0.49-1.47-1.47c0-0.98,0.49-1.47,1.47-1.47h5.9c2.04,0,3.78,0.72,5.22,2.17c1.44,1.44,2.16,3.18,2.16,5.21
			c0,2.44-0.98,4.41-2.95,5.9c1.97,1.49,2.95,3.46,2.95,5.9v2.95c0,2.04-0.72,3.78-2.17,5.22c-1.44,1.44-3.18,2.16-5.21,2.16h-5.9
			c-0.98,0-1.47-0.49-1.47-1.47s0.49-1.47,1.47-1.47h5.9c1.24,0,2.28-0.43,3.14-1.28c0.86-0.86,1.28-1.9,1.28-3.14v-2.95
			c0-1.22-0.43-2.26-1.3-3.13C764.1,452.14,763.06,451.7,761.84,451.7z"/>
		<path class="st2" d="M776.07,463.5c0.98,0,1.47,0.48,1.47,1.45c0,0.13-0.51,2.23-1.52,6.28c-0.18,0.74-0.66,1.12-1.43,1.12
			c-0.98,0-1.47-0.49-1.47-1.47c0-0.67,0.51-2.76,1.52-6.26C774.85,463.87,775.33,463.5,776.07,463.5z"/>
		<path class="st2" d="M786.12,466.45c-0.39,0-0.73-0.15-1.03-0.45c-0.3-0.3-0.45-0.64-0.45-1.03c0-0.68,0.25-1.11,0.74-1.27
			c1.07-0.36,1.97-0.77,2.68-1.23c3.17-2.06,4.94-4.66,5.32-7.82h-4.31c-2.04,0-3.78-0.72-5.22-2.16c-1.44-1.44-2.16-3.18-2.16-5.22
			v-2.95c0-2.04,0.72-3.78,2.16-5.22c1.44-1.44,3.18-2.16,5.22-2.16c2.06,0,3.8,0.71,5.23,2.13c1.43,1.42,2.14,3.15,2.14,5.19v8.89
			c0,5-2.33,8.96-6.99,11.86C787.95,465.98,786.84,466.45,786.12,466.45z M793.49,451.7v-7.37c0-1.22-0.43-2.26-1.3-3.13
			c-0.86-0.86-1.91-1.3-3.13-1.3c-1.22,0-2.26,0.43-3.13,1.3c-0.86,0.86-1.3,1.91-1.3,3.13v2.95c0,1.24,0.43,2.28,1.28,3.14
			c0.86,0.86,1.9,1.29,3.14,1.29H793.49z"/>
		<path class="st2" d="M816.46,451.7c0,3.51-0.43,6.55-1.3,9.12c-1.27,3.75-3.29,5.63-6.08,5.63s-4.81-1.87-6.08-5.61
			c-0.86-2.56-1.3-5.61-1.3-9.14c0-3.53,0.43-6.58,1.3-9.14c1.27-3.74,3.29-5.61,6.08-5.61s4.81,1.88,6.08,5.63
			C816.03,445.15,816.46,448.19,816.46,451.7z M813.51,451.7c0-2.44-0.26-4.74-0.78-6.9c-0.79-3.26-2-4.89-3.64-4.89
			c-1.62,0-2.83,1.64-3.62,4.92c-0.54,2.21-0.8,4.5-0.8,6.88c0,2.43,0.26,4.73,0.78,6.9c0.79,3.26,2,4.89,3.64,4.89
			c1.64,0,2.85-1.63,3.64-4.89C813.25,456.43,813.51,454.13,813.51,451.7z"/>
	</g>
	<g>
		<path class="st2" d="M162.98,313.91l-3.39,3.39c-0.28,0.28-0.63,0.42-1.03,0.42c-0.99,0-1.48-0.49-1.48-1.47
			c0-0.4,0.14-0.74,0.42-1.03l5.76-5.76c0.39-0.39,0.78-0.58,1.18-0.58c0.98,0,1.47,0.49,1.47,1.47v26.54
			c0,0.98-0.49,1.47-1.47,1.47s-1.47-0.49-1.47-1.47V313.91z"/>
		<path class="st2" d="M177.88,308.87c2.04,0,3.78,0.72,5.22,2.16c1.44,1.44,2.16,3.18,2.16,5.22c0,1.4-0.45,2.82-1.34,4.25
			l-9.29,14.92h9.16c0.98,0,1.47,0.49,1.47,1.47s-0.49,1.47-1.47,1.47h-11.8c-0.98,0-1.47-0.49-1.47-1.47c0-0.3,0.08-0.58,0.25-0.85
			l10.81-17.36c0.49-0.79,0.74-1.6,0.74-2.43c0-1.22-0.43-2.26-1.3-3.13c-0.86-0.86-1.91-1.3-3.13-1.3c-1.67,0-3.21,1.24-4.62,3.71
			c-0.27,0.48-0.69,0.71-1.27,0.71c-0.98,0-1.47-0.49-1.47-1.47c0-0.22,0.04-0.42,0.13-0.6
			C172.47,310.63,174.89,308.87,177.88,308.87z"/>
		<path class="st2" d="M192.92,335.41c0.98,0,1.47,0.48,1.47,1.45c0,0.13-0.51,2.23-1.52,6.28c-0.18,0.74-0.66,1.12-1.43,1.12
			c-0.98,0-1.47-0.49-1.47-1.47c0-0.67,0.51-2.76,1.52-6.26C191.7,335.78,192.17,335.41,192.92,335.41z"/>
		<path class="st2" d="M209.85,308.87c0.98,0,1.47,0.49,1.47,1.47c0,0.73-0.25,1.16-0.74,1.27c-2.19,0.55-4.1,1.86-5.74,3.93
			c-1.3,1.64-2.05,3.34-2.26,5.12h4.31c2.08,0,3.83,0.71,5.25,2.14s2.12,3.17,2.12,5.23v2.95c0,2.06-0.72,3.8-2.16,5.23
			c-1.44,1.43-3.18,2.14-5.22,2.14c-2.06,0-3.8-0.71-5.23-2.13c-1.43-1.42-2.14-3.15-2.14-5.19v-8.89c0-3.34,1.11-6.26,3.33-8.78
			c1.73-1.95,3.61-3.34,5.65-4.16C209.09,308.98,209.54,308.87,209.85,308.87z M202.48,323.61v7.37c0,1.24,0.43,2.28,1.28,3.14
			s1.9,1.28,3.14,1.28c1.24,0,2.28-0.43,3.14-1.3c0.86-0.86,1.28-1.91,1.28-3.13v-2.95c0-1.24-0.43-2.28-1.3-3.14
			c-0.86-0.86-1.91-1.28-3.13-1.28H202.48z"/>
		<path class="st2" d="M226.92,338.36c-2.04,0-3.78-0.72-5.22-2.16c-1.44-1.44-2.16-3.18-2.16-5.22v-2.95c0-2.44,0.98-4.41,2.95-5.9
			c-1.97-1.49-2.95-3.46-2.95-5.9c0-2.04,0.72-3.78,2.16-5.22c1.44-1.44,3.18-2.16,5.22-2.16c2.04,0,3.78,0.72,5.22,2.16
			c1.44,1.44,2.16,3.18,2.16,5.22c0,2.44-0.98,4.41-2.95,5.9c1.42,1.07,2.31,2.39,2.68,3.95c0.18,0.79,0.27,2.42,0.27,4.89
			c0,2.04-0.72,3.78-2.16,5.22C230.7,337.64,228.96,338.36,226.92,338.36z M226.92,320.67c1.24,0,2.28-0.43,3.14-1.29
			c0.86-0.86,1.28-1.9,1.28-3.14c0-1.22-0.43-2.26-1.3-3.13c-0.86-0.86-1.91-1.3-3.13-1.3c-1.24,0-2.28,0.43-3.14,1.29
			s-1.28,1.9-1.28,3.14s0.43,2.28,1.28,3.14C224.63,320.24,225.68,320.67,226.92,320.67z M226.92,335.41c1.24,0,2.28-0.43,3.14-1.28
			c0.86-0.86,1.28-1.9,1.28-3.14v-2.95c0-1.22-0.43-2.26-1.3-3.13c-0.86-0.86-1.91-1.3-3.13-1.3c-1.24,0-2.28,0.43-3.14,1.28
			s-1.28,1.9-1.28,3.14v2.95c0,1.24,0.43,2.28,1.28,3.14S225.68,335.41,226.92,335.41z"/>
	</g>
	<g>
		<path class="st2" d="M760.21,308.87c2.04,0,3.78,0.72,5.22,2.16c1.44,1.44,2.16,3.18,2.16,5.22c0,1.4-0.45,2.82-1.34,4.25
			l-9.29,14.92h9.16c0.98,0,1.47,0.49,1.47,1.47s-0.49,1.47-1.47,1.47h-11.8c-0.98,0-1.47-0.49-1.47-1.47c0-0.3,0.08-0.58,0.25-0.85
			l10.81-17.36c0.49-0.79,0.74-1.6,0.74-2.43c0-1.22-0.43-2.26-1.3-3.13c-0.86-0.86-1.91-1.3-3.13-1.3c-1.67,0-3.21,1.24-4.62,3.71
			c-0.27,0.48-0.69,0.71-1.27,0.71c-0.98,0-1.47-0.49-1.47-1.47c0-0.22,0.04-0.42,0.13-0.6
			C754.8,310.63,757.22,308.87,760.21,308.87z"/>
		<path class="st2" d="M775.25,335.41c0.98,0,1.47,0.48,1.47,1.45c0,0.13-0.51,2.23-1.52,6.28c-0.18,0.74-0.66,1.12-1.43,1.12
			c-0.98,0-1.47-0.49-1.47-1.47c0-0.67,0.51-2.76,1.52-6.26C774.03,335.78,774.51,335.41,775.25,335.41z"/>
		<path class="st2" d="M789.79,308.87c2.04,0,3.78,0.72,5.22,2.16c1.44,1.44,2.16,3.18,2.16,5.22c0,1.4-0.45,2.82-1.34,4.25
			l-9.29,14.92h9.16c0.98,0,1.47,0.49,1.47,1.47s-0.49,1.47-1.47,1.47h-11.8c-0.98,0-1.47-0.49-1.47-1.47c0-0.3,0.08-0.58,0.25-0.85
			l10.81-17.36c0.49-0.79,0.74-1.6,0.74-2.43c0-1.22-0.43-2.26-1.3-3.13c-0.86-0.86-1.91-1.3-3.13-1.3c-1.67,0-3.21,1.24-4.62,3.71
			c-0.27,0.48-0.69,0.71-1.27,0.71c-0.98,0-1.47-0.49-1.47-1.47c0-0.22,0.04-0.42,0.13-0.6
			C784.39,310.63,786.8,308.87,789.79,308.87z"/>
		<path class="st2" d="M810.19,325.09l-1.1,0c-0.98,0-1.48-0.49-1.48-1.47c0-0.98,0.49-1.47,1.47-1.47l1.74,0l2.32-10.32h-9.95
			c-0.98,0-1.48-0.49-1.48-1.47c0-0.98,0.49-1.47,1.47-1.47h11.8c0.97,0,1.46,0.48,1.47,1.43c0,0.09-0.02,0.21-0.04,0.36
			l-2.55,11.48l1.12,0c0.98,0,1.48,0.49,1.48,1.47c0,0.98-0.49,1.47-1.48,1.47l-1.79,0l-2.67,12.11c-0.18,0.78-0.65,1.16-1.41,1.16
			c-1,0-1.5-0.49-1.5-1.47c0-0.15,0.01-0.26,0.03-0.33L810.19,325.09z"/>
	</g>
</g>
<g id="Таблицы">
</g>
<g id="Этаж_x2C__секции">
</g>
</svg>
