<?xml version="1.0" encoding="utf-8"?>
<!-- Generator: Adobe Illustrator 27.3.1, SVG Export Plug-In . SVG Version: 6.00 Build 0)  -->
<svg version="1.1" xmlns="http://www.w3.org/2000/svg" xmlns:xlink="http://www.w3.org/1999/xlink" x="0px" y="0px"
	 viewBox="0 0 1001.22 1000" style="enable-background:new 0 0 1001.22 1000;" xml:space="preserve">
<style type="text/css">
	.st0{fill:none;stroke:#50545E;stroke-width:1.2201;stroke-linecap:round;stroke-linejoin:round;stroke-miterlimit:10;}
	.st1{fill:#FFFFFF;}
	.st2{fill:#50545E;}
	.st3{fill:none;stroke:#50545E;stroke-width:1.2201;stroke-linecap:round;stroke-linejoin:round;}
	
		.st4{fill:none;stroke:#50545E;stroke-width:1.2201;stroke-linecap:round;stroke-linejoin:round;stroke-dasharray:9.6299,9.6299,9.6299,9.6299;}
	
		.st5{fill:none;stroke:#50545E;stroke-width:1.2201;stroke-linecap:round;stroke-linejoin:round;stroke-dasharray:16.9367,16.9367,16.9367,16.9367;}
	
		.st6{fill:none;stroke:#50545E;stroke-width:1.2201;stroke-linecap:round;stroke-linejoin:round;stroke-dasharray:19.4654,19.4654,19.4654,19.4654;}
	
		.st7{fill:none;stroke:#50545E;stroke-width:1.2201;stroke-linecap:round;stroke-linejoin:round;stroke-dasharray:19.4654,19.4654,19.4654,19.4654,19.4654,19.4654;}
	.st8{opacity:0.8;fill:none;stroke:#50545E;stroke-width:0.6101;stroke-linecap:round;stroke-linejoin:round;stroke-miterlimit:10;}
	.st9{fill:#50545E;stroke:#50545E;stroke-width:2.4403;stroke-linecap:round;stroke-linejoin:round;stroke-miterlimit:10;}
</style>
<g id="Слой_1">
</g>
<g id="Окна_x2C__двери">
	<g>
		<path class="st0" d="M246.96,391.96v86.64c5.92,0,36.17-0.6,60.83-24.89c25.26-24.88,25.81-56.06,25.81-61.75"/>
		<path class="st0" d="M486,495.3v-99.17c6.77,0,41.4,0.68,69.63,28.48c28.91,28.48,29.54,64.16,29.54,70.68"/>
		<path class="st0" d="M111.26,413.88H0.61c0,7.56,0.76,46.2,31.78,77.69c31.77,32.25,71.59,32.96,78.87,32.96"/>
		<g>
			<rect x="903.53" y="557.93" class="st0" width="8.35" height="234.86"/>
			<rect x="872.22" y="557.93" class="st0" width="54.28" height="234.86"/>
		</g>
		<g>
			<rect x="903.53" y="189.46" class="st0" width="8.35" height="234.86"/>
			<rect x="872.22" y="189.46" class="st0" width="54.28" height="234.86"/>
		</g>
		<g>
			<rect x="930.67" y="568.37" class="st0" width="65.76" height="213.99"/>
			<rect x="926.5" y="564.2" class="st0" width="74.11" height="222.34"/>
		</g>
	</g>
</g>
<g id="Шахты">
	<g>
		<g>
			<rect x="126.79" y="713.49" class="st1" width="36.8" height="67.83"/>
			<rect x="126.79" y="787.58" class="st1" width="36.8" height="12.52"/>
			<rect x="120.65" y="707.22" class="st1" width="49.06" height="99.14"/>
		</g>
		<g>
			<rect x="126.79" y="713.49" class="st0" width="36.8" height="67.83"/>
			<rect x="126.79" y="787.58" class="st0" width="36.8" height="12.52"/>
			<rect x="120.65" y="707.22" class="st0" width="49.06" height="99.14"/>
		</g>
	</g>
	<g>
		<g>
			<rect x="127.05" y="316.29" class="st1" width="38.36" height="69.28"/>
			<rect x="127.05" y="297.1" class="st1" width="38.36" height="12.79"/>
			<rect x="120.65" y="290.71" class="st1" width="51.15" height="101.25"/>
		</g>
		<g>
			<rect x="127.05" y="316.29" class="st0" width="38.36" height="69.28"/>
			<rect x="127.05" y="297.1" class="st0" width="38.36" height="12.79"/>
			<rect x="120.65" y="290.71" class="st0" width="51.15" height="101.25"/>
		</g>
	</g>
</g>
<g id="Перегородки">
	<rect x="591.42" y="495.3" class="st2" width="280.79" height="10.44"/>
	<polygon class="st2" points="120.65,612.21 120.65,530.79 95.6,530.79 95.6,858.56 120.65,858.56 120.65,806.37 162.41,806.37 
		162.41,858.56 169.71,858.56 169.71,806.37 120.65,806.37 120.65,622.65 316.89,622.65 316.89,612.21 316.89,612.21 	"/>
	<polygon class="st2" points="711.47,142.48 711.47,118.48 320.03,118.48 320.03,142.48 455.73,142.48 455.73,162.32 182.24,162.32 
		182.24,286.53 171.8,286.53 171.8,118.48 147.79,118.48 147.79,265.66 95.6,265.66 95.6,407.62 120.65,407.62 120.65,290.71 
		186.42,290.71 186.41,167.54 455.73,167.54 455.73,381.52 339.86,381.52 339.86,391.96 455.73,391.96 455.73,495.3 386.83,495.3 
		386.83,505.74 479.73,505.74 479.73,495.3 468.25,495.3 468.25,142.48 	"/>
	<rect x="171.8" y="381.52" class="st2" width="68.89" height="10.44"/>
</g>
<g id="Пунктир">
	<g>
		<g>
			<line class="st3" x1="386.83" y1="505.74" x2="375.94" y2="505.74"/>
			<line class="st4" x1="366.31" y1="505.74" x2="332.6" y2="505.74"/>
			<polyline class="st3" points="327.79,505.74 316.89,505.74 316.89,516.63 			"/>
			<line class="st5" x1="316.89" y1="533.57" x2="316.89" y2="592.85"/>
			<line class="st3" x1="316.89" y1="601.32" x2="316.89" y2="612.21"/>
		</g>
	</g>
	<g>
		<g>
			<line class="st3" x1="316.89" y1="858.56" x2="316.89" y2="847.66"/>
			<line class="st6" x1="316.89" y1="828.2" x2="316.89" y2="760.07"/>
			<line class="st7" x1="316.89" y1="750.34" x2="316.89" y2="643.28"/>
			<line class="st3" x1="316.89" y1="633.55" x2="316.89" y2="622.65"/>
		</g>
	</g>
</g>
<g id="Сантехника">
	<g>
		
			<rect x="199.98" y="784.44" transform="matrix(-1 -6.143592e-07 6.143592e-07 -1 474.0829 1643.0023)" class="st8" width="74.11" height="74.11"/>
		<circle class="st8" cx="236.99" cy="828.31" r="5.56"/>
		<circle class="st8" cx="236.99" cy="847.44" r="2.16"/>
		<circle class="st8" cx="215.5" cy="847.44" r="2.16"/>
		<path class="st8" d="M206.78,790.62l60.53,0c0.34,0,0.62,0.28,0.62,0.62l0,60.53c0,0.34-0.28,0.62-0.62,0.62l-60.53,0
			c-0.34,0-0.62-0.28-0.62-0.62l0-60.53C206.16,790.9,206.44,790.62,206.78,790.62z"/>
		<path class="st8" d="M209.84,793.71l54.35,0c0.34,0,0.62,0.28,0.62,0.62l0,48.17c0,0.34-0.28,0.62-0.62,0.62h-54.35
			c-0.34,0-0.62-0.28-0.62-0.62l0-48.17C209.22,793.99,209.5,793.71,209.84,793.71z"/>
	</g>
	<g>
		<g>
			<line class="st8" x1="412.1" y1="178.15" x2="403.08" y2="178.15"/>
			<path class="st8" d="M399.09,178.15l-18.64,0c-2.54,0-4.6,2.23-4.6,4.97l0,144.21c0,9.84,3.39,19.34,9.52,26.62
				c14.54,17.29,39.71,17.29,54.25,0c6.13-7.29,9.53-16.79,9.53-26.62l0-144.21c0-2.74-2.07-4.97-4.61-4.97l-21.82,0"/>
			<rect x="369.26" y="167.54" class="st8" width="86.47" height="209.99"/>
			<path class="st8" d="M412.49,210.33c-2.44,0-4.42-1.98-4.42-4.42c0-2.44,1.98-4.42,4.42-4.42c2.44,0,4.43,1.98,4.43,4.42
				C416.92,208.36,414.93,210.33,412.49,210.33z"/>
			<path class="st8" d="M403.08,167.54h-4v6.51v0.44l0,10.29c0,0,0.07,2.12,2,2.12c1.92,0,2-2.12,2-2.12v-10.29v-0.44v-2.4"/>
			<path class="st8" d="M419.69,173.14l0.11-1.3c0.17-2.06-1.38-4-3.65-4.27c-0.15-0.02-0.3-0.03-0.46-0.03
				c-0.15,0-0.31,0.01-0.46,0.03c-2.27,0.27-3.81,2.21-3.65,4.27l1.84,22.33c0,0.71,0.64,1.29,1.42,1.29h1.68
				c0.79,0,1.42-0.58,1.42-1.29l0.94-11.31"/>
			<path class="st8" d="M423.09,183.58l-0.65,0.4c-1.17,0.7-2.69,0.32-3.39-0.85l-5.4-8.96c-0.7-1.16-0.32-2.69,0.84-3.39l0.67-0.39
				c1.15-0.7,2.68-0.32,3.39,0.84l5.39,8.96C424.63,181.36,424.26,182.88,423.09,183.58z"/>
			<path class="st8" d="M419.57,172.95c3.15-0.17,7.24-0.49,8.34-1.05c1.53-0.78,0.85-2.95,0.85-2.95v-1.39l-26.15,0v1.39
				c0,0-0.67,2.17,0.85,2.95c1.08,0.55,5.07,0.87,8.21,1.04"/>
			<path class="st8" d="M397.36,178.15c-2.33,1.31-3.91,3.8-3.91,6.67c0,4.22,3.42,7.64,7.63,7.64c4.22,0,7.63-3.42,7.63-7.64
				c0-2.86-1.58-5.36-3.91-6.67"/>
		</g>
		<g>
			<path class="st8" d="M217.73,167.54v12.14v1.24c0,3.41,2.8,6.21,6.23,6.21h32.02c3.42,0,6.23-2.79,6.23-6.21v-1.24v-12.14H217.73
				z"/>
			<ellipse class="st8" cx="239.96" cy="182.5" rx="1.68" ry="1.67"/>
			<line class="st8" x1="237.03" y1="182.5" x2="238.29" y2="182.5"/>
			<line class="st8" x1="241.64" y1="182.5" x2="242.9" y2="182.5"/>
			<line class="st8" x1="239.96" y1="185.43" x2="239.96" y2="184.18"/>
			<line class="st8" x1="239.96" y1="180.83" x2="239.96" y2="179.58"/>
			<line class="st8" x1="228.47" y1="194.23" x2="229.3" y2="194.23"/>
			<line class="st8" x1="231.53" y1="194.23" x2="232.36" y2="194.23"/>
			<line class="st8" x1="230.41" y1="196.17" x2="230.41" y2="195.34"/>
			<line class="st8" x1="230.41" y1="193.11" x2="230.41" y2="192.28"/>
			<ellipse class="st8" cx="230.41" cy="194.23" rx="1.11" ry="1.11"/>
			<ellipse class="st8" cx="249.51" cy="194.23" rx="1.11" ry="1.11"/>
			<line class="st8" x1="247.57" y1="194.23" x2="248.4" y2="194.23"/>
			<line class="st8" x1="250.63" y1="194.23" x2="251.46" y2="194.23"/>
			<line class="st8" x1="249.51" y1="196.17" x2="249.51" y2="195.34"/>
			<line class="st8" x1="249.51" y1="193.11" x2="249.51" y2="192.28"/>
			<path class="st8" d="M261.53,214.56c-0.06-0.86-0.13-1.57-0.18-2.03c-1.61-8.47-3.22-16.95-4.83-25.42
				c-5.52,0-11.03,0-16.55,0.01c-5.52,0-11.03,0-16.55-0.01c-1.61,8.47-3.22,16.95-4.83,25.42c-0.05,0.46-0.12,1.17-0.18,2.03
				c-0.36,5.08-0.96,13.64,3.51,21.36c0.72,1.25,2.2,3.75,5.03,6.15c1.69,1.44,6.2,5.14,12.86,5.14c0.06,0,0.11,0,0.16-0.01
				c0.05,0,0.11,0.01,0.16,0.01c6.66,0,11.17-3.7,12.86-5.14c2.83-2.4,4.31-4.91,5.03-6.15
				C262.49,228.2,261.89,219.64,261.53,214.56z"/>
			<path class="st8" d="M257.3,215.68c-0.36-2.5-0.81-5.29-2.87-8.16c-2.54-3.54-5.95-4.97-7.06-5.43
				c-3.03-1.23-5.61-1.23-7.41-1.23c-1.8,0-4.38,0-7.41,1.23c-1.11,0.45-4.52,1.89-7.06,5.43c-2.06,2.87-2.5,5.66-2.87,8.16
				c-0.47,3.18-1.68,11.5,3.44,18.99c1.28,1.86,4.01,5.8,9.26,7.43c1.09,0.34,4.85,1.37,9.27,0c5.25-1.63,7.98-5.56,9.26-7.43
				C258.98,227.18,257.76,218.86,257.3,215.68z"/>
			<path class="st8" d="M250.84,209.13c-4.11-3.84-9.47-3.83-10.88-3.82c-1.41-0.01-6.77-0.02-10.88,3.82
				c-3.64,3.4-4.43,8.07-4.4,11.77c-0.04,2.56,0.33,4.64,0.48,5.47c0.36,2.02,1.25,6,4.38,9.51c1.27,1.42,4.87,5.45,10.39,5.46
				c5.56,0.01,9.2-4.06,10.45-5.46c3.13-3.5,4.02-7.48,4.38-9.51c0.15-0.82,0.52-2.9,0.48-5.47
				C255.27,217.2,254.48,212.53,250.84,209.13z"/>
			<path class="st8" d="M245.4,209.5c-0.59-1.23-1.66-1.8-2.05-1.98c-2.26,0-4.52,0-6.78,0c-0.39,0.18-1.47,0.75-2.05,1.98
				c-0.48,1.02-0.38,1.95-0.29,2.61c0.29,2.23,1.69,3.74,2.34,4.35c2.26,0,4.52,0,6.78,0c0.64-0.59,2.01-2.04,2.33-4.22
				C245.78,211.54,245.91,210.56,245.4,209.5z"/>
		</g>
		<g>
			<path class="st8" d="M329.37,189.98c0,1.43-1.17,2.59-2.6,2.59c-1.43,0-2.6-1.16-2.6-2.59c0-1.44,1.16-2.6,2.6-2.6
				C328.2,187.38,329.37,188.54,329.37,189.98z"/>
			<path class="st8" d="M330.89,189.98c0,2.27-1.85,4.11-4.13,4.11c-2.27,0-4.12-1.84-4.12-4.11c0-2.28,1.84-4.11,4.12-4.11
				C329.04,185.87,330.89,187.71,330.89,189.98z"/>
			<path class="st8" d="M360.74,167.54h-0.01h-67.91h-0.01c0,9.43,0,18.86,0,28.29c0,0.06,0,0.14,0.01,0.21
				c-0.06,2.88,0.17,10.57,5.23,16.8c4.24,5.23,9.69,6.74,13.95,7.92c1.22,0.34,2.13,0.47,3.93,0.75c8.52,1.37,15.93,0.93,21.71,0
				c1.8-0.29,2.71-0.42,3.93-0.75c4.26-1.18,9.71-2.69,13.95-7.92c5.06-6.23,5.29-13.92,5.23-16.8c0-0.07,0.01-0.14,0.01-0.21
				C360.74,186.4,360.74,176.97,360.74,167.54z"/>
			<path class="st8" d="M353.2,199.63c-0.03-1.66-0.07-3.54-0.69-5.87c-0.2-0.76-0.91-3.44-2.34-5.41c-2.61-3.6-7.1-3.93-14.66-4.86
				c-3.6-0.45-6.56-0.44-8.75-0.43c0,0,0,0,0,0c0,0,0,0,0,0c-2.19-0.01-5.15-0.02-8.75,0.43c-7.55,0.93-12.04,1.26-14.66,4.86
				c-1.4,1.93-2.1,4.52-2.31,5.29c-0.64,2.37-0.69,4.29-0.72,5.99c-0.05,3.33-0.09,5.3,0.75,7.48c1.48,3.86,4.69,5.74,6.35,6.71
				c2.11,1.23,4.43,1.66,9.07,2.5c0,0,5.06,0.92,10.26,0.92c0,0,0,0,0,0c0,0,0,0,0,0c5.19,0,10.26-0.92,10.26-0.92
				c4.61-0.84,6.91-1.26,8.98-2.45c1.68-0.97,4.95-2.86,6.44-6.76C353.29,204.93,353.26,202.94,353.2,199.63z"/>
			<line class="st8" x1="321.36" y1="189.98" x2="332.17" y2="189.98"/>
			<line class="st8" x1="326.77" y1="195.38" x2="326.77" y2="184.57"/>
			<path class="st8" d="M328.94,175.01c0,1.2-0.98,2.18-2.18,2.18c-1.2,0-2.17-0.97-2.17-2.18c0-1.2,0.97-2.18,2.17-2.18
				C327.97,172.84,328.94,173.81,328.94,175.01z"/>
			<line class="st8" x1="323.29" y1="175.01" x2="330.25" y2="175.01"/>
			<line class="st8" x1="326.77" y1="178.49" x2="326.77" y2="171.53"/>
		</g>
	</g>
</g>
<g id="Несущие">
	<g>
		<polygon class="st9" points="911.88,419.1 911.88,424.32 872.22,424.32 872.22,557.93 911.88,557.93 911.88,562.11 926.5,562.11 
			926.5,419.1 		"/>
		<polygon class="st9" points="95.6,881.52 95.6,858.56 872.22,858.56 872.22,792.8 911.88,792.8 911.88,787.58 926.5,787.58 
			926.5,881.52 		"/>
		<rect x="171.8" y="118.48" class="st9" width="148.23" height="24.01"/>
		<polygon class="st9" points="926.5,118.48 711.47,118.48 711.47,142.48 872.22,142.48 872.22,189.46 911.88,189.46 911.88,193.63 
			926.5,193.63 		"/>
	</g>
</g>
<g id="Лифты_x2C__лестницы">
</g>
<g id="Слой_12">
</g>
<g id="Площади">
	<g>
		<path class="st2" d="M790.15,344.46c-0.39,0-0.73-0.15-1.03-0.45c-0.3-0.3-0.45-0.64-0.45-1.03c0-0.68,0.25-1.11,0.74-1.27
			c1.07-0.36,1.97-0.77,2.68-1.23c3.17-2.06,4.94-4.66,5.32-7.82h-4.31c-2.04,0-3.78-0.72-5.22-2.16c-1.44-1.44-2.16-3.18-2.16-5.22
			v-2.95c0-2.04,0.72-3.78,2.16-5.22c1.44-1.44,3.18-2.16,5.22-2.16c2.06,0,3.8,0.71,5.23,2.13c1.43,1.42,2.14,3.15,2.14,5.19v8.89
			c0,5-2.33,8.96-6.99,11.86C791.97,343.99,790.86,344.46,790.15,344.46z M797.52,329.71v-7.37c0-1.22-0.43-2.26-1.3-3.13
			c-0.86-0.86-1.91-1.3-3.13-1.3c-1.22,0-2.26,0.43-3.13,1.3c-0.86,0.86-1.3,1.91-1.3,3.13v2.95c0,1.24,0.43,2.28,1.28,3.14
			c0.86,0.86,1.9,1.29,3.14,1.29H797.52z"/>
		<path class="st2" d="M806.47,341.51c0.98,0,1.47,0.48,1.47,1.45c0,0.13-0.51,2.23-1.52,6.28c-0.18,0.74-0.66,1.12-1.43,1.12
			c-0.98,0-1.47-0.49-1.47-1.47c0-0.67,0.51-2.76,1.52-6.26C805.25,341.88,805.72,341.51,806.47,341.51z"/>
		<path class="st2" d="M821.01,329.71h-2.95c-0.98,0-1.47-0.49-1.47-1.47c0-0.98,0.49-1.47,1.47-1.47h2.95
			c1.24,0,2.28-0.43,3.14-1.29c0.86-0.86,1.28-1.9,1.28-3.14c0-1.22-0.43-2.26-1.3-3.13c-0.86-0.86-1.91-1.3-3.13-1.3h-5.9
			c-0.98,0-1.47-0.49-1.47-1.47c0-0.98,0.49-1.47,1.47-1.47h5.9c2.04,0,3.78,0.72,5.22,2.17c1.44,1.44,2.16,3.18,2.16,5.21
			c0,2.44-0.98,4.41-2.95,5.9c1.97,1.49,2.95,3.46,2.95,5.9v2.95c0,2.04-0.72,3.78-2.17,5.22c-1.44,1.44-3.18,2.16-5.21,2.16h-5.9
			c-0.98,0-1.47-0.49-1.47-1.47s0.49-1.47,1.47-1.47h5.9c1.24,0,2.28-0.43,3.14-1.28c0.86-0.86,1.28-1.9,1.28-3.14v-2.95
			c0-1.22-0.43-2.26-1.3-3.13C823.28,330.14,822.23,329.71,821.01,329.71z"/>
		<path class="st2" d="M841.38,331.19l-1.1,0c-0.98,0-1.48-0.49-1.48-1.47c0-0.98,0.49-1.47,1.47-1.47l1.74,0l2.32-10.32h-9.95
			c-0.98,0-1.48-0.49-1.48-1.47c0-0.98,0.49-1.47,1.47-1.47h11.8c0.97,0,1.46,0.48,1.47,1.43c0,0.09-0.02,0.21-0.04,0.36
			l-2.55,11.48l1.12,0c0.98,0,1.48,0.49,1.48,1.47c0,0.98-0.49,1.47-1.48,1.47l-1.79,0l-2.67,12.11c-0.18,0.78-0.65,1.16-1.41,1.16
			c-1,0-1.5-0.49-1.5-1.47c0-0.15,0.01-0.26,0.03-0.33L841.38,331.19z"/>
	</g>
	<g>
		<path class="st2" d="M777.32,664.06l-3.39,3.39c-0.28,0.28-0.63,0.42-1.03,0.42c-0.99,0-1.48-0.49-1.48-1.47
			c0-0.4,0.14-0.74,0.42-1.03l5.76-5.76c0.39-0.39,0.78-0.58,1.18-0.58c0.98,0,1.47,0.49,1.47,1.47v26.54
			c0,0.98-0.49,1.47-1.47,1.47s-1.47-0.49-1.47-1.47V664.06z"/>
		<path class="st2" d="M792.23,659.02c2.04,0,3.78,0.72,5.22,2.16c1.44,1.44,2.16,3.18,2.16,5.22c0,1.4-0.45,2.82-1.34,4.25
			l-9.29,14.92h9.16c0.98,0,1.47,0.49,1.47,1.47s-0.49,1.47-1.47,1.47h-11.8c-0.98,0-1.47-0.49-1.47-1.47c0-0.3,0.08-0.58,0.25-0.85
			l10.81-17.36c0.49-0.79,0.74-1.6,0.74-2.43c0-1.22-0.43-2.26-1.3-3.13c-0.86-0.86-1.91-1.3-3.13-1.3c-1.67,0-3.21,1.24-4.62,3.71
			c-0.27,0.48-0.69,0.71-1.27,0.71c-0.98,0-1.47-0.49-1.47-1.47c0-0.22,0.04-0.42,0.13-0.6
			C786.82,660.79,789.23,659.02,792.23,659.02z"/>
		<path class="st2" d="M807.26,685.56c0.98,0,1.47,0.48,1.47,1.45c0,0.13-0.51,2.23-1.52,6.28c-0.18,0.74-0.66,1.12-1.43,1.12
			c-0.98,0-1.47-0.49-1.47-1.47c0-0.67,0.51-2.76,1.52-6.26C806.04,685.94,806.52,685.56,807.26,685.56z"/>
		<path class="st2" d="M817.31,688.51c-0.39,0-0.73-0.15-1.03-0.45c-0.3-0.3-0.45-0.64-0.45-1.03c0-0.68,0.25-1.11,0.74-1.27
			c1.07-0.36,1.97-0.77,2.68-1.23c3.17-2.06,4.94-4.66,5.32-7.82h-4.31c-2.04,0-3.78-0.72-5.22-2.16c-1.44-1.44-2.16-3.18-2.16-5.22
			v-2.95c0-2.04,0.72-3.78,2.16-5.22c1.44-1.44,3.18-2.16,5.22-2.16c2.06,0,3.8,0.71,5.23,2.13c1.43,1.42,2.14,3.15,2.14,5.19v8.89
			c0,5-2.33,8.96-6.99,11.86C819.14,688.04,818.03,688.51,817.31,688.51z M824.69,673.77v-7.37c0-1.22-0.43-2.26-1.3-3.13
			c-0.86-0.86-1.91-1.3-3.13-1.3c-1.22,0-2.26,0.43-3.13,1.3c-0.86,0.86-1.3,1.91-1.3,3.13v2.95c0,1.24,0.43,2.28,1.28,3.14
			c0.86,0.86,1.9,1.29,3.14,1.29H824.69z"/>
		<path class="st2" d="M847.65,673.77c0,3.51-0.43,6.55-1.3,9.12c-1.27,3.75-3.29,5.63-6.08,5.63s-4.81-1.87-6.08-5.61
			c-0.86-2.56-1.3-5.61-1.3-9.14c0-3.53,0.43-6.58,1.3-9.14c1.27-3.74,3.29-5.61,6.08-5.61s4.81,1.88,6.08,5.63
			C847.22,667.21,847.65,670.25,847.65,673.77z M844.7,673.77c0-2.44-0.26-4.74-0.78-6.9c-0.79-3.26-2-4.89-3.64-4.89
			c-1.62,0-2.83,1.64-3.62,4.92c-0.54,2.21-0.8,4.5-0.8,6.88c0,2.43,0.26,4.73,0.78,6.9c0.79,3.26,2,4.89,3.64,4.89
			c1.64,0,2.85-1.63,3.64-4.89C844.44,678.49,844.7,676.19,844.7,673.77z"/>
	</g>
	<g>
		<path class="st2" d="M258.22,329.71h-2.95c-0.98,0-1.47-0.49-1.47-1.47c0-0.98,0.49-1.47,1.47-1.47h2.95
			c1.24,0,2.28-0.43,3.14-1.29c0.86-0.86,1.28-1.9,1.28-3.14c0-1.22-0.43-2.26-1.3-3.13c-0.86-0.86-1.91-1.3-3.13-1.3h-5.9
			c-0.98,0-1.47-0.49-1.47-1.47c0-0.98,0.49-1.47,1.47-1.47h5.9c2.04,0,3.78,0.72,5.22,2.17c1.44,1.44,2.16,3.18,2.16,5.21
			c0,2.44-0.98,4.41-2.95,5.9c1.97,1.49,2.95,3.46,2.95,5.9v2.95c0,2.04-0.72,3.78-2.17,5.22c-1.44,1.44-3.18,2.16-5.21,2.16h-5.9
			c-0.98,0-1.47-0.49-1.47-1.47s0.49-1.47,1.47-1.47h5.9c1.24,0,2.28-0.43,3.14-1.28c0.86-0.86,1.28-1.9,1.28-3.14v-2.95
			c0-1.22-0.43-2.26-1.3-3.13C260.49,330.14,259.45,329.71,258.22,329.71z"/>
		<path class="st2" d="M272.74,341.51c0.98,0,1.47,0.48,1.47,1.45c0,0.13-0.51,2.23-1.52,6.28c-0.18,0.74-0.66,1.12-1.43,1.12
			c-0.98,0-1.47-0.49-1.47-1.47c0-0.67,0.51-2.76,1.52-6.26C271.52,341.88,271.99,341.51,272.74,341.51z"/>
		<path class="st2" d="M286.58,344.46c-2.04,0-3.78-0.72-5.22-2.16c-1.44-1.44-2.16-3.18-2.16-5.22v-2.95c0-2.44,0.98-4.41,2.95-5.9
			c-1.97-1.49-2.95-3.46-2.95-5.9c0-2.04,0.72-3.78,2.16-5.22c1.44-1.44,3.18-2.16,5.22-2.16c2.04,0,3.78,0.72,5.22,2.16
			c1.44,1.44,2.16,3.18,2.16,5.22c0,2.44-0.98,4.41-2.95,5.9c1.42,1.07,2.31,2.39,2.68,3.95c0.18,0.79,0.27,2.42,0.27,4.89
			c0,2.04-0.72,3.78-2.16,5.22C290.36,343.74,288.62,344.46,286.58,344.46z M286.58,326.76c1.24,0,2.28-0.43,3.14-1.29
			c0.86-0.86,1.28-1.9,1.28-3.14c0-1.22-0.43-2.26-1.3-3.13c-0.86-0.86-1.91-1.3-3.13-1.3c-1.24,0-2.28,0.43-3.14,1.29
			s-1.28,1.9-1.28,3.14s0.43,2.28,1.28,3.14C284.3,326.33,285.35,326.76,286.58,326.76z M286.58,341.51c1.24,0,2.28-0.43,3.14-1.28
			c0.86-0.86,1.28-1.9,1.28-3.14v-2.95c0-1.22-0.43-2.26-1.3-3.13c-0.86-0.86-1.91-1.3-3.13-1.3c-1.24,0-2.28,0.43-3.14,1.28
			s-1.28,1.9-1.28,3.14v2.95c0,1.24,0.43,2.28,1.28,3.14S285.35,341.51,286.58,341.51z"/>
		<path class="st2" d="M306.87,344.46c-2.04,0-3.78-0.72-5.22-2.16c-1.44-1.44-2.16-3.18-2.16-5.22v-2.95c0-2.44,0.98-4.41,2.95-5.9
			c-1.97-1.49-2.95-3.46-2.95-5.9c0-2.04,0.72-3.78,2.16-5.22c1.44-1.44,3.18-2.16,5.22-2.16c2.04,0,3.78,0.72,5.22,2.16
			c1.44,1.44,2.16,3.18,2.16,5.22c0,2.44-0.98,4.41-2.95,5.9c1.42,1.07,2.31,2.39,2.68,3.95c0.18,0.79,0.27,2.42,0.27,4.89
			c0,2.04-0.72,3.78-2.16,5.22C310.65,343.74,308.91,344.46,306.87,344.46z M306.87,326.76c1.24,0,2.28-0.43,3.14-1.29
			c0.86-0.86,1.28-1.9,1.28-3.14c0-1.22-0.43-2.26-1.3-3.13c-0.86-0.86-1.91-1.3-3.13-1.3c-1.24,0-2.28,0.43-3.14,1.29
			s-1.28,1.9-1.28,3.14s0.43,2.28,1.28,3.14C304.59,326.33,305.64,326.76,306.87,326.76z M306.87,341.51c1.24,0,2.28-0.43,3.14-1.28
			c0.86-0.86,1.28-1.9,1.28-3.14v-2.95c0-1.22-0.43-2.26-1.3-3.13c-0.86-0.86-1.91-1.3-3.13-1.3c-1.24,0-2.28,0.43-3.14,1.28
			s-1.28,1.9-1.28,3.14v2.95c0,1.24,0.43,2.28,1.28,3.14S305.64,341.51,306.87,341.51z"/>
	</g>
	<g>
		<path class="st2" d="M192.35,544.68h-2.95c-0.98,0-1.47-0.49-1.47-1.47c0-0.98,0.49-1.47,1.47-1.47h2.95
			c1.24,0,2.28-0.43,3.14-1.29c0.86-0.86,1.28-1.9,1.28-3.14c0-1.22-0.43-2.26-1.3-3.13c-0.86-0.86-1.91-1.3-3.13-1.3h-5.9
			c-0.98,0-1.47-0.49-1.47-1.47c0-0.98,0.49-1.47,1.47-1.47h5.9c2.04,0,3.78,0.72,5.22,2.17c1.44,1.44,2.16,3.18,2.16,5.21
			c0,2.44-0.98,4.41-2.95,5.9c1.97,1.49,2.95,3.46,2.95,5.9v2.95c0,2.04-0.72,3.78-2.17,5.22c-1.44,1.44-3.18,2.16-5.21,2.16h-5.9
			c-0.98,0-1.47-0.49-1.47-1.47s0.49-1.47,1.47-1.47h5.9c1.24,0,2.28-0.43,3.14-1.28c0.86-0.86,1.28-1.9,1.28-3.14v-2.95
			c0-1.22-0.43-2.26-1.3-3.13C194.61,545.11,193.57,544.68,192.35,544.68z"/>
		<path class="st2" d="M206.59,556.48c0.98,0,1.47,0.48,1.47,1.45c0,0.13-0.51,2.23-1.52,6.28c-0.18,0.74-0.66,1.12-1.43,1.12
			c-0.98,0-1.47-0.49-1.47-1.47c0-0.67,0.51-2.76,1.52-6.26C205.36,556.85,205.84,556.48,206.59,556.48z"/>
		<path class="st2" d="M220.57,559.43c-2.04,0-3.78-0.72-5.22-2.16c-1.44-1.44-2.16-3.18-2.16-5.22v-2.95c0-2.44,0.98-4.41,2.95-5.9
			c-1.97-1.49-2.95-3.46-2.95-5.9c0-2.04,0.72-3.78,2.16-5.22c1.44-1.44,3.18-2.16,5.22-2.16c2.04,0,3.78,0.72,5.22,2.16
			c1.44,1.44,2.16,3.18,2.16,5.22c0,2.44-0.98,4.41-2.95,5.9c1.42,1.07,2.31,2.39,2.68,3.95c0.18,0.79,0.27,2.42,0.27,4.89
			c0,2.04-0.72,3.78-2.16,5.22C224.35,558.71,222.61,559.43,220.57,559.43z M220.57,541.73c1.24,0,2.28-0.43,3.14-1.29
			c0.86-0.86,1.28-1.9,1.28-3.14c0-1.22-0.43-2.26-1.3-3.13c-0.86-0.86-1.91-1.3-3.13-1.3c-1.24,0-2.28,0.43-3.14,1.29
			s-1.28,1.9-1.28,3.14s0.43,2.28,1.28,3.14C218.28,541.3,219.33,541.73,220.57,541.73z M220.57,556.48c1.24,0,2.28-0.43,3.14-1.28
			c0.86-0.86,1.28-1.9,1.28-3.14v-2.95c0-1.22-0.43-2.26-1.3-3.13c-0.86-0.86-1.91-1.3-3.13-1.3c-1.24,0-2.28,0.43-3.14,1.28
			s-1.28,1.9-1.28,3.14v2.95c0,1.24,0.43,2.28,1.28,3.14S219.33,556.48,220.57,556.48z"/>
		<path class="st2" d="M239.86,544.68h-2.95c-0.98,0-1.47-0.49-1.47-1.47c0-0.98,0.49-1.47,1.47-1.47h2.95
			c1.24,0,2.28-0.43,3.14-1.29c0.86-0.86,1.28-1.9,1.28-3.14c0-1.22-0.43-2.26-1.3-3.13c-0.86-0.86-1.91-1.3-3.13-1.3h-5.9
			c-0.98,0-1.47-0.49-1.47-1.47c0-0.98,0.49-1.47,1.47-1.47h5.9c2.04,0,3.78,0.72,5.22,2.17c1.44,1.44,2.16,3.18,2.16,5.21
			c0,2.44-0.98,4.41-2.95,5.9c1.97,1.49,2.95,3.46,2.95,5.9v2.95c0,2.04-0.72,3.78-2.17,5.22c-1.44,1.44-3.18,2.16-5.21,2.16h-5.9
			c-0.98,0-1.47-0.49-1.47-1.47s0.49-1.47,1.47-1.47h5.9c1.24,0,2.28-0.43,3.14-1.28c0.86-0.86,1.28-1.9,1.28-3.14v-2.95
			c0-1.22-0.43-2.26-1.3-3.13C242.12,545.11,241.08,544.68,239.86,544.68z"/>
	</g>
	<g>
		<path class="st2" d="M190.26,659.02c2.04,0,3.78,0.72,5.22,2.16c1.44,1.44,2.16,3.18,2.16,5.22c0,1.4-0.45,2.82-1.34,4.25
			L187,685.56h9.16c0.98,0,1.47,0.49,1.47,1.47s-0.49,1.47-1.47,1.47h-11.8c-0.98,0-1.47-0.49-1.47-1.47c0-0.3,0.08-0.58,0.25-0.85
			l10.81-17.36c0.49-0.79,0.74-1.6,0.74-2.43c0-1.22-0.43-2.26-1.3-3.13c-0.86-0.86-1.91-1.3-3.13-1.3c-1.67,0-3.21,1.24-4.62,3.71
			c-0.27,0.48-0.69,0.71-1.27,0.71c-0.98,0-1.47-0.49-1.47-1.47c0-0.22,0.04-0.42,0.13-0.6
			C184.85,660.79,187.27,659.02,190.26,659.02z"/>
		<path class="st2" d="M205.3,685.56c0.98,0,1.47,0.48,1.47,1.45c0,0.13-0.51,2.23-1.52,6.28c-0.18,0.74-0.66,1.12-1.43,1.12
			c-0.98,0-1.47-0.49-1.47-1.47c0-0.67,0.51-2.76,1.52-6.26C204.08,685.94,204.56,685.56,205.3,685.56z"/>
		<path class="st2" d="M212.47,672.29v-11.8c0-0.98,0.49-1.47,1.47-1.47h10.32c0.98,0,1.47,0.49,1.47,1.47
			c0,0.98-0.49,1.47-1.47,1.47h-8.85v8.85h4.42c2.04,0,3.78,0.72,5.22,2.17c1.44,1.45,2.16,3.18,2.16,5.21v2.95
			c0,2.04-0.72,3.78-2.17,5.22c-1.44,1.44-3.18,2.16-5.21,2.16h-5.9c-0.98,0-1.47-0.49-1.47-1.47s0.49-1.47,1.47-1.47h5.9
			c1.24,0,2.28-0.43,3.14-1.28c0.86-0.86,1.28-1.9,1.28-3.14v-2.95c0-1.22-0.43-2.26-1.3-3.13c-0.86-0.86-1.91-1.3-3.13-1.3h-5.9
			C212.96,673.77,212.47,673.27,212.47,672.29z"/>
		<path class="st2" d="M239.86,688.51c-2.04,0-3.78-0.72-5.22-2.16c-1.44-1.44-2.16-3.18-2.16-5.22v-2.95c0-2.44,0.98-4.41,2.95-5.9
			c-1.97-1.49-2.95-3.46-2.95-5.9c0-2.04,0.72-3.78,2.16-5.22c1.44-1.44,3.18-2.16,5.22-2.16c2.04,0,3.78,0.72,5.22,2.16
			c1.44,1.44,2.16,3.18,2.16,5.22c0,2.44-0.98,4.41-2.95,5.9c1.42,1.07,2.31,2.39,2.68,3.95c0.18,0.79,0.27,2.42,0.27,4.89
			c0,2.04-0.72,3.78-2.16,5.22C243.64,687.79,241.9,688.51,239.86,688.51z M239.86,670.82c1.24,0,2.28-0.43,3.14-1.29
			c0.86-0.86,1.28-1.9,1.28-3.14c0-1.22-0.43-2.26-1.3-3.13c-0.86-0.86-1.91-1.3-3.13-1.3c-1.24,0-2.28,0.43-3.14,1.29
			s-1.28,1.9-1.28,3.14s0.43,2.28,1.28,3.14C237.58,670.39,238.62,670.82,239.86,670.82z M239.86,685.56c1.24,0,2.28-0.43,3.14-1.28
			c0.86-0.86,1.28-1.9,1.28-3.14v-2.95c0-1.22-0.43-2.26-1.3-3.13c-0.86-0.86-1.91-1.3-3.13-1.3c-1.24,0-2.28,0.43-3.14,1.28
			s-1.28,1.9-1.28,3.14v2.95c0,1.24,0.43,2.28,1.28,3.14S238.62,685.56,239.86,685.56z"/>
	</g>
</g>
<g id="Таблицы">
</g>
<g id="Этаж_x2C__секции">
</g>
</svg>
