<?xml version="1.0" encoding="utf-8"?>
<!-- Generator: Adobe Illustrator 28.0.0, SVG Export Plug-In . SVG Version: 6.00 Build 0)  -->
<svg version="1.1" xmlns="http://www.w3.org/2000/svg" xmlns:xlink="http://www.w3.org/1999/xlink" x="0px" y="0px"
	 viewBox="0 0 1001.2 1000" style="enable-background:new 0 0 1001.2 1000;" xml:space="preserve">
<style type="text/css">
	.st0{fill:none;stroke:#5B5D65;stroke-width:1.1623;stroke-linecap:round;stroke-linejoin:round;stroke-miterlimit:10;}
	.st1{fill:#5B5D65;}
	.st2{fill:none;stroke:#5B5D65;stroke-width:1.1623;stroke-linecap:round;stroke-linejoin:round;}
	
		.st3{fill:none;stroke:#5B5D65;stroke-width:1.1623;stroke-linecap:round;stroke-linejoin:round;stroke-dasharray:15.2348,15.2348,15.2348,15.2348;}
	
		.st4{fill:none;stroke:#5B5D65;stroke-width:1.1623;stroke-linecap:round;stroke-linejoin:round;stroke-dasharray:15.2348,15.2348,15.2348,15.2348,15.2348,15.2348;}
	
		.st5{fill:none;stroke:#5B5D65;stroke-width:1.1623;stroke-linecap:round;stroke-linejoin:round;stroke-dasharray:16.3,16.3,16.3,16.3;}
	
		.st6{fill:none;stroke:#5B5D65;stroke-width:1.1623;stroke-linecap:round;stroke-linejoin:round;stroke-dasharray:16.3,16.3,16.3,16.3,16.3,16.3;}
	
		.st7{fill:none;stroke:#5B5D65;stroke-width:1.1623;stroke-linecap:round;stroke-linejoin:round;stroke-dasharray:17.365,17.365,17.365,17.365;}
	
		.st8{fill:none;stroke:#5B5D65;stroke-width:1.1623;stroke-linecap:round;stroke-linejoin:round;stroke-dasharray:17.365,17.365,17.365,17.365,17.365,17.365;}
	
		.st9{fill:none;stroke:#5B5D65;stroke-width:1.1623;stroke-linecap:round;stroke-linejoin:round;stroke-dasharray:17.3654,17.3654,17.3654,17.3654;}
	
		.st10{fill:none;stroke:#5B5D65;stroke-width:1.1623;stroke-linecap:round;stroke-linejoin:round;stroke-dasharray:17.3654,17.3654,17.3654,17.3654,17.3654,17.3654;}
	.st11{opacity:0.8;}
	.st12{fill:none;stroke:#5B5D65;stroke-width:0.5812;stroke-linecap:round;stroke-linejoin:round;stroke-miterlimit:10;}
	.st13{fill:#5B5D65;stroke:#5B5D65;stroke-width:2.3247;stroke-linecap:round;stroke-linejoin:round;stroke-miterlimit:10;}
</style>
<g id="Слой_1">
</g>
<g id="Окна_x2C__двери">
	<g>
		<line class="st0" x1="941.7" y1="500" x2="1000.6" y2="398.1"/>
		<line class="st0" x1="714.7" y1="511.7" x2="786.2" y2="470.4"/>
		<g>
			<rect x="93.7" y="377.6" class="st0" width="5.9" height="246"/>
			<rect x="70" y="377.6" class="st0" width="57.7" height="246"/>
		</g>
		<path class="st0" d="M0.6,377.6l0,246H70l0-246H0.6z M6.4,617.8l0-234.3h57.7l0,234.3H6.4z"/>
	</g>
</g>
<g id="Перегородки">
	<g>
		<rect x="710" y="700.1" class="st1" width="188.3" height="23.4"/>
		<rect x="268.9" y="700.1" class="st1" width="205.9" height="23.4"/>
		<rect x="915.9" y="299.9" class="st1" width="25.8" height="82.3"/>
		<polygon class="st1" points="915.9,500 915.9,510.5 898.4,510.5 898.4,511.7 797,511.7 797,521.1 898.4,521.1 898.4,536.3 
			941.7,536.3 941.7,500 		"/>
		<polygon class="st1" points="804,682.5 666.4,682.5 666.4,521.1 714.7,521.1 714.7,511.7 657,511.7 657,572.9 563,572.9 
			563,511.7 553.6,511.7 553.6,700.1 563,700.1 563,582.6 619.5,582.6 619.5,700.1 628.9,700.1 628.9,582.6 657,582.6 657,700.1 
			666.4,700.1 666.4,684 804,684 		"/>
		<rect x="268.9" y="276.5" class="st1" width="435.3" height="23.4"/>
	</g>
</g>
<g id="Пунктир">
	<g>
		<g>
			<line class="st2" x1="353.5" y1="700.1" x2="353.5" y2="689.7"/>
			<line class="st3" x1="353.5" y1="674.4" x2="353.5" y2="621.1"/>
			<line class="st4" x1="353.5" y1="613.5" x2="353.5" y2="529.7"/>
			<polyline class="st2" points="353.5,522.1 353.5,511.7 363.9,511.7 			"/>
			<line class="st5" x1="380.2" y1="511.7" x2="437.3" y2="511.7"/>
			<line class="st6" x1="445.4" y1="511.7" x2="535.1" y2="511.7"/>
			<polyline class="st2" points="543.2,511.7 553.6,511.7 553.6,501.4 			"/>
			<line class="st7" x1="553.6" y1="484" x2="553.6" y2="423.2"/>
			<line class="st8" x1="553.6" y1="414.5" x2="553.6" y2="319"/>
			<line class="st2" x1="553.6" y1="310.3" x2="553.6" y2="300"/>
		</g>
	</g>
	<g>
		<g>
			<line class="st2" x1="657" y1="511.7" x2="657" y2="501.4"/>
			<line class="st9" x1="657" y1="484" x2="657" y2="423.2"/>
			<line class="st10" x1="657" y1="414.5" x2="657" y2="319"/>
			<line class="st2" x1="657" y1="310.3" x2="657" y2="300"/>
		</g>
	</g>
</g>
<g id="Сантехника">
	<g class="st11">
		<circle class="st12" cx="488.5" cy="639.1" r="0.8"/>
		<circle class="st12" cx="488.5" cy="643.5" r="0.8"/>
		<circle class="st12" cx="534.7" cy="641.2" r="11.8"/>
		<circle class="st12" cx="504.6" cy="641.2" r="9.7"/>
		
			<rect x="501.4" y="605.9" transform="matrix(-1.836970e-16 1 -1 -1.836970e-16 1159.4861 122.8918)" class="st12" width="33.9" height="70.6"/>
		<circle class="st12" cx="534.7" cy="641.2" r="7.1"/>
	</g>
	<g class="st11">
		
			<rect x="483" y="511.7" transform="matrix(-7.587128e-07 1 -1 -7.587128e-07 1065.3154 28.7211)" class="st12" width="70.6" height="70.6"/>
		<circle class="st12" cx="524.8" cy="547.1" r="5.3"/>
		<circle class="st12" cx="543" cy="547.1" r="2.1"/>
		<circle class="st12" cx="543" cy="567.5" r="2.1"/>
		<path class="st12" d="M488.9,575.8l0-57.7c0-0.3,0.3-0.6,0.6-0.6l57.7,0c0.3,0,0.6,0.3,0.6,0.6v57.7c0,0.3-0.3,0.6-0.6,0.6
			l-57.7,0C489.1,576.4,488.9,576.2,488.9,575.8z"/>
		<path class="st12" d="M491.8,572.9l0-51.8c0-0.3,0.3-0.6,0.6-0.6l45.9,0c0.3,0,0.6,0.3,0.6,0.6l0,51.8c0,0.3-0.3,0.6-0.6,0.6
			h-45.9C492.1,573.5,491.8,573.3,491.8,572.9z"/>
	</g>
	<g class="st11">
		<polygon class="st12" points="804.2,665.6 804.2,700.1 898.4,700.1 898.4,605.9 863.9,605.9 863.9,610.3 893.5,610.3 893.5,677.7 
			876.2,695.6 809.2,695.6 809.2,665.6 		"/>
		<path class="st12" d="M863.9,605.9c-32.9,0-59.7,26.7-59.7,59.7"/>
		<path class="st12" d="M871.4,675.9l6.6,6.6l0.3,0.3l3,2.9c0,0,1.4,1.3,2.7,0.1c1.2-1.2-0.1-2.7-0.1-2.7l-2.9-2.9l-0.3-0.3
			l-6.6-6.6c0,0-1.4-1.3-2.7-0.1C870.1,674.5,871.4,675.9,871.4,675.9z"/>
		<path class="st12" d="M855.5,664.3c-2.2-2.2-2.2-5.9,0-8.1c2.2-2.2,5.9-2.2,8.1,0c2.2,2.2,2.2,5.9,0,8.1
			C861.4,666.5,857.7,666.5,855.5,664.3z"/>
		<path class="st12" d="M883.9,685.8c-1.2,1.2-2.7-0.1-2.7-0.1l-2.3-2.3c-1.8,1.9-3.3,3.8-4.4,5.5c-0.5,0.9-1,1.7-1.4,2.6v0
			c-0.3,0.6-0.2,1.4,0.3,1.8c0.9,0.7,1.8,1.5,2.8,2.2c1-1,2-2.1,3-3.1c0,0-0.1-0.1-0.2-0.2c-0.4-0.6,0.5-1.8,1-2.3
			c4.1-4.1,5.6-5.5,7.9-7.9c0.4-0.4,1.5-1.6,2.2-1.3c0.1,0,0.2,0.1,0.2,0.2c1.1-1.1,2.1-2.2,3.2-3.3c-0.7-0.8-1.5-1.4-2.2-2.2
			c-0.4-0.4-1.1-0.6-1.8-0.3c-1,0.4-1.9,1-2.8,1.5c-1.6,1-3.4,2.4-5.2,4.1l2.3,2.3C883.8,683.2,885.1,684.6,883.9,685.8z"/>
		<path class="st12" d="M865.9,667.9c-3.7,3.7-3.7,9.7,0,13.4c3.3,3.3,8.3,3.6,12,1.2l-6.5-6.5c0,0-1.3-1.4-0.1-2.7
			c1.2-1.2,2.7,0.1,2.7,0.1l6.5,6.5c2.5-3.7,2.1-8.7-1.2-12C875.6,664.2,869.6,664.2,865.9,667.9z"/>
	</g>
	<g class="st11">
		<ellipse class="st12" cx="704.3" cy="670.8" rx="1.9" ry="1.9"/>
		<line class="st12" x1="707.7" y1="670.8" x2="706.2" y2="670.8"/>
		<line class="st12" x1="702.4" y1="670.8" x2="700.9" y2="670.8"/>
		<line class="st12" x1="704.3" y1="667.4" x2="704.3" y2="668.8"/>
		<line class="st12" x1="704.3" y1="672.7" x2="704.3" y2="674.1"/>
		<line class="st12" x1="715.1" y1="655.1" x2="714.3" y2="655.1"/>
		<line class="st12" x1="712.2" y1="655.1" x2="711.4" y2="655.1"/>
		<line class="st12" x1="713.3" y1="653.3" x2="713.3" y2="654"/>
		<line class="st12" x1="713.3" y1="656.1" x2="713.3" y2="656.9"/>
		<ellipse class="st12" cx="713.3" cy="655.1" rx="1" ry="1"/>
		<ellipse class="st12" cx="695.3" cy="655.1" rx="1" ry="1"/>
		<line class="st12" x1="697.2" y1="655.1" x2="696.4" y2="655.1"/>
		<line class="st12" x1="694.3" y1="655.1" x2="693.5" y2="655.1"/>
		<line class="st12" x1="695.3" y1="653.3" x2="695.3" y2="654"/>
		<line class="st12" x1="695.3" y1="656.1" x2="695.3" y2="656.9"/>
		<path class="st12" d="M685.4,638.4c0.1,0.8,0.1,1.5,0.2,1.9c1.4,7.9,3.1,13.3,4.5,21.2c4.3-0.5,9-0.8,14.2-0.8
			c5.2,0,10,0.3,14.3,0.8c1.4-7.9,3.1-13.3,4.5-21.2c0-0.4,0.1-1.1,0.2-1.9c0.3-4.8,0.8-12.8-3.1-20c-0.6-1.2-1.9-3.5-4.4-5.8
			c-1.5-1.3-5.4-4.8-11.3-4.8c0,0-0.1,0-0.1,0c0,0-0.1,0-0.1,0c-5.8,0-9.8,3.5-11.3,4.8c-2.5,2.2-3.8,4.6-4.4,5.8
			C684.5,625.6,685.1,633.6,685.4,638.4z"/>
		<path class="st12" d="M688.5,637.1c0.3,2.4,0.7,5.1,2.6,7.8c2.3,3.4,5.4,4.8,6.4,5.2c2.8,1.2,5.1,1.2,6.8,1.2s4,0,6.8-1.2
			c1-0.4,4.1-1.8,6.4-5.2c1.9-2.7,2.3-5.4,2.6-7.8c0.4-3,1.5-11-3.1-18.2c-1.2-1.8-3.7-5.6-8.5-7.1c-1-0.3-4.4-1.3-8.5,0
			c-4.8,1.6-7.3,5.3-8.5,7.1C686.9,626,688,634,688.5,637.1z"/>
		<path class="st12" d="M694.5,644.5c3.7,3.7,8.6,3.6,9.8,3.6c1.3,0,6.1,0,9.8-3.6c3.3-3.2,4-7.7,4-11.2c0-2.2-0.2-3.8-0.4-5.2
			c-0.6-3.3-1.2-6.7-3.6-9.6c-1.9-2.3-5.4-4.7-9.8-4.6c-5.2,0.1-8.5,3.5-9.6,4.7c-2.6,3-3.2,6.5-3.8,9.5c-0.2,1.2-0.4,2.9-0.4,5.2
			C690.5,636.9,691.2,641.3,694.5,644.5z"/>
		<path class="st12" d="M699.4,642.6c0.2,0.6,0.6,1.5,1.4,2.4c0.5,0.5,0.9,0.8,1.3,1c0,0,0,0,0,0c2,0,2.3,0,4.2,0c0,0,0,0,0,0
			c0.4-0.2,0.8-0.5,1.3-1c0.8-0.9,1.2-1.8,1.4-2.4c0.1-2.6,0.1-5.3,0.2-7.9c0-0.4-0.1-1.7-1.2-2.8c-0.8-0.9-1.7-1.1-2.1-1.2
			c-1.3,0-2.5,0-3.8,0c-0.4,0.1-1.3,0.3-2.1,1.2c-1,1.1-1.1,2.4-1.2,2.8C699.3,637.4,699.3,640,699.4,642.6z"/>
		<path class="st12" d="M699.3,639.5c0.6-0.5,2.4-1.7,4.9-1.7c2.6,0,4.5,1.3,5.1,1.7"/>
		<path class="st12" d="M684.1,682.5h40.4c0.5,0,1-0.5,1-1.1c0,0,0-9.8,0-10.8c-0.1-0.6-0.3-1.3-0.6-2.2c-0.3-0.8-0.8-1.8-1.4-2.7
			c-0.8-1.2-1.8-2.2-2.6-2.9c-0.9-0.7-1.6-1.1-2.2-1.4c-2.1-0.2-4.4-0.5-6.8-0.6c-2.4-0.1-4.9-0.2-7.5-0.2c-2.6,0-5.1,0.1-7.5,0.2
			c-2.4,0.1-4.6,0.3-6.8,0.6c-0.5,0.2-1.2,0.5-2,1.1c-0.8,0.5-1.7,1.3-2.5,2.4c-0.9,1.1-1.5,2.3-1.8,3.3c-0.4,1-0.6,1.9-0.6,2.4
			c0,1.2,0,10.8,0,10.8C683.1,682,683.6,682.5,684.1,682.5z"/>
	</g>
	<g class="st11">
		<path class="st12" d="M766.3,661.4c0-1.5,1.2-2.7,2.7-2.7c1.5,0,2.7,1.2,2.7,2.7c0,1.5-1.2,2.7-2.7,2.7
			C767.5,664.1,766.3,662.9,766.3,661.4z"/>
		<line class="st12" x1="773" y1="661.4" x2="765.1" y2="661.4"/>
		<line class="st12" x1="769" y1="657.5" x2="769" y2="665.4"/>
		<path class="st12" d="M767.1,674.3c0-1.1,0.9-1.9,1.9-1.9c1.1,0,1.9,0.9,1.9,1.9c0,1.1-0.9,1.9-1.9,1.9
			C768,676.3,767.1,675.4,767.1,674.3z"/>
		<line class="st12" x1="772.1" y1="674.3" x2="765.9" y2="674.3"/>
		<line class="st12" x1="769" y1="671.3" x2="769" y2="677.4"/>
		<path class="st12" d="M739.9,662.6c-0.1,1.4-0.2,3.1-0.1,5.1c0,0.8,0.1,2.2,0.3,4.1c0.2,1.5,0.5,3.4,1,5.6
			c0.6,1.7,1.2,3.5,1.7,5.2c0,0,0,0,0,0c0.7,0,52.3,0,52.5,0c0,0,0,0,0,0c0.6-1.7,1.2-3.5,1.7-5.2c0.5-2.1,0.8-4,1-5.6
			c0.2-1.8,0.3-3.3,0.3-4.1c0.1-2,0-3.7-0.1-5.1c0-1.9-0.5-14.2-10.5-22.3c-7.4-6-15.6-6.1-18.8-6.1s-11.4,0.1-18.8,6.1
			C740.4,648.4,740,660.7,739.9,662.6z"/>
		<path class="st12" d="M748,659.6c-0.1,0.7-0.1,1.6,0.2,2.7c0,0.1,0,0.1,0,0.1c0,0,0.3,0.9,1.1,1.8c3.8,4.5,19.8,4.5,19.8,4.5h0
			c8.8,0,16.2-0.5,19.5-4.5c0,0,0,0,0,0c0,0,0,0,0,0c0.8-0.9,1-1.7,1.1-1.8c0,0,0,0,0,0c0.4-1.2,0.3-2.6,0.3-2.8
			c-0.1-1.4-0.1-2.1-0.3-3c-1.1-5.6-3.5-9.2-3.5-9.2c-1.8-2.6-3.7-4.2-4.7-5c-0.8-0.7-2-1.6-3.8-2.5c-3.9-2-7.5-2.1-8.4-2.1
			c-4.2,0-7.3,1.4-8.7,2.1l0,0c-1,0.6-2.4,1.4-3.8,2.5c-1,0.8-2.9,2.4-4.7,5c0,0-2.4,3.5-3.5,9.2C748.2,657.1,748.1,658,748,659.6z"
			/>
	</g>
</g>
<g id="Несущие">
	<g>
		<polygon class="st13" points="127.7,700.1 127.7,623.6 70,623.6 70,723.5 268.9,723.5 268.9,700.1 		"/>
		<rect x="898.4" y="536.3" class="st13" width="23.4" height="187.2"/>
		<rect x="474.8" y="700.1" class="st13" width="235.2" height="23.4"/>
		<polygon class="st13" points="70,276.5 70,377.6 127.7,377.6 127.7,299.9 268.9,299.9 268.9,276.5 		"/>
		<rect x="704.2" y="276.5" class="st13" width="237.6" height="23.4"/>
	</g>
</g>
<g id="Лестницы_x2C__лифты">
</g>
<g id="Площади">
	<g>
		<path class="st1" d="M728.6,549.2c1.9,0,3.6,0.7,5,2.1c1.4,1.4,2.1,3,2.1,5c0,1.3-0.4,2.7-1.3,4l-8.9,14.2h8.7
			c0.9,0,1.4,0.5,1.4,1.4s-0.5,1.4-1.4,1.4H723c-0.9,0-1.4-0.5-1.4-1.4c0-0.3,0.1-0.6,0.2-0.8l10.3-16.5c0.5-0.8,0.7-1.5,0.7-2.3
			c0-1.2-0.4-2.2-1.2-3c-0.8-0.8-1.8-1.2-3-1.2c-1.6,0-3.1,1.2-4.4,3.5c-0.3,0.5-0.7,0.7-1.2,0.7c-0.9,0-1.4-0.5-1.4-1.4
			c0-0.2,0-0.4,0.1-0.6C723.4,550.9,725.7,549.2,728.6,549.2z"/>
		<path class="st1" d="M743,574.5c0.9,0,1.4,0.5,1.4,1.4c0,0.1-0.5,2.1-1.4,6c-0.2,0.7-0.6,1.1-1.4,1.1c-0.9,0-1.4-0.5-1.4-1.4
			c0-0.6,0.5-2.6,1.4-6C741.8,574.9,742.3,574.5,743,574.5z"/>
		<path class="st1" d="M752.2,577.3c-0.4,0-0.7-0.1-1-0.4c-0.3-0.3-0.4-0.6-0.4-1c0-0.7,0.2-1.1,0.7-1.2c1-0.3,1.9-0.7,2.6-1.2
			c3-2,4.7-4.4,5.1-7.4H755c-1.9,0-3.6-0.7-5-2.1s-2.1-3-2.1-5v-2.8c0-1.9,0.7-3.6,2.1-5c1.4-1.4,3-2.1,5-2.1c2,0,3.6,0.7,5,2
			c1.4,1.4,2,3,2,4.9v8.5c0,4.8-2.2,8.5-6.7,11.3C754,576.9,752.9,577.3,752.2,577.3z M759.3,563.3v-7c0-1.2-0.4-2.2-1.2-3
			c-0.8-0.8-1.8-1.2-3-1.2c-1.2,0-2.2,0.4-3,1.2c-0.8,0.8-1.2,1.8-1.2,3v2.8c0,1.2,0.4,2.2,1.2,3c0.8,0.8,1.8,1.2,3,1.2H759.3z"/>
		<path class="st1" d="M771.4,577.3c-0.4,0-0.7-0.1-1-0.4c-0.3-0.3-0.4-0.6-0.4-1c0-0.7,0.2-1.1,0.7-1.2c1-0.3,1.9-0.7,2.6-1.2
			c3-2,4.7-4.4,5.1-7.4h-4.1c-1.9,0-3.6-0.7-5-2.1s-2.1-3-2.1-5v-2.8c0-1.9,0.7-3.6,2.1-5c1.4-1.4,3-2.1,5-2.1c2,0,3.6,0.7,5,2
			c1.4,1.4,2,3,2,4.9v8.5c0,4.8-2.2,8.5-6.7,11.3C773.1,576.9,772,577.3,771.4,577.3z M778.4,563.3v-7c0-1.2-0.4-2.2-1.2-3
			c-0.8-0.8-1.8-1.2-3-1.2c-1.2,0-2.2,0.4-3,1.2c-0.8,0.8-1.2,1.8-1.2,3v2.8c0,1.2,0.4,2.2,1.2,3c0.8,0.8,1.8,1.2,3,1.2H778.4z"/>
	</g>
	<g>
		<path class="st1" d="M729.3,391.6h-2.8c-0.9,0-1.4-0.5-1.4-1.4s0.5-1.4,1.4-1.4h2.8c1.2,0,2.2-0.4,3-1.2c0.8-0.8,1.2-1.8,1.2-3
			c0-1.2-0.4-2.2-1.2-3c-0.8-0.8-1.8-1.2-3-1.2h-5.6c-0.9,0-1.4-0.5-1.4-1.4s0.5-1.4,1.4-1.4h5.6c1.9,0,3.6,0.7,5,2.1
			c1.4,1.4,2.1,3,2.1,5c0,2.3-0.9,4.2-2.8,5.6c1.9,1.4,2.8,3.3,2.8,5.6v2.8c0,1.9-0.7,3.6-2.1,5c-1.4,1.4-3,2.1-5,2.1h-5.6
			c-0.9,0-1.4-0.5-1.4-1.4s0.5-1.4,1.4-1.4h5.6c1.2,0,2.2-0.4,3-1.2c0.8-0.8,1.2-1.8,1.2-3v-2.8c0-1.2-0.4-2.2-1.2-3
			C731.5,392,730.5,391.6,729.3,391.6z"/>
		<path class="st1" d="M743,402.9c0.9,0,1.4,0.5,1.4,1.4c0,0.1-0.5,2.1-1.4,6c-0.2,0.7-0.6,1.1-1.4,1.1c-0.9,0-1.4-0.5-1.4-1.4
			c0-0.6,0.5-2.6,1.4-6C741.8,403.2,742.3,402.9,743,402.9z"/>
		<path class="st1" d="M752.2,405.7c-0.4,0-0.7-0.1-1-0.4c-0.3-0.3-0.4-0.6-0.4-1c0-0.7,0.2-1.1,0.7-1.2c1-0.3,1.9-0.7,2.6-1.2
			c3-2,4.7-4.4,5.1-7.4H755c-1.9,0-3.6-0.7-5-2.1s-2.1-3-2.1-5v-2.8c0-1.9,0.7-3.6,2.1-5c1.4-1.4,3-2.1,5-2.1c2,0,3.6,0.7,5,2
			c1.4,1.4,2,3,2,4.9v8.5c0,4.8-2.2,8.5-6.7,11.3C754,405.2,752.9,405.7,752.2,405.7z M759.3,391.6v-7c0-1.2-0.4-2.2-1.2-3
			c-0.8-0.8-1.8-1.2-3-1.2c-1.2,0-2.2,0.4-3,1.2c-0.8,0.8-1.2,1.8-1.2,3v2.8c0,1.2,0.4,2.2,1.2,3c0.8,0.8,1.8,1.2,3,1.2H759.3z"/>
		<path class="st1" d="M777,377.6c0.9,0,1.4,0.5,1.4,1.4c0,0.7-0.2,1.1-0.7,1.2c-2.1,0.5-3.9,1.8-5.5,3.7c-1.2,1.6-2,3.2-2.1,4.9
			h4.1c2,0,3.7,0.7,5,2c1.3,1.4,2,3,2,5v2.8c0,2-0.7,3.6-2.1,5c-1.4,1.4-3,2-5,2c-2,0-3.6-0.7-5-2c-1.4-1.4-2-3-2-4.9v-8.5
			c0-3.2,1.1-6,3.2-8.4c1.6-1.9,3.4-3.2,5.4-4C776.3,377.7,776.7,377.6,777,377.6z M770,391.6v7c0,1.2,0.4,2.2,1.2,3
			c0.8,0.8,1.8,1.2,3,1.2s2.2-0.4,3-1.2c0.8-0.8,1.2-1.8,1.2-3v-2.8c0-1.2-0.4-2.2-1.2-3c-0.8-0.8-1.8-1.2-3-1.2H770z"/>
	</g>
	<g>
		<path class="st1" d="M174.8,577.3c-0.4,0-0.7-0.1-1-0.4c-0.3-0.3-0.4-0.6-0.4-1c0-0.7,0.2-1.1,0.7-1.2c1-0.3,1.9-0.7,2.6-1.2
			c3-2,4.7-4.4,5.1-7.4h-4.1c-1.9,0-3.6-0.7-5-2.1s-2.1-3-2.1-5v-2.8c0-1.9,0.7-3.6,2.1-5c1.4-1.4,3-2.1,5-2.1c2,0,3.6,0.7,5,2
			c1.4,1.4,2,3,2,4.9v8.5c0,4.8-2.2,8.5-6.7,11.3C176.6,576.9,175.5,577.3,174.8,577.3z M181.8,563.3v-7c0-1.2-0.4-2.2-1.2-3
			c-0.8-0.8-1.8-1.2-3-1.2c-1.2,0-2.2,0.4-3,1.2c-0.8,0.8-1.2,1.8-1.2,3v2.8c0,1.2,0.4,2.2,1.2,3c0.8,0.8,1.8,1.2,3,1.2H181.8z"/>
		<path class="st1" d="M190.4,574.5c0.9,0,1.4,0.5,1.4,1.4c0,0.1-0.5,2.1-1.4,6c-0.2,0.7-0.6,1.1-1.4,1.1c-0.9,0-1.4-0.5-1.4-1.4
			c0-0.6,0.5-2.6,1.4-6C189.3,574.9,189.7,574.5,190.4,574.5z"/>
		<path class="st1" d="M202.1,564.7l-1,0c-0.9,0-1.4-0.5-1.4-1.4s0.5-1.4,1.4-1.4l1.7,0l2.2-9.8h-9.5c-0.9,0-1.4-0.5-1.4-1.4
			s0.5-1.4,1.4-1.4h11.2c0.9,0,1.4,0.5,1.4,1.4c0,0.1,0,0.2,0,0.3l-2.4,10.9l1.1,0c0.9,0,1.4,0.5,1.4,1.4s-0.5,1.4-1.4,1.4l-1.7,0
			l-2.5,11.5c-0.2,0.7-0.6,1.1-1.3,1.1c-1,0-1.4-0.5-1.4-1.4c0-0.1,0-0.2,0-0.3L202.1,564.7z"/>
		<path class="st1" d="M221.2,564.7l-1,0c-0.9,0-1.4-0.5-1.4-1.4s0.5-1.4,1.4-1.4l1.7,0l2.2-9.8h-9.5c-0.9,0-1.4-0.5-1.4-1.4
			s0.5-1.4,1.4-1.4h11.2c0.9,0,1.4,0.5,1.4,1.4c0,0.1,0,0.2,0,0.3l-2.4,10.9l1.1,0c0.9,0,1.4,0.5,1.4,1.4s-0.5,1.4-1.4,1.4l-1.7,0
			l-2.5,11.5c-0.2,0.7-0.6,1.1-1.3,1.1c-1,0-1.4-0.5-1.4-1.4c0-0.1,0-0.2,0-0.3L221.2,564.7z"/>
	</g>
	<g>
		<path class="st1" d="M384.2,570.3c0-0.2,0-0.3,0-0.4l5.6-19.7c0.2-0.7,0.7-1,1.4-1c0.9,0,1.4,0.5,1.4,1.4c0,0.1,0,0.3,0,0.4
			l-5.1,17.9h6.6v-4.2c0-0.9,0.5-1.4,1.4-1.4s1.4,0.5,1.4,1.4v4.2h2.8c0.9,0,1.4,0.5,1.4,1.4s-0.5,1.4-1.4,1.4h-2.8v4.2
			c0,0.9-0.5,1.4-1.4,1.4s-1.4-0.5-1.4-1.4v-4.2h-8.4C384.6,571.7,384.2,571.2,384.2,570.3z"/>
		<path class="st1" d="M407.5,574.5c0.9,0,1.4,0.5,1.4,1.4c0,0.1-0.5,2.1-1.4,6c-0.2,0.7-0.6,1.1-1.4,1.1c-0.9,0-1.4-0.5-1.4-1.4
			c0-0.6,0.5-2.6,1.4-6C406.3,574.9,406.8,574.5,407.5,574.5z"/>
		<path class="st1" d="M414,561.9v-11.2c0-0.9,0.5-1.4,1.4-1.4h9.8c0.9,0,1.4,0.5,1.4,1.4s-0.5,1.4-1.4,1.4h-8.4v8.4h4.2
			c1.9,0,3.6,0.7,5,2.1c1.4,1.4,2.1,3,2.1,5v2.8c0,1.9-0.7,3.6-2.1,5c-1.4,1.4-3,2.1-5,2.1h-5.6c-0.9,0-1.4-0.5-1.4-1.4
			s0.5-1.4,1.4-1.4h5.6c1.2,0,2.2-0.4,3-1.2c0.8-0.8,1.2-1.8,1.2-3v-2.8c0-1.2-0.4-2.2-1.2-3c-0.8-0.8-1.8-1.2-3-1.2h-5.6
			C414.5,563.3,414,562.8,414,561.9z"/>
		<path class="st1" d="M433.1,570.3c0-0.2,0-0.3,0-0.4l5.6-19.7c0.2-0.7,0.7-1,1.4-1c0.9,0,1.4,0.5,1.4,1.4c0,0.1,0,0.3,0,0.4
			l-5.1,17.9h6.6v-4.2c0-0.9,0.5-1.4,1.4-1.4s1.4,0.5,1.4,1.4v4.2h2.8c0.9,0,1.4,0.5,1.4,1.4s-0.5,1.4-1.4,1.4h-2.8v4.2
			c0,0.9-0.5,1.4-1.4,1.4s-1.4-0.5-1.4-1.4v-4.2h-8.4C433.6,571.7,433.1,571.2,433.1,570.3z"/>
	</g>
</g>
<g id="Таблички">
</g>
<g id="Этаж_x2C__секции">
</g>
</svg>
