<?xml version="1.0" encoding="utf-8"?>
<!-- Generator: Adobe Illustrator 28.0.0, SVG Export Plug-In . SVG Version: 6.00 Build 0)  -->
<svg version="1.1" xmlns="http://www.w3.org/2000/svg" xmlns:xlink="http://www.w3.org/1999/xlink" x="0px" y="0px"
	 viewBox="0 0 1001.2 1000" style="enable-background:new 0 0 1001.2 1000;" xml:space="preserve">
<style type="text/css">
	.st0{fill:none;stroke:#5B5D65;stroke-width:1.2199;stroke-linecap:round;stroke-linejoin:round;stroke-miterlimit:10;}
	.st1{fill:#5B5D65;}
	.st2{fill:none;stroke:#5B5D65;stroke-width:1.2199;stroke-linecap:round;stroke-linejoin:round;}
	
		.st3{fill:none;stroke:#5B5D65;stroke-width:1.2199;stroke-linecap:round;stroke-linejoin:round;stroke-dasharray:19.3427,19.3427,19.3427,19.3427;}
	
		.st4{fill:none;stroke:#5B5D65;stroke-width:1.2199;stroke-linecap:round;stroke-linejoin:round;stroke-dasharray:19.3427,19.3427,19.3427,19.3427,19.3427,19.3427;}
	
		.st5{fill:none;stroke:#5B5D65;stroke-width:1.2199;stroke-linecap:round;stroke-linejoin:round;stroke-dasharray:18.5588,18.5588,18.5588,18.5588;}
	
		.st6{fill:none;stroke:#5B5D65;stroke-width:1.2199;stroke-linecap:round;stroke-linejoin:round;stroke-dasharray:18.5588,18.5588,18.5588,18.5588,18.5588,18.5588;}
	.st7{opacity:0.8;}
	.st8{fill:none;stroke:#5B5D65;stroke-width:0.6099;stroke-linecap:round;stroke-linejoin:round;stroke-miterlimit:10;}
	.st9{fill:#5B5D65;stroke:#5B5D65;stroke-width:2.4397;stroke-linecap:round;stroke-linejoin:round;stroke-miterlimit:10;}
</style>
<g id="Слой_1">
</g>
<g id="Окна_x2C__двери">
	<g>
		<g>
			<rect x="918.8" y="227.6" class="st0" width="6.5" height="184.1"/>
			<rect x="867.2" y="227.6" class="st0" width="60.6" height="184.1"/>
		</g>
		<g>
			<rect x="918.8" y="542.4" class="st0" width="6.5" height="184.1"/>
			<rect x="867.2" y="542.4" class="st0" width="60.6" height="184.1"/>
		</g>
		<line class="st0" x1="314.2" y1="356.1" x2="239.2" y2="312.8"/>
		<line class="st0" x1="360.9" y1="503.1" x2="416.5" y2="599.3"/>
		<line class="st0" x1="360.9" y1="490.8" x2="416.5" y2="394.6"/>
		<line class="st0" x1="172.1" y1="647.6" x2="246.8" y2="604.2"/>
		<line class="st0" x1="62.4" y1="378.3" x2="0.6" y2="485.2"/>
		<path class="st0" d="M927.8,227.6v184.1h72.9V227.6H927.8z M933.9,405.6V233.8h60.6v171.8H933.9z"/>
	</g>
</g>
<g id="Перегородки">
	<g>
		<polygon class="st1" points="412.8,140 412.8,356.1 314.2,356.1 314.2,366 351.1,366 351.1,379.5 360.9,379.5 360.9,366 
			422.7,366 422.7,140 		"/>
		<polygon class="st1" points="360.9,492 360.9,490.8 351.1,490.8 351.1,503.1 360.9,503.1 360.9,501.8 867.2,501.8 867.2,492 		"/>
		<polygon class="st1" points="172.1,647.6 89.5,647.6 89.5,501.8 62.4,501.8 62.4,794.5 89.5,794.5 89.5,657.4 172.1,657.4 		"/>
		<rect x="459.9" y="860" class="st1" width="259.1" height="24.6"/>
		<polygon class="st1" points="351.1,614 351.1,647.6 258.5,647.6 258.5,657.4 264.7,657.4 264.7,794.5 89.5,794.5 89.5,819.1 
			249.9,819.1 249.9,884.6 274.5,884.6 274.5,657.4 360.9,657.4 360.9,614 		"/>
		<polygon class="st1" points="321.5,140 320,140 320,156.9 153.7,156.9 153.7,140 143.9,140 143.9,356.1 89.5,356.1 89.5,263.6 
			62.4,263.6 62.4,378.3 89.5,378.3 89.5,366 227.8,366 227.8,356.1 153.7,356.1 153.7,158.5 321.5,158.5 		"/>
		<rect x="459.9" y="115.4" class="st1" width="259.1" height="24.6"/>
	</g>
</g>
<g id="Пунктир">
	<g>
		<g>
			<line class="st2" x1="422.7" y1="366" x2="433.6" y2="366"/>
			<line class="st3" x1="452.9" y1="366" x2="520.6" y2="366"/>
			<line class="st4" x1="530.3" y1="366" x2="636.7" y2="366"/>
			<polyline class="st2" points="646.3,366 657.2,366 657.2,355.1 			"/>
			<line class="st5" x1="657.2" y1="336.5" x2="657.2" y2="271.6"/>
			<line class="st6" x1="657.2" y1="262.3" x2="657.2" y2="160.2"/>
			<line class="st2" x1="657.2" y1="150.9" x2="657.2" y2="140"/>
		</g>
	</g>
</g>
<g id="Сантехника">
	<g class="st7">
		<rect x="546.1" y="140" class="st8" width="74.1" height="74.1"/>
		<circle class="st8" cx="602.7" cy="159.9" r="13"/>
		<circle class="st8" cx="561.7" cy="191.5" r="11.1"/>
		<circle class="st8" cx="561.7" cy="159.9" r="8.6"/>
		<circle class="st8" cx="602.7" cy="191.5" r="8.6"/>
		<circle class="st8" cx="580.9" cy="208.4" r="0.8"/>
		<circle class="st8" cx="585.5" cy="208.4" r="0.8"/>
		<circle class="st8" cx="585.5" cy="203.8" r="0.8"/>
		<circle class="st8" cx="580.9" cy="203.8" r="0.8"/>
	</g>
	<g class="st7">
		
			<rect x="422.7" y="217.8" transform="matrix(1.229860e-06 -1 1 1.229860e-06 204.9068 714.5557)" class="st8" width="74.1" height="74.1"/>
		<circle class="st8" cx="452.9" cy="254.8" r="5.6"/>
		<circle class="st8" cx="433.8" cy="254.8" r="2.2"/>
		<circle class="st8" cx="433.8" cy="233.3" r="2.2"/>
		<path class="st8" d="M490.6,224.6l0,60.5c0,0.3-0.3,0.6-0.6,0.6l-60.5,0c-0.3,0-0.6-0.3-0.6-0.6l0-60.5c0-0.3,0.3-0.6,0.6-0.6
			l60.5,0C490.3,224,490.6,224.2,490.6,224.6z"/>
		<path class="st8" d="M487.5,227.6l0,54.3c0,0.3-0.3,0.6-0.6,0.6l-48.2,0c-0.3,0-0.6-0.3-0.6-0.6l0-54.3c0-0.3,0.3-0.6,0.6-0.6
			l48.2,0C487.2,227,487.5,227.3,487.5,227.6z"/>
	</g>
	<g class="st7">
		<line class="st8" x1="369.2" y1="150.6" x2="360.2" y2="150.6"/>
		<path class="st8" d="M356.2,150.6h-18.6c-2.5,0-4.6,2.2-4.6,5l0,144.2c0,9.8,3.4,19.3,9.5,26.6c14.5,17.3,39.7,17.3,54.2,0
			c6.1-7.3,9.5-16.8,9.5-26.6l0-144.2c0-2.7-2.1-5-4.6-5h-21.8"/>
		<rect x="326.4" y="140" class="st8" width="86.4" height="209.9"/>
		<path class="st8" d="M369.6,182.8c-2.4,0-4.4-2-4.4-4.4c0-2.4,2-4.4,4.4-4.4c2.4,0,4.4,2,4.4,4.4
			C374,180.8,372.1,182.8,369.6,182.8z"/>
		<path class="st8" d="M360.2,140h-4v6.5v0.4l0,10.3c0,0,0.1,2.1,2,2.1c1.9,0,2-2.1,2-2.1V147v-0.4v-2.4"/>
		<path class="st8" d="M376.8,145.6l0.1-1.3c0.2-2.1-1.4-4-3.6-4.3c-0.2,0-0.3,0-0.5,0c-0.2,0-0.3,0-0.5,0c-2.3,0.3-3.8,2.2-3.7,4.3
			l1.8,22.3c0,0.7,0.6,1.3,1.4,1.3h1.7c0.8,0,1.4-0.6,1.4-1.3l0.9-11.3"/>
		<path class="st8" d="M380.2,156.1l-0.7,0.4c-1.2,0.7-2.7,0.3-3.4-0.8l-5.4-9c-0.7-1.2-0.3-2.7,0.8-3.4l0.7-0.4
			c1.2-0.7,2.7-0.3,3.4,0.8l5.4,9C381.8,153.8,381.4,155.4,380.2,156.1z"/>
		<path class="st8" d="M376.7,145.4c3.2-0.2,7.2-0.5,8.3-1c1.5-0.8,0.8-2.9,0.8-2.9v-1.4l-26.1,0v1.4c0,0-0.7,2.2,0.9,2.9
			c1.1,0.5,5.1,0.9,8.2,1"/>
		<path class="st8" d="M354.5,150.6c-2.3,1.3-3.9,3.8-3.9,6.7c0,4.2,3.4,7.6,7.6,7.6c4.2,0,7.6-3.4,7.6-7.6c0-2.9-1.6-5.4-3.9-6.7"
			/>
	</g>
	<g class="st7">
		<ellipse class="st8" cx="208.9" cy="170.8" rx="2" ry="2"/>
		<line class="st8" x1="205.3" y1="170.8" x2="206.8" y2="170.8"/>
		<line class="st8" x1="210.9" y1="170.8" x2="212.4" y2="170.8"/>
		<line class="st8" x1="208.9" y1="174.3" x2="208.9" y2="172.8"/>
		<line class="st8" x1="208.9" y1="168.8" x2="208.9" y2="167.2"/>
		<line class="st8" x1="197.6" y1="187.2" x2="198.4" y2="187.2"/>
		<line class="st8" x1="200.6" y1="187.2" x2="201.4" y2="187.2"/>
		<line class="st8" x1="199.5" y1="189.2" x2="199.5" y2="188.3"/>
		<line class="st8" x1="199.5" y1="186.1" x2="199.5" y2="185.3"/>
		<ellipse class="st8" cx="199.5" cy="187.2" rx="1.1" ry="1.1"/>
		<ellipse class="st8" cx="218.3" cy="187.2" rx="1.1" ry="1.1"/>
		<line class="st8" x1="216.4" y1="187.2" x2="217.2" y2="187.2"/>
		<line class="st8" x1="219.4" y1="187.2" x2="220.2" y2="187.2"/>
		<line class="st8" x1="218.3" y1="189.2" x2="218.3" y2="188.3"/>
		<line class="st8" x1="218.3" y1="186.1" x2="218.3" y2="185.3"/>
		<path class="st8" d="M228.7,204.8c-0.1-0.8-0.1-1.5-0.2-2c-1.5-8.3-3.3-13.9-4.8-22.3c-4.5,0.5-9.5,0.9-14.9,0.9
			c-5.5,0-10.5-0.3-15-0.9c-1.5,8.3-3.2,13.9-4.7,22.3c0,0.5-0.1,1.2-0.2,2c-0.3,5-0.9,13.4,3.2,21c0.7,1.2,2,3.7,4.6,6.1
			c1.6,1.4,5.7,5.1,11.8,5.1c0.1,0,0.1,0,0.1,0c0.1,0,0.1,0,0.1,0c6.1,0,10.3-3.6,11.8-5.1c2.6-2.4,4-4.8,4.6-6.1
			C229.6,218.2,229.1,209.8,228.7,204.8z"/>
		<path class="st8" d="M225.5,206.2c-0.3-2.5-0.8-5.3-2.7-8.2c-2.4-3.6-5.7-5-6.8-5.5c-2.9-1.2-5.4-1.2-7.1-1.2
			c-1.7,0-4.2,0-7.1,1.2c-1.1,0.5-4.3,1.9-6.8,5.5c-2,2.9-2.4,5.7-2.7,8.2c-0.4,3.2-1.6,11.6,3.3,19.1c1.2,1.9,3.8,5.8,8.9,7.5
			c1,0.3,4.6,1.4,8.9,0c5-1.6,7.6-5.6,8.9-7.5C227.1,217.7,225.9,209.4,225.5,206.2z"/>
		<path class="st8" d="M219.2,198.3c-3.9-3.8-9-3.8-10.3-3.8c-1.3,0-6.4,0-10.3,3.8c-3.4,3.4-4.2,8-4.2,11.7c0,2.3,0.2,4,0.5,5.4
			c0.6,3.5,1.2,7,3.8,10.1c2,2.4,5.6,4.9,10.2,4.9c5.4-0.1,8.9-3.7,10-4.9c2.7-3.1,3.4-6.8,4-10c0.2-1.3,0.4-3.1,0.5-5.4
			C223.4,206.3,222.6,201.7,219.2,198.3z"/>
		<path class="st8" d="M214,200.3c-0.2-0.6-0.6-1.6-1.5-2.5c-0.5-0.5-1-0.8-1.4-1.1c0,0,0,0,0,0c-2.1,0-2.4,0-4.4,0c0,0,0,0,0,0
			c-0.4,0.2-0.9,0.6-1.4,1.1c-0.9,0.9-1.3,1.9-1.5,2.5c-0.1,2.8-0.1,5.5-0.2,8.3c0,0.4,0.1,1.8,1.2,2.9c0.8,0.9,1.8,1.2,2.2,1.2
			c1.3,0,2.6,0,3.9,0c0.4-0.1,1.3-0.3,2.2-1.2c1.1-1.2,1.2-2.5,1.2-2.9C214.2,205.8,214.1,203.1,214,200.3z"/>
		<path class="st8" d="M214.1,203.6c-0.6,0.5-2.5,1.8-5.2,1.8c-2.8,0-4.7-1.4-5.3-1.8"/>
		<path class="st8" d="M230.1,158.5h-42.4c-0.6,0-1,0.5-1,1.1c0,0,0,10.3,0,11.4c0.1,0.6,0.3,1.4,0.7,2.3c0.3,0.9,0.8,1.9,1.5,2.8
			c0.9,1.3,1.9,2.3,2.8,3c0.9,0.7,1.7,1.2,2.3,1.5c2.3,0.3,4.6,0.5,7.1,0.6c2.5,0.2,5.1,0.2,7.9,0.2c2.7,0,5.3-0.1,7.8-0.2
			c2.5-0.2,4.9-0.4,7.1-0.6c0.5-0.2,1.2-0.6,2.1-1.1c0.8-0.6,1.8-1.4,2.6-2.5c0.9-1.2,1.5-2.4,1.9-3.4c0.4-1.1,0.6-2,0.7-2.5
			c0-1.3,0-11.4,0-11.4C231.1,159,230.6,158.5,230.1,158.5z"/>
	</g>
	<g class="st7">
		<path class="st8" d="M285.4,180.6c0,1.6-1.3,2.8-2.8,2.8c-1.6,0-2.8-1.3-2.8-2.8c0-1.6,1.3-2.8,2.8-2.8
			C284.1,177.7,285.4,179,285.4,180.6z"/>
		<line class="st8" x1="278.4" y1="180.6" x2="286.7" y2="180.6"/>
		<line class="st8" x1="282.6" y1="184.7" x2="282.6" y2="176.4"/>
		<path class="st8" d="M284.6,167c0,1.1-0.9,2-2,2c-1.1,0-2-0.9-2-2c0-1.1,0.9-2,2-2C283.7,165,284.6,165.9,284.6,167z"/>
		<line class="st8" x1="279.3" y1="167" x2="285.8" y2="167"/>
		<line class="st8" x1="282.6" y1="170.3" x2="282.6" y2="163.8"/>
		<path class="st8" d="M313.1,179.4c0.1-1.5,0.2-3.3,0.1-5.3c0-0.8-0.1-2.3-0.3-4.3c-0.2-1.6-0.5-3.6-1.1-5.8
			c-0.6-1.8-1.2-3.6-1.8-5.5c0,0,0,0,0,0c-0.8,0-54.9,0-55.1,0c0,0,0,0,0,0c-0.6,1.8-1.2,3.6-1.8,5.5c-0.6,2.3-0.9,4.2-1.1,5.8
			c-0.2,1.9-0.3,3.5-0.3,4.3c-0.1,2.1,0,3.9,0.1,5.3c0,2,0.5,14.9,11,23.4c7.7,6.2,16.4,6.4,19.8,6.4c3.3,0,12-0.1,19.8-6.4
			C312.6,194.3,313,181.4,313.1,179.4z"/>
		<path class="st8" d="M304.6,182.5c0.1-0.7,0.1-1.7-0.2-2.8c0-0.1,0-0.1,0-0.2c0,0-0.3-1-1.1-1.9c-4-4.7-20.7-4.7-20.7-4.7h0
			c-9.2,0-16.9,0.5-20.4,4.7c0,0,0,0,0,0c0,0,0,0,0,0c-0.8,0.9-1.1,1.8-1.1,1.9c0,0,0,0,0,0c-0.4,1.2-0.3,2.8-0.3,3
			c0.1,1.4,0.1,2.2,0.4,3.2c1.2,5.9,3.7,9.6,3.7,9.6c1.8,2.7,3.9,4.4,4.9,5.3c0.8,0.7,2.1,1.7,4,2.7c4.1,2.1,7.8,2.2,8.8,2.2
			c4.4,0,7.7-1.5,9.1-2.2l0,0c1.1-0.6,2.5-1.4,4-2.7c1-0.8,3.1-2.5,4.9-5.3c0,0,2.5-3.7,3.7-9.6
			C304.4,185.1,304.5,184.2,304.6,182.5z"/>
	</g>
</g>
<g id="Несущие">
	<g>
		<rect x="867.2" y="411.8" class="st9" width="60.6" height="130.6"/>
		<polygon class="st9" points="867.2,726.6 867.2,860 719,860 719,884.6 927.8,884.6 927.8,726.6 		"/>
		<rect x="62.4" y="794.5" class="st9" width="27.1" height="24.6"/>
		<rect x="274.5" y="860" class="st9" width="185.4" height="24.6"/>
		<polygon class="st9" points="62.4,263.6 89.5,263.6 89.5,140 459.9,140 459.9,115.4 62.4,115.4 		"/>
		<polygon class="st9" points="927.8,115.4 719,115.4 719,140 867.2,140 867.2,227.6 927.8,227.6 		"/>
	</g>
</g>
<g id="Лестницы_x2C__лифты">
</g>
<g id="Площади">
	<g>
		<path class="st1" d="M539.2,275.5h-2.9c-1,0-1.5-0.5-1.5-1.5c0-1,0.5-1.5,1.5-1.5h2.9c1.2,0,2.3-0.4,3.1-1.3
			c0.9-0.9,1.3-1.9,1.3-3.1c0-1.2-0.4-2.3-1.3-3.1c-0.9-0.9-1.9-1.3-3.1-1.3h-5.9c-1,0-1.5-0.5-1.5-1.5s0.5-1.5,1.5-1.5h5.9
			c2,0,3.8,0.7,5.2,2.2c1.4,1.4,2.2,3.2,2.2,5.2c0,2.4-1,4.4-2.9,5.9c2,1.5,2.9,3.5,2.9,5.9v2.9c0,2-0.7,3.8-2.2,5.2
			s-3.2,2.2-5.2,2.2h-5.9c-1,0-1.5-0.5-1.5-1.5c0-1,0.5-1.5,1.5-1.5h5.9c1.2,0,2.3-0.4,3.1-1.3c0.9-0.9,1.3-1.9,1.3-3.1v-2.9
			c0-1.2-0.4-2.3-1.3-3.1S540.4,275.5,539.2,275.5z"/>
		<path class="st1" d="M553.5,287.3c1,0,1.5,0.5,1.5,1.5c0,0.1-0.5,2.2-1.5,6.3c-0.2,0.7-0.7,1.1-1.4,1.1c-1,0-1.5-0.5-1.5-1.5
			c0-0.7,0.5-2.8,1.5-6.3C552.3,287.6,552.8,287.3,553.5,287.3z"/>
		<path class="st1" d="M559.6,282.9c0-0.2,0-0.3,0-0.4l5.9-20.6c0.2-0.7,0.7-1.1,1.4-1.1c1,0,1.5,0.5,1.5,1.5c0,0.1,0,0.3-0.1,0.4
			l-5.4,18.7h6.9V277c0-1,0.5-1.5,1.5-1.5c1,0,1.5,0.5,1.5,1.5v4.4h2.9c1,0,1.5,0.5,1.5,1.5c0,1-0.5,1.5-1.5,1.5h-2.9v4.4
			c0,1-0.5,1.5-1.5,1.5c-1,0-1.5-0.5-1.5-1.5v-4.4h-8.8C560.1,284.3,559.6,283.8,559.6,282.9z"/>
		<path class="st1" d="M590,290.2c-2,0-3.8-0.7-5.2-2.2c-1.4-1.4-2.2-3.2-2.2-5.2v-2.9c0-2.4,1-4.4,2.9-5.9c-2-1.5-2.9-3.5-2.9-5.9
			c0-2,0.7-3.8,2.2-5.2c1.4-1.4,3.2-2.2,5.2-2.2s3.8,0.7,5.2,2.2c1.4,1.4,2.2,3.2,2.2,5.2c0,2.4-1,4.4-2.9,5.9
			c1.4,1.1,2.3,2.4,2.7,4c0.2,0.8,0.3,2.4,0.3,4.9c0,2-0.7,3.8-2.2,5.2C593.8,289.5,592.1,290.2,590,290.2z M590,272.5
			c1.2,0,2.3-0.4,3.1-1.3c0.9-0.9,1.3-1.9,1.3-3.1c0-1.2-0.4-2.3-1.3-3.1c-0.9-0.9-1.9-1.3-3.1-1.3c-1.2,0-2.3,0.4-3.1,1.3
			s-1.3,1.9-1.3,3.1c0,1.2,0.4,2.3,1.3,3.1S588.8,272.5,590,272.5z M590,287.3c1.2,0,2.3-0.4,3.1-1.3c0.9-0.9,1.3-1.9,1.3-3.1v-2.9
			c0-1.2-0.4-2.3-1.3-3.1s-1.9-1.3-3.1-1.3c-1.2,0-2.3,0.4-3.1,1.3c-0.9,0.9-1.3,1.9-1.3,3.1v2.9c0,1.2,0.4,2.3,1.3,3.1
			S588.8,287.3,590,287.3z"/>
	</g>
	<g>
		<path class="st1" d="M767.1,718.3l-3.4,3.4c-0.3,0.3-0.6,0.4-1,0.4c-1,0-1.5-0.5-1.5-1.5c0-0.4,0.1-0.7,0.4-1l5.8-5.8
			c0.4-0.4,0.8-0.6,1.2-0.6c1,0,1.5,0.5,1.5,1.5v26.5c0,1-0.5,1.5-1.5,1.5s-1.5-0.5-1.5-1.5V718.3z"/>
		<path class="st1" d="M782.7,728h-2.9c-1,0-1.5-0.5-1.5-1.5c0-1,0.5-1.5,1.5-1.5h2.9c1.2,0,2.3-0.4,3.1-1.3
			c0.9-0.9,1.3-1.9,1.3-3.1c0-1.2-0.4-2.3-1.3-3.1c-0.9-0.9-1.9-1.3-3.1-1.3h-5.9c-1,0-1.5-0.5-1.5-1.5s0.5-1.5,1.5-1.5h5.9
			c2,0,3.8,0.7,5.2,2.2c1.4,1.4,2.2,3.2,2.2,5.2c0,2.4-1,4.4-2.9,5.9c2,1.5,2.9,3.5,2.9,5.9v2.9c0,2-0.7,3.8-2.2,5.2
			s-3.2,2.2-5.2,2.2h-5.9c-1,0-1.5-0.5-1.5-1.5c0-1,0.5-1.5,1.5-1.5h5.9c1.2,0,2.3-0.4,3.1-1.3c0.9-0.9,1.3-1.9,1.3-3.1v-2.9
			c0-1.2-0.4-2.3-1.3-3.1S784,728,782.7,728z"/>
		<path class="st1" d="M797,739.8c1,0,1.5,0.5,1.5,1.5c0,0.1-0.5,2.2-1.5,6.3c-0.2,0.7-0.7,1.1-1.4,1.1c-1,0-1.5-0.5-1.5-1.5
			c0-0.7,0.5-2.8,1.5-6.3C795.8,740.2,796.3,739.8,797,739.8z"/>
		<path class="st1" d="M817.5,728c0,3.5-0.4,6.6-1.3,9.1c-1.3,3.8-3.3,5.6-6.1,5.6c-2.8,0-4.8-1.9-6.1-5.6c-0.9-2.6-1.3-5.6-1.3-9.1
			s0.4-6.6,1.3-9.1c1.3-3.7,3.3-5.6,6.1-5.6c2.8,0,4.8,1.9,6.1,5.6C817,721.5,817.5,724.5,817.5,728z M814.5,728
			c0-2.4-0.3-4.7-0.8-6.9c-0.8-3.3-2-4.9-3.6-4.9c-1.6,0-2.8,1.6-3.6,4.9c-0.5,2.2-0.8,4.5-0.8,6.9c0,2.4,0.3,4.7,0.8,6.9
			c0.8,3.3,2,4.9,3.6,4.9c1.6,0,2.9-1.6,3.6-4.9C814.2,732.7,814.5,730.4,814.5,728z"/>
		<path class="st1" d="M822.5,735.4c0-0.2,0-0.3,0-0.4l5.9-20.6c0.2-0.7,0.7-1.1,1.4-1.1c1,0,1.5,0.5,1.5,1.5c0,0.1,0,0.3-0.1,0.4
			l-5.4,18.7h6.9v-4.4c0-1,0.5-1.5,1.5-1.5c1,0,1.5,0.5,1.5,1.5v4.4h2.9c1,0,1.5,0.5,1.5,1.5c0,1-0.5,1.5-1.5,1.5h-2.9v4.4
			c0,1-0.5,1.5-1.5,1.5c-1,0-1.5-0.5-1.5-1.5v-4.4H824C823,736.9,822.5,736.4,822.5,735.4z"/>
	</g>
	<g>
		<path class="st1" d="M156.3,718.3l-3.4,3.4c-0.3,0.3-0.6,0.4-1,0.4c-1,0-1.5-0.5-1.5-1.5c0-0.4,0.1-0.7,0.4-1l5.8-5.8
			c0.4-0.4,0.8-0.6,1.2-0.6c1,0,1.5,0.5,1.5,1.5v26.5c0,1-0.5,1.5-1.5,1.5s-1.5-0.5-1.5-1.5V718.3z"/>
		<path class="st1" d="M166.9,739.8c1,0,1.5,0.5,1.5,1.5c0,0.1-0.5,2.2-1.5,6.3c-0.2,0.7-0.7,1.1-1.4,1.1c-1,0-1.5-0.5-1.5-1.5
			c0-0.7,0.5-2.8,1.5-6.3C165.7,740.2,166.2,739.8,166.9,739.8z"/>
		<path class="st1" d="M173.7,726.5v-11.8c0-1,0.5-1.5,1.5-1.5h10.3c1,0,1.5,0.5,1.5,1.5s-0.5,1.5-1.5,1.5h-8.8v8.8h4.4
			c2,0,3.8,0.7,5.2,2.2c1.4,1.4,2.2,3.2,2.2,5.2v2.9c0,2-0.7,3.8-2.2,5.2s-3.2,2.2-5.2,2.2h-5.9c-1,0-1.5-0.5-1.5-1.5
			c0-1,0.5-1.5,1.5-1.5h5.9c1.2,0,2.3-0.4,3.1-1.3c0.9-0.9,1.3-1.9,1.3-3.1v-2.9c0-1.2-0.4-2.3-1.3-3.1s-1.9-1.3-3.1-1.3h-5.9
			C174.2,728,173.7,727.5,173.7,726.5z"/>
		<path class="st1" d="M201.2,742.8c-2,0-3.8-0.7-5.2-2.2c-1.4-1.4-2.2-3.2-2.2-5.2v-2.9c0-2.4,1-4.4,2.9-5.9
			c-2-1.5-2.9-3.5-2.9-5.9c0-2,0.7-3.8,2.2-5.2c1.4-1.4,3.2-2.2,5.2-2.2s3.8,0.7,5.2,2.2c1.4,1.4,2.2,3.2,2.2,5.2
			c0,2.4-1,4.4-2.9,5.9c1.4,1.1,2.3,2.4,2.7,4c0.2,0.8,0.3,2.4,0.3,4.9c0,2-0.7,3.8-2.2,5.2C205,742,203.2,742.8,201.2,742.8z
			 M201.2,725.1c1.2,0,2.3-0.4,3.1-1.3c0.9-0.9,1.3-1.9,1.3-3.1c0-1.2-0.4-2.3-1.3-3.1c-0.9-0.9-1.9-1.3-3.1-1.3
			c-1.2,0-2.3,0.4-3.1,1.3s-1.3,1.9-1.3,3.1c0,1.2,0.4,2.3,1.3,3.1S199.9,725.1,201.2,725.1z M201.2,739.8c1.2,0,2.3-0.4,3.1-1.3
			c0.9-0.9,1.3-1.9,1.3-3.1v-2.9c0-1.2-0.4-2.3-1.3-3.1s-1.9-1.3-3.1-1.3c-1.2,0-2.3,0.4-3.1,1.3c-0.9,0.9-1.3,1.9-1.3,3.1v2.9
			c0,1.2,0.4,2.3,1.3,3.1S199.9,739.8,201.2,739.8z"/>
	</g>
	<g>
		<path class="st1" d="M216.4,275.5h-2.9c-1,0-1.5-0.5-1.5-1.5c0-1,0.5-1.5,1.5-1.5h2.9c1.2,0,2.3-0.4,3.1-1.3
			c0.9-0.9,1.3-1.9,1.3-3.1c0-1.2-0.4-2.3-1.3-3.1c-0.9-0.9-1.9-1.3-3.1-1.3h-5.9c-1,0-1.5-0.5-1.5-1.5s0.5-1.5,1.5-1.5h5.9
			c2,0,3.8,0.7,5.2,2.2c1.4,1.4,2.2,3.2,2.2,5.2c0,2.4-1,4.4-2.9,5.9c2,1.5,2.9,3.5,2.9,5.9v2.9c0,2-0.7,3.8-2.2,5.2
			s-3.2,2.2-5.2,2.2h-5.9c-1,0-1.5-0.5-1.5-1.5c0-1,0.5-1.5,1.5-1.5h5.9c1.2,0,2.3-0.4,3.1-1.3c0.9-0.9,1.3-1.9,1.3-3.1v-2.9
			c0-1.2-0.4-2.3-1.3-3.1S217.6,275.5,216.4,275.5z"/>
		<path class="st1" d="M230.7,287.3c1,0,1.5,0.5,1.5,1.5c0,0.1-0.5,2.2-1.5,6.3c-0.2,0.7-0.7,1.1-1.4,1.1c-1,0-1.5-0.5-1.5-1.5
			c0-0.7,0.5-2.8,1.5-6.3C229.5,287.6,229.9,287.3,230.7,287.3z"/>
		<path class="st1" d="M247.2,260.7c1,0,1.5,0.5,1.5,1.5c0,0.7-0.2,1.2-0.7,1.3c-2.2,0.6-4.1,1.9-5.7,3.9c-1.3,1.6-2,3.3-2.3,5.1
			h4.3c2.1,0,3.8,0.7,5.2,2.1c1.4,1.4,2.1,3.2,2.1,5.2v2.9c0,2.1-0.7,3.8-2.2,5.2c-1.4,1.4-3.2,2.1-5.2,2.1c-2.1,0-3.8-0.7-5.2-2.1
			s-2.1-3.2-2.1-5.2V274c0-3.3,1.1-6.3,3.3-8.8c1.7-2,3.6-3.3,5.7-4.2C246.5,260.9,246.9,260.7,247.2,260.7z M239.9,275.5v7.4
			c0,1.2,0.4,2.3,1.3,3.1s1.9,1.3,3.1,1.3s2.3-0.4,3.1-1.3c0.9-0.9,1.3-1.9,1.3-3.1v-2.9c0-1.2-0.4-2.3-1.3-3.1
			c-0.9-0.9-1.9-1.3-3.1-1.3H239.9z"/>
		<path class="st1" d="M264.4,290.2c-2,0-3.8-0.7-5.2-2.2c-1.4-1.4-2.2-3.2-2.2-5.2v-2.9c0-2.4,1-4.4,2.9-5.9
			c-2-1.5-2.9-3.5-2.9-5.9c0-2,0.7-3.8,2.2-5.2c1.4-1.4,3.2-2.2,5.2-2.2s3.8,0.7,5.2,2.2c1.4,1.4,2.2,3.2,2.2,5.2
			c0,2.4-1,4.4-2.9,5.9c1.4,1.1,2.3,2.4,2.7,4c0.2,0.8,0.3,2.4,0.3,4.9c0,2-0.7,3.8-2.2,5.2C268.1,289.5,266.4,290.2,264.4,290.2z
			 M264.4,272.5c1.2,0,2.3-0.4,3.1-1.3c0.9-0.9,1.3-1.9,1.3-3.1c0-1.2-0.4-2.3-1.3-3.1c-0.9-0.9-1.9-1.3-3.1-1.3
			c-1.2,0-2.3,0.4-3.1,1.3s-1.3,1.9-1.3,3.1c0,1.2,0.4,2.3,1.3,3.1S263.1,272.5,264.4,272.5z M264.4,287.3c1.2,0,2.3-0.4,3.1-1.3
			c0.9-0.9,1.3-1.9,1.3-3.1v-2.9c0-1.2-0.4-2.3-1.3-3.1s-1.9-1.3-3.1-1.3c-1.2,0-2.3,0.4-3.1,1.3c-0.9,0.9-1.3,1.9-1.3,3.1v2.9
			c0,1.2,0.4,2.3,1.3,3.1S263.1,287.3,264.4,287.3z"/>
	</g>
	<g>
		<path class="st1" d="M207,511.9c0-0.2,0-0.3,0-0.4l5.9-20.6c0.2-0.7,0.7-1.1,1.4-1.1c1,0,1.5,0.5,1.5,1.5c0,0.1,0,0.3-0.1,0.4
			l-5.4,18.7h6.9V506c0-1,0.5-1.5,1.5-1.5c1,0,1.5,0.5,1.5,1.5v4.4h2.9c1,0,1.5,0.5,1.5,1.5c0,1-0.5,1.5-1.5,1.5h-2.9v4.4
			c0,1-0.5,1.5-1.5,1.5c-1,0-1.5-0.5-1.5-1.5v-4.4h-8.8C207.5,513.4,207,512.9,207,511.9z"/>
		<path class="st1" d="M231.4,516.3c1,0,1.5,0.5,1.5,1.5c0,0.1-0.5,2.2-1.5,6.3c-0.2,0.7-0.7,1.1-1.4,1.1c-1,0-1.5-0.5-1.5-1.5
			c0-0.7,0.5-2.8,1.5-6.3C230.2,516.7,230.7,516.3,231.4,516.3z"/>
		<path class="st1" d="M245,519.3c-2,0-3.8-0.7-5.2-2.2c-1.4-1.4-2.2-3.2-2.2-5.2V509c0-2.4,1-4.4,2.9-5.9c-2-1.5-2.9-3.5-2.9-5.9
			c0-2,0.7-3.8,2.2-5.2c1.4-1.4,3.2-2.2,5.2-2.2s3.8,0.7,5.2,2.2c1.4,1.4,2.2,3.2,2.2,5.2c0,2.4-1,4.4-2.9,5.9
			c1.4,1.1,2.3,2.4,2.7,4c0.2,0.8,0.3,2.4,0.3,4.9c0,2-0.7,3.8-2.2,5.2C248.8,518.6,247.1,519.3,245,519.3z M245,501.6
			c1.2,0,2.3-0.4,3.1-1.3c0.9-0.9,1.3-1.9,1.3-3.1c0-1.2-0.4-2.3-1.3-3.1c-0.9-0.9-1.9-1.3-3.1-1.3c-1.2,0-2.3,0.4-3.1,1.3
			s-1.3,1.9-1.3,3.1c0,1.2,0.4,2.3,1.3,3.1S243.8,501.6,245,501.6z M245,516.3c1.2,0,2.3-0.4,3.1-1.3c0.9-0.9,1.3-1.9,1.3-3.1V509
			c0-1.2-0.4-2.3-1.3-3.1s-1.9-1.3-3.1-1.3c-1.2,0-2.3,0.4-3.1,1.3c-0.9,0.9-1.3,1.9-1.3,3.1v2.9c0,1.2,0.4,2.3,1.3,3.1
			S243.8,516.3,245,516.3z"/>
		<path class="st1" d="M264.4,504.5h-2.9c-1,0-1.5-0.5-1.5-1.5c0-1,0.5-1.5,1.5-1.5h2.9c1.2,0,2.3-0.4,3.1-1.3
			c0.9-0.9,1.3-1.9,1.3-3.1c0-1.2-0.4-2.3-1.3-3.1c-0.9-0.9-1.9-1.3-3.1-1.3h-5.9c-1,0-1.5-0.5-1.5-1.5s0.5-1.5,1.5-1.5h5.9
			c2,0,3.8,0.7,5.2,2.2c1.4,1.4,2.2,3.2,2.2,5.2c0,2.4-1,4.4-2.9,5.9c2,1.5,2.9,3.5,2.9,5.9v2.9c0,2-0.7,3.8-2.2,5.2
			s-3.2,2.2-5.2,2.2h-5.9c-1,0-1.5-0.5-1.5-1.5c0-1,0.5-1.5,1.5-1.5h5.9c1.2,0,2.3-0.4,3.1-1.3c0.9-0.9,1.3-1.9,1.3-3.1V509
			c0-1.2-0.4-2.3-1.3-3.1S265.6,504.5,264.4,504.5z"/>
	</g>
	<g>
		<path class="st1" d="M787.5,277l-1.1,0c-1,0-1.5-0.5-1.5-1.5c0-1,0.5-1.5,1.5-1.5l1.7,0l2.3-10.3h-9.9c-1,0-1.5-0.5-1.5-1.5
			s0.5-1.5,1.5-1.5h11.8c1,0,1.5,0.5,1.5,1.4c0,0.1,0,0.2,0,0.4l-2.6,11.5l1.1,0c1,0,1.5,0.5,1.5,1.5c0,1-0.5,1.5-1.5,1.5l-1.8,0
			l-2.7,12.1c-0.2,0.8-0.6,1.2-1.4,1.2c-1,0-1.5-0.5-1.5-1.5c0-0.1,0-0.3,0-0.3L787.5,277z"/>
		<path class="st1" d="M798.6,287.3c1,0,1.5,0.5,1.5,1.5c0,0.1-0.5,2.2-1.5,6.3c-0.2,0.7-0.7,1.1-1.4,1.1c-1,0-1.5-0.5-1.5-1.5
			c0-0.7,0.5-2.8,1.5-6.3C797.4,287.6,797.8,287.3,798.6,287.3z"/>
		<path class="st1" d="M812.7,260.7c2,0,3.8,0.7,5.2,2.2c1.4,1.4,2.2,3.2,2.2,5.2c0,1.4-0.4,2.8-1.3,4.2l-9.3,14.9h9.2
			c1,0,1.5,0.5,1.5,1.5c0,1-0.5,1.5-1.5,1.5h-11.8c-1,0-1.5-0.5-1.5-1.5c0-0.3,0.1-0.6,0.2-0.8l10.8-17.4c0.5-0.8,0.7-1.6,0.7-2.4
			c0-1.2-0.4-2.3-1.3-3.1s-1.9-1.3-3.1-1.3c-1.7,0-3.2,1.2-4.6,3.7c-0.3,0.5-0.7,0.7-1.3,0.7c-1,0-1.5-0.5-1.5-1.5
			c0-0.2,0-0.4,0.1-0.6C807.3,262.5,809.8,260.7,812.7,260.7z"/>
		<path class="st1" d="M829.9,290.2c-0.4,0-0.7-0.1-1-0.4s-0.4-0.6-0.4-1c0-0.7,0.2-1.1,0.7-1.3c1.1-0.4,2-0.8,2.7-1.2
			c3.2-2.1,4.9-4.7,5.3-7.8h-4.3c-2,0-3.8-0.7-5.2-2.2c-1.4-1.4-2.2-3.2-2.2-5.2v-2.9c0-2,0.7-3.8,2.2-5.2c1.4-1.4,3.2-2.2,5.2-2.2
			c2.1,0,3.8,0.7,5.2,2.1s2.1,3.2,2.1,5.2v8.9c0,5-2.3,9-7,11.9C831.7,289.8,830.6,290.2,829.9,290.2z M837.2,275.5v-7.4
			c0-1.2-0.4-2.3-1.3-3.1c-0.9-0.9-1.9-1.3-3.1-1.3s-2.3,0.4-3.1,1.3c-0.9,0.9-1.3,1.9-1.3,3.1v2.9c0,1.2,0.4,2.3,1.3,3.1
			s1.9,1.3,3.1,1.3H837.2z"/>
	</g>
</g>
<g id="Таблички">
</g>
<g id="Этаж_x2C__секции">
</g>
</svg>
