<?xml version="1.0" encoding="utf-8"?>
<!-- Generator: Adobe Illustrator 28.0.0, SVG Export Plug-In . SVG Version: 6.00 Build 0)  -->
<svg version="1.1" xmlns="http://www.w3.org/2000/svg" xmlns:xlink="http://www.w3.org/1999/xlink" x="0px" y="0px"
	 viewBox="0 0 1000 1001.01" style="enable-background:new 0 0 1000 1001.01;" xml:space="preserve">
<style type="text/css">
	.st0{fill:none;stroke:#5B5D65;stroke-width:1.0091;stroke-linecap:round;stroke-linejoin:round;stroke-miterlimit:10;}
	.st1{fill:#5B5D65;}
	.st2{fill:none;stroke:#5B5D65;stroke-width:1.0091;stroke-linecap:round;stroke-linejoin:round;}
	
		.st3{fill:none;stroke:#5B5D65;stroke-width:1.0091;stroke-linecap:round;stroke-linejoin:round;stroke-dasharray:18.8211,18.8211,18.8211,18.8211;}
	
		.st4{fill:none;stroke:#5B5D65;stroke-width:1.0091;stroke-linecap:round;stroke-linejoin:round;stroke-dasharray:18.8211,18.8211,18.8211,18.8211,18.8211,18.8211;}
	
		.st5{fill:none;stroke:#5B5D65;stroke-width:1.0091;stroke-linecap:round;stroke-linejoin:round;stroke-dasharray:19.6244,19.6244,19.6244,19.6244;}
	
		.st6{fill:none;stroke:#5B5D65;stroke-width:1.0091;stroke-linecap:round;stroke-linejoin:round;stroke-dasharray:19.6244,19.6244,19.6244,19.6244,19.6244,19.6244;}
	.st7{opacity:0.8;}
	.st8{opacity:0.8;fill:none;stroke:#5B5D65;stroke-width:0.5046;stroke-linecap:round;stroke-linejoin:round;stroke-miterlimit:10;}
	.st9{fill:#5B5D65;stroke:#5B5D65;stroke-width:2.0182;stroke-linecap:round;stroke-linejoin:round;stroke-miterlimit:10;}
</style>
<g id="Цвет_помещений">
</g>
<g id="Окна_x2C__двери">
	<g>
		<rect x="227.91" y="75.35" class="st0" width="182.95" height="60.29"/>
		<rect x="227.91" y="104.97" class="st0" width="182.95" height="7.54"/>
	</g>
	<g>
		<rect x="540.8" y="75.35" class="st0" width="182.95" height="60.29"/>
		<rect x="540.8" y="104.97" class="st0" width="182.95" height="7.54"/>
	</g>
	<polygon class="st0" points="540.8,0.5 723.75,0.5 723.75,75.35 717.52,75.35 717.52,6.74 547.04,6.74 547.04,75.35 540.8,75.35 	
		"/>
	<line class="st0" x1="374.48" y1="936.06" x2="486.23" y2="1000.5"/>
	<line class="st0" x1="355.77" y1="685.54" x2="312.63" y2="759.86"/>
	<line class="st0" x1="491.94" y1="638.76" x2="396.31" y2="583.66"/>
	<line class="st0" x1="516.37" y1="638.76" x2="612.01" y2="583.66"/>
	<line class="st0" x1="645.27" y1="826.91" x2="602.65" y2="752.58"/>
</g>
<g id="Шахты">
</g>
<g id="Перегородки">
	<rect x="116.16" y="283.77" class="st1" width="24.43" height="256.76"/>
	<polygon class="st1" points="355.77,771.81 365.64,771.81 365.64,909.03 374.48,909.03 374.48,936.06 263.77,936.06 263.77,909.03 
		355.77,909.03 355.77,854.97 140.59,854.97 140.59,845.1 355.77,845.1 	"/>
	<polygon class="st1" points="140.59,577.43 365.64,577.43 365.64,638.76 381.24,638.76 381.24,648.63 365.64,648.63 365.64,685.54 
		355.77,685.54 355.77,587.3 140.59,587.3 	"/>
	<polygon class="st1" points="510.14,638.76 516.37,638.76 516.37,648.63 491.94,648.63 491.94,638.76 500.26,638.76 500.26,135.64 
		510.14,135.64 	"/>
	<rect x="856.81" y="282.73" class="st1" width="26.51" height="257.8"/>
	<polygon class="st1" points="627.08,638.76 655.15,638.76 655.15,725.04 883.32,725.04 883.32,749.46 816.27,749.46 816.27,909.03 
		791.32,909.03 791.32,734.91 655.15,734.91 655.15,740.63 645.27,740.63 645.27,648.63 627.08,648.63 	"/>
	<polygon class="st1" points="503.38,909.03 645.27,909.03 645.27,826.91 655.15,826.91 655.15,909.03 791.32,909.03 791.32,936.06 
		503.38,936.06 	"/>
	<polygon class="st1" points="140.59,677.22 159.3,677.22 159.3,845.1 155.15,845.1 155.15,680.86 140.59,680.86 	"/>
</g>
<g id="Пунктир">
	<g>
		<g>
			<line class="st2" x1="140.59" y1="343.54" x2="149.6" y2="343.54"/>
			<line class="st3" x1="168.42" y1="343.54" x2="234.3" y2="343.54"/>
			<line class="st4" x1="243.71" y1="343.54" x2="347.22" y2="343.54"/>
			<polyline class="st2" points="356.63,343.54 365.64,343.54 365.64,352.55 			"/>
			<line class="st5" x1="365.64" y1="372.17" x2="365.64" y2="440.86"/>
			<line class="st6" x1="365.64" y1="450.67" x2="365.64" y2="558.61"/>
			<line class="st2" x1="365.64" y1="568.42" x2="365.64" y2="577.43"/>
		</g>
	</g>
</g>
<g id="Сантехника">
	<g class="st7">
		
			<rect x="140.85" y="372.66" transform="matrix(6.123234e-17 -1 1 6.123234e-17 -231.8111 574.8113)" class="st8" width="61.3" height="61.3"/>
		<g>
			<circle class="st8" cx="157.25" cy="387.12" r="10.73"/>
		</g>
		<g>
			<circle class="st8" cx="183.39" cy="421.04" r="9.19"/>
		</g>
		<g>
			<circle class="st8" cx="157.25" cy="421.04" r="7.15"/>
		</g>
		<g>
			<circle class="st8" cx="183.39" cy="387.12" r="7.15"/>
		</g>
		<circle class="st8" cx="197.41" cy="405.15" r="0.69"/>
		<circle class="st8" cx="197.41" cy="401.32" r="0.69"/>
		<circle class="st8" cx="193.58" cy="401.32" r="0.69"/>
		<circle class="st8" cx="193.58" cy="405.15" r="0.69"/>
	</g>
	<g class="st7">
		
			<rect x="215.97" y="515.85" transform="matrix(-1 1.830129e-07 -1.830129e-07 -1 493.2439 1093.0049)" class="st8" width="61.3" height="61.3"/>
		<circle class="st8" cx="246.58" cy="552.13" r="4.6"/>
		<circle class="st8" cx="246.58" cy="567.96" r="1.79"/>
		<circle class="st8" cx="228.8" cy="567.96" r="1.79"/>
		<path class="st8" d="M221.59,520.96h50.06c0.28,0,0.51,0.23,0.51,0.51l0,50.06c0,0.28-0.23,0.51-0.51,0.51h-50.06
			c-0.28,0-0.51-0.23-0.51-0.51l0-50.06C221.08,521.19,221.31,520.96,221.59,520.96z"/>
		<path class="st8" d="M224.12,523.52h44.95c0.28,0,0.51,0.23,0.51,0.51l0,39.84c0,0.28-0.23,0.51-0.51,0.51h-44.95
			c-0.28,0-0.51-0.23-0.51-0.51l0-39.84C223.61,523.75,223.84,523.52,224.12,523.52z"/>
	</g>
	<g class="st7">
		<line class="st8" x1="150" y1="623.32" x2="150" y2="630.78"/>
		<path class="st8" d="M150,634.09v15.41c0,2.1,1.84,3.81,4.11,3.81h119.27c8.14,0,15.99-2.81,22.02-7.87
			c14.3-12.03,14.3-32.84,0-44.86c-6.03-5.07-13.88-7.88-22.02-7.88H154.11c-2.27,0-4.11,1.71-4.11,3.81v18.05"/>
		<rect x="141.22" y="587.24" class="st8" width="173.67" height="71.51"/>
		<path class="st8" d="M176.62,623c0,2.02-1.64,3.66-3.66,3.66c-2.02,0-3.66-1.64-3.66-3.66c0-2.02,1.64-3.66,3.66-3.66
			C174.98,619.34,176.62,620.98,176.62,623z"/>
		<path class="st8" d="M141.22,630.78v3.3h5.38h0.37h8.51c0,0,1.75-0.06,1.75-1.65c0-1.59-1.75-1.65-1.75-1.65h-8.51h-0.37h-1.99"/>
		<path class="st8" d="M145.85,617.05l-1.07-0.09c-1.7-0.14-3.31,1.14-3.53,3.02c-0.01,0.13-0.02,0.25-0.02,0.38
			c0,0.13,0.01,0.25,0.02,0.38c0.22,1.87,1.83,3.15,3.53,3.02l18.47-1.52c0.59,0,1.06-0.53,1.06-1.18v-1.39
			c0-0.66-0.48-1.17-1.06-1.17l-9.35-0.77"/>
		<path class="st8" d="M154.49,614.23l0.33,0.54c0.58,0.97,0.27,2.23-0.7,2.8l-7.41,4.47c-0.96,0.58-2.22,0.27-2.81-0.69l-0.32-0.55
			c-0.58-0.96-0.26-2.22,0.7-2.8l7.41-4.46C152.65,612.96,153.91,613.27,154.49,614.23z"/>
		<path class="st8" d="M145.7,617.14c-0.14-2.61-0.41-5.99-0.87-6.9c-0.65-1.26-2.44-0.7-2.44-0.7h-1.15v21.63h1.15
			c0,0,1.79,0.55,2.44-0.71c0.45-0.89,0.72-4.2,0.86-6.79"/>
		<path class="st8" d="M150,635.51c1.08,1.93,3.15,3.24,5.51,3.24c3.49,0,6.32-2.83,6.32-6.31c0-3.49-2.83-6.31-6.32-6.31
			c-2.37,0-4.43,1.3-5.51,3.24"/>
	</g>
	<g class="st7">
		<ellipse class="st8" cx="169.71" cy="800.92" rx="1.68" ry="1.68"/>
		<line class="st8" x1="169.71" y1="803.86" x2="169.71" y2="802.6"/>
		<line class="st8" x1="169.71" y1="799.24" x2="169.71" y2="797.98"/>
		<line class="st8" x1="172.64" y1="800.92" x2="171.39" y2="800.92"/>
		<line class="st8" x1="168.03" y1="800.92" x2="166.78" y2="800.92"/>
		<line class="st8" x1="183.32" y1="810.28" x2="183.32" y2="809.6"/>
		<line class="st8" x1="183.32" y1="807.79" x2="183.32" y2="807.11"/>
		<line class="st8" x1="184.91" y1="808.7" x2="184.23" y2="808.7"/>
		<line class="st8" x1="182.42" y1="808.7" x2="181.74" y2="808.7"/>
		<ellipse class="st8" cx="183.32" cy="808.7" rx="0.91" ry="0.91"/>
		<ellipse class="st8" cx="183.32" cy="793.14" rx="0.91" ry="0.91"/>
		<line class="st8" x1="183.32" y1="794.73" x2="183.32" y2="794.05"/>
		<line class="st8" x1="183.32" y1="792.24" x2="183.32" y2="791.56"/>
		<line class="st8" x1="184.91" y1="793.14" x2="184.23" y2="793.14"/>
		<line class="st8" x1="182.42" y1="793.14" x2="181.74" y2="793.14"/>
		<path class="st8" d="M197.82,784.49c-0.7,0.05-1.28,0.1-1.65,0.14c-6.9,1.23-11.51,2.71-18.41,3.94
			c0.43,3.71,0.71,7.85,0.71,12.35c0,4.52-0.28,8.67-0.71,12.4c6.9,1.23,11.51,2.66,18.41,3.89c0.38,0.04,0.95,0.09,1.65,0.14
			c4.14,0.27,11.1,0.73,17.39-2.67c1.01-0.55,3.06-1.68,5.01-3.83c1.17-1.29,4.18-4.72,4.18-9.8c0-0.04,0-0.08,0-0.12
			c0-0.04,0-0.08,0-0.12c0-5.08-3.01-8.51-4.18-9.8c-1.95-2.16-3.99-3.28-5.01-3.83C208.92,783.76,201.95,784.22,197.82,784.49z"/>
		<path class="st8" d="M198.97,787.18c-2.07,0.29-4.4,0.64-6.78,2.27c-2.94,2.01-4.13,4.72-4.51,5.6c-1.02,2.4-1.02,4.45-1.02,5.87
			c0,1.43,0,3.47,1.02,5.87c0.38,0.88,1.57,3.58,4.51,5.6c2.38,1.63,4.7,1.98,6.78,2.27c2.64,0.37,9.56,1.33,15.78-2.73
			c1.55-1.01,4.82-3.18,6.17-7.34c0.28-0.86,1.14-3.85,0-7.35c-1.35-4.16-4.62-6.33-6.17-7.34
			C208.53,785.85,201.62,786.81,198.97,787.18z"/>
		<path class="st8" d="M192.47,792.4c-3.17,3.22-3.16,7.42-3.15,8.53c-0.01,1.1-0.02,5.3,3.15,8.53c2.8,2.85,6.65,3.47,9.71,3.45
			c1.89-0.01,3.33-0.17,4.51-0.37c2.9-0.51,5.82-1.03,8.33-3.15c1.98-1.68,4.06-4.67,4.02-8.47c-0.05-4.5-3.03-7.4-4.07-8.3
			c-2.6-2.24-5.63-2.79-8.28-3.28c-1.07-0.19-2.56-0.36-4.51-0.37C199.13,788.93,195.28,789.54,192.47,792.4z"/>
		<path class="st8" d="M194.13,796.67c-0.5,0.17-1.31,0.53-2.05,1.25c-0.42,0.4-0.7,0.81-0.88,1.14c0,0.01,0,0.01,0,0.02
			c0,1.72,0,1.98,0,3.68c0,0.01,0,0.01,0,0.02c0.19,0.33,0.47,0.74,0.88,1.14c0.74,0.72,1.55,1.08,2.05,1.25
			c2.28,0.06,4.57,0.12,6.85,0.18c0.31-0.02,1.46-0.12,2.41-1c0.74-0.69,0.96-1.48,1.03-1.8c0-1.09,0-2.17,0-3.26
			c-0.07-0.32-0.29-1.11-1.03-1.8c-0.95-0.88-2.11-0.99-2.41-1C198.7,796.55,196.42,796.61,194.13,796.67z"/>
		<path class="st8" d="M196.83,796.59c0.41,0.52,1.5,2.06,1.52,4.28c0.02,2.28-1.12,3.87-1.52,4.38"/>
		<path class="st8" d="M159.53,783.39v35.07c0,0.47,0.41,0.86,0.91,0.86c0,0,8.49,0,9.4,0c0.5-0.11,1.14-0.28,1.87-0.56
			c0.73-0.28,1.53-0.68,2.35-1.24c1.08-0.73,1.88-1.55,2.48-2.3c0.59-0.75,0.98-1.43,1.21-1.89c0.22-1.86,0.39-3.83,0.52-5.9
			c0.12-2.07,0.2-4.24,0.2-6.5c0-2.25-0.07-4.41-0.2-6.47s-0.3-4.02-0.52-5.88c-0.17-0.41-0.47-1.03-0.94-1.72
			c-0.48-0.69-1.14-1.46-2.04-2.17c-0.98-0.77-1.98-1.27-2.85-1.6c-0.87-0.33-1.61-0.48-2.08-0.55c-1.04,0-9.4,0-9.4,0
			C159.94,782.53,159.53,782.91,159.53,783.39z"/>
	</g>
	<g class="st7">
		<path class="st8" d="M177.31,723.27c1.29,0,2.33,1.05,2.33,2.34c0,1.29-1.04,2.34-2.33,2.34c-1.29,0-2.34-1.05-2.34-2.34
			C174.98,724.32,176.02,723.27,177.31,723.27z"/>
		<line class="st8" x1="177.31" y1="729.02" x2="177.31" y2="722.2"/>
		<line class="st8" x1="180.72" y1="725.61" x2="173.9" y2="725.61"/>
		<path class="st8" d="M166.11,723.93c0.93,0,1.67,0.75,1.67,1.68c0,0.92-0.75,1.67-1.67,1.67c-0.93,0-1.68-0.75-1.68-1.67
			C164.44,724.68,165.19,723.93,166.11,723.93z"/>
		<line class="st8" x1="166.11" y1="728.29" x2="166.11" y2="722.93"/>
		<line class="st8" x1="168.79" y1="725.61" x2="163.43" y2="725.61"/>
		<path class="st8" d="M176.33,700.35c-1.2-0.09-2.69-0.15-4.4-0.08c-0.67,0.02-1.94,0.09-3.54,0.29c-1.32,0.17-2.96,0.44-4.82,0.9
			c-1.51,0.5-3.01,1.01-4.52,1.51c0,0,0,0.01,0,0.01c0,0.64,0,45.42,0,45.6c0,0,0,0.01,0,0.01c1.51,0.5,3.01,1.01,4.52,1.51
			c1.87,0.46,3.51,0.74,4.82,0.9c1.6,0.2,2.87,0.26,3.54,0.29c1.71,0.06,3.2,0.01,4.4-0.08c1.67-0.03,12.35-0.43,19.33-9.09
			c5.17-6.41,5.27-13.58,5.27-16.34s-0.11-9.94-5.27-16.34C188.68,700.78,177.99,700.39,176.33,700.35z"/>
		<path class="st8" d="M178.94,707.34c-0.58-0.05-1.37-0.1-2.32,0.18c-0.05,0.01-0.09,0.03-0.13,0.04c0,0-0.82,0.28-1.57,0.91
			c-3.89,3.29-3.89,17.15-3.89,17.15l0,0c0,7.61,0.41,14.02,3.88,16.89c0,0,0,0,0,0c0,0,0,0,0,0c0.77,0.67,1.45,0.88,1.57,0.91
			c0,0,0,0,0,0c1.03,0.35,2.29,0.23,2.45,0.22c1.19-0.08,1.79-0.12,2.64-0.29c4.9-0.99,7.95-3.04,7.95-3.04
			c2.27-1.53,3.65-3.2,4.35-4.07c0.57-0.7,1.42-1.76,2.21-3.31c1.72-3.38,1.8-6.49,1.81-7.32c0.02-3.66-1.23-6.35-1.81-7.57
			c0,0,0,0,0,0c-0.48-0.89-1.2-2.06-2.21-3.31c-0.69-0.86-2.07-2.53-4.35-4.07c0,0-3.08-2.07-7.95-3.04
			C181.05,707.53,180.35,707.46,178.94,707.34z"/>
	</g>
</g>
<g id="Несущие">
	<polygon class="st9" points="723.75,75.35 883.32,75.35 883.32,282.73 856.81,282.73 856.81,135.64 723.75,135.64 	"/>
	<polygon class="st9" points="227.91,75.35 227.91,135.64 140.59,135.64 140.59,283.77 116.16,283.77 116.16,75.35 	"/>
	<rect x="410.86" y="75.35" class="st9" width="129.94" height="60.29"/>
	<rect x="116.16" y="540.53" class="st9" width="24.69" height="395.53"/>
	<rect x="140.85" y="909.03" class="st9" width="122.92" height="27.03"/>
	<rect x="856.81" y="540.53" class="st9" width="27.03" height="184.51"/>
	<rect x="791.32" y="909.03" class="st9" width="24.95" height="27.03"/>
</g>
<g id="Лестницы">
</g>
<g id="Площади">
	<g>
		<path class="st1" d="M305.96,174.56l-0.91,0c-0.81,0-1.22-0.41-1.22-1.22s0.4-1.22,1.21-1.22l1.44,0l1.92-8.53h-8.23
			c-0.81,0-1.22-0.41-1.22-1.22s0.41-1.22,1.22-1.22h9.76c0.8,0,1.21,0.39,1.22,1.18c0,0.07-0.01,0.17-0.04,0.3l-2.11,9.5l0.93,0
			c0.81,0,1.22,0.41,1.22,1.22s-0.41,1.22-1.22,1.22l-1.48,0l-2.21,10.02c-0.15,0.64-0.54,0.96-1.16,0.96
			c-0.83,0-1.24-0.41-1.24-1.22c0-0.12,0.01-0.22,0.02-0.28L305.96,174.56z"/>
		<path class="st1" d="M314.89,183.09c0.81,0,1.22,0.4,1.22,1.2c0,0.11-0.42,1.84-1.26,5.19c-0.15,0.62-0.54,0.92-1.18,0.92
			c-0.81,0-1.22-0.41-1.22-1.22c0-0.55,0.42-2.28,1.26-5.17C313.88,183.4,314.27,183.09,314.89,183.09z"/>
		<path class="st1" d="M328.55,161.14c0.81,0,1.22,0.41,1.22,1.22c0,0.6-0.2,0.95-0.61,1.05c-1.81,0.46-3.39,1.54-4.75,3.25
			c-1.07,1.35-1.69,2.77-1.87,4.23h3.57c1.72,0,3.17,0.59,4.34,1.77c1.17,1.18,1.75,2.62,1.75,4.32v2.44c0,1.7-0.59,3.14-1.78,4.32
			s-2.63,1.77-4.31,1.77c-1.7,0-3.14-0.59-4.32-1.76c-1.18-1.18-1.77-2.61-1.77-4.3v-7.35c0-2.76,0.92-5.18,2.75-7.26
			c1.43-1.61,2.99-2.76,4.67-3.44C327.92,161.24,328.29,161.14,328.55,161.14z M322.45,173.34v6.1c0,1.02,0.35,1.89,1.06,2.6
			c0.71,0.71,1.57,1.06,2.6,1.06s1.89-0.36,2.6-1.07c0.71-0.71,1.06-1.58,1.06-2.59V177c0-1.02-0.36-1.89-1.07-2.6
			c-0.71-0.71-1.58-1.06-2.59-1.06H322.45z"/>
		<path class="st1" d="M338.66,165.31l-2.8,2.8c-0.24,0.23-0.52,0.35-0.85,0.35c-0.82,0-1.22-0.41-1.22-1.22
			c0-0.33,0.12-0.62,0.35-0.85l4.77-4.77c0.32-0.32,0.65-0.48,0.98-0.48c0.81,0,1.22,0.41,1.22,1.22v21.95
			c0,0.81-0.41,1.22-1.22,1.22c-0.81,0-1.22-0.41-1.22-1.22V165.31z"/>
	</g>
	<g>
		<path class="st1" d="M638.04,165.31l-2.8,2.8c-0.24,0.23-0.52,0.35-0.85,0.35c-0.82,0-1.22-0.41-1.22-1.22
			c0-0.33,0.12-0.62,0.35-0.85l4.77-4.77c0.32-0.32,0.65-0.48,0.98-0.48c0.81,0,1.22,0.41,1.22,1.22v21.95
			c0,0.81-0.41,1.22-1.22,1.22c-0.81,0-1.22-0.41-1.22-1.22V165.31z"/>
		<path class="st1" d="M650.7,161.14c1.69,0,3.13,0.59,4.31,1.78c1.19,1.19,1.78,2.63,1.78,4.31c0,1.16-0.37,2.33-1.11,3.51
			L648,183.09h7.58c0.81,0,1.22,0.41,1.22,1.22s-0.41,1.22-1.22,1.22h-9.76c-0.81,0-1.22-0.41-1.22-1.22c0-0.25,0.07-0.48,0.2-0.7
			l8.94-14.36c0.41-0.65,0.61-1.32,0.61-2.01c0-1.01-0.36-1.87-1.07-2.59c-0.71-0.71-1.58-1.07-2.59-1.07
			c-1.38,0-2.65,1.02-3.82,3.07c-0.22,0.39-0.57,0.59-1.05,0.59c-0.81,0-1.22-0.41-1.22-1.22c0-0.19,0.04-0.35,0.11-0.5
			C646.22,162.6,648.22,161.14,650.7,161.14z"/>
		<path class="st1" d="M662.9,183.09c0.81,0,1.22,0.4,1.22,1.2c0,0.11-0.42,1.84-1.26,5.19c-0.15,0.62-0.54,0.92-1.18,0.92
			c-0.81,0-1.22-0.41-1.22-1.22c0-0.55,0.42-2.28,1.26-5.17C661.89,183.4,662.29,183.09,662.9,183.09z"/>
		<path class="st1" d="M672.95,174.56l-0.91,0c-0.81,0-1.22-0.41-1.22-1.22s0.4-1.22,1.21-1.22l1.44,0l1.92-8.53h-8.23
			c-0.81,0-1.22-0.41-1.22-1.22s0.41-1.22,1.22-1.22h9.76c0.8,0,1.21,0.39,1.22,1.18c0,0.07-0.01,0.17-0.04,0.3l-2.11,9.5l0.93,0
			c0.81,0,1.22,0.41,1.22,1.22s-0.41,1.22-1.22,1.22l-1.48,0l-2.21,10.02c-0.15,0.64-0.54,0.96-1.16,0.96
			c-0.83,0-1.24-0.41-1.24-1.22c0-0.12,0.01-0.22,0.02-0.28L672.95,174.56z"/>
		<path class="st1" d="M686.68,165.31l-2.8,2.8c-0.24,0.23-0.52,0.35-0.85,0.35c-0.82,0-1.22-0.41-1.22-1.22
			c0-0.33,0.12-0.62,0.35-0.85l4.77-4.77c0.32-0.32,0.65-0.48,0.98-0.48c0.81,0,1.22,0.41,1.22,1.22v21.95
			c0,0.81-0.41,1.22-1.22,1.22c-0.81,0-1.22-0.41-1.22-1.22V165.31z"/>
	</g>
	<g>
		<path class="st1" d="M267.37,783.05h-2.44c-0.81,0-1.22-0.41-1.22-1.22s0.41-1.22,1.22-1.22h2.44c1.02,0,1.89-0.35,2.6-1.06
			c0.71-0.71,1.06-1.57,1.06-2.6c0-1.01-0.36-1.87-1.07-2.59c-0.71-0.71-1.58-1.07-2.59-1.07h-4.88c-0.81,0-1.22-0.41-1.22-1.22
			s0.41-1.22,1.22-1.22h4.88c1.69,0,3.13,0.6,4.31,1.79s1.78,2.63,1.78,4.31c0,2.02-0.81,3.65-2.44,4.88
			c1.63,1.23,2.44,2.86,2.44,4.88v2.44c0,1.69-0.6,3.13-1.79,4.31c-1.2,1.19-2.63,1.78-4.31,1.78h-4.88c-0.81,0-1.22-0.41-1.22-1.22
			s0.41-1.22,1.22-1.22h4.88c1.02,0,1.89-0.35,2.6-1.06c0.71-0.71,1.06-1.57,1.06-2.6v-2.44c0-1.01-0.36-1.87-1.07-2.59
			C269.24,783.41,268.38,783.05,267.37,783.05z"/>
		<path class="st1" d="M278.92,792.81c0.81,0,1.22,0.4,1.22,1.2c0,0.11-0.42,1.84-1.26,5.19c-0.15,0.62-0.54,0.92-1.18,0.92
			c-0.81,0-1.22-0.41-1.22-1.22c0-0.55,0.42-2.28,1.26-5.17C277.91,793.12,278.31,792.81,278.92,792.81z"/>
		<path class="st1" d="M292.59,770.86c0.81,0,1.22,0.41,1.22,1.22c0,0.6-0.2,0.95-0.61,1.05c-1.81,0.46-3.39,1.54-4.75,3.25
			c-1.07,1.35-1.69,2.77-1.87,4.23h3.57c1.72,0,3.17,0.59,4.34,1.77c1.17,1.18,1.75,2.62,1.75,4.32v2.44c0,1.7-0.59,3.14-1.78,4.32
			s-2.63,1.77-4.31,1.77c-1.7,0-3.14-0.59-4.32-1.76c-1.18-1.18-1.77-2.61-1.77-4.3v-7.35c0-2.76,0.92-5.18,2.75-7.26
			c1.43-1.61,2.99-2.76,4.67-3.44C291.96,770.95,292.33,770.86,292.59,770.86z M286.49,783.05v6.1c0,1.02,0.35,1.89,1.06,2.6
			c0.71,0.71,1.57,1.06,2.6,1.06s1.89-0.36,2.6-1.07c0.71-0.71,1.06-1.58,1.06-2.59v-2.44c0-1.02-0.36-1.89-1.07-2.6
			c-0.71-0.71-1.58-1.06-2.59-1.06H286.49z"/>
		<path class="st1" d="M306.69,795.25c-1.69,0-3.13-0.59-4.31-1.78c-1.19-1.19-1.78-2.63-1.78-4.31v-2.44
			c0-2.02,0.81-3.65,2.44-4.88c-1.63-1.23-2.44-2.86-2.44-4.88c0-1.69,0.59-3.13,1.78-4.31c1.19-1.19,2.63-1.78,4.31-1.78
			s3.13,0.59,4.31,1.78c1.19,1.19,1.78,2.63,1.78,4.31c0,2.02-0.81,3.65-2.44,4.88c1.17,0.89,1.91,1.98,2.22,3.27
			c0.15,0.65,0.22,2,0.22,4.05c0,1.69-0.59,3.13-1.78,4.31C309.82,794.65,308.38,795.25,306.69,795.25z M306.69,780.61
			c1.02,0,1.89-0.35,2.6-1.06c0.71-0.71,1.06-1.57,1.06-2.6c0-1.01-0.36-1.87-1.07-2.59c-0.71-0.71-1.58-1.07-2.59-1.07
			c-1.02,0-1.89,0.35-2.6,1.06c-0.71,0.71-1.06,1.57-1.06,2.6s0.35,1.89,1.06,2.6C304.81,780.26,305.67,780.61,306.69,780.61z
			 M306.69,792.81c1.02,0,1.89-0.35,2.6-1.06c0.71-0.71,1.06-1.57,1.06-2.6v-2.44c0-1.01-0.36-1.87-1.07-2.59
			c-0.71-0.71-1.58-1.07-2.59-1.07c-1.02,0-1.89,0.35-2.6,1.06c-0.71,0.71-1.06,1.57-1.06,2.6v2.44c0,1.02,0.35,1.89,1.06,2.6
			C304.81,792.45,305.67,792.81,306.69,792.81z"/>
	</g>
	<g>
		<path class="st1" d="M473.07,789.15c0-0.14,0.01-0.25,0.04-0.33l4.88-17.07c0.17-0.59,0.57-0.89,1.18-0.89
			c0.81,0,1.22,0.41,1.22,1.22c0,0.11-0.01,0.23-0.04,0.35l-4.45,15.5h5.71v-3.66c0-0.81,0.41-1.22,1.22-1.22
			c0.81,0,1.22,0.41,1.22,1.22v3.66h2.44c0.81,0,1.22,0.41,1.22,1.22s-0.41,1.22-1.22,1.22h-2.44v3.66c0,0.81-0.41,1.22-1.22,1.22
			c-0.81,0-1.22-0.41-1.22-1.22v-3.66h-7.32C473.48,790.37,473.07,789.96,473.07,789.15z"/>
		<path class="st1" d="M493.04,792.81c0.81,0,1.22,0.4,1.22,1.2c0,0.11-0.42,1.84-1.26,5.19c-0.15,0.62-0.54,0.92-1.18,0.92
			c-0.81,0-1.22-0.41-1.22-1.22c0-0.55,0.42-2.28,1.26-5.17C492.03,793.12,492.42,792.81,493.04,792.81z"/>
		<path class="st1" d="M504.26,795.25c-1.69,0-3.13-0.59-4.31-1.78c-1.19-1.19-1.78-2.63-1.78-4.31v-2.44
			c0-2.02,0.81-3.65,2.44-4.88c-1.63-1.23-2.44-2.86-2.44-4.88c0-1.69,0.59-3.13,1.78-4.31c1.19-1.19,2.63-1.78,4.31-1.78
			s3.13,0.59,4.31,1.78c1.19,1.19,1.78,2.63,1.78,4.31c0,2.02-0.81,3.65-2.44,4.88c1.17,0.89,1.91,1.98,2.22,3.27
			c0.15,0.65,0.22,2,0.22,4.05c0,1.69-0.59,3.13-1.78,4.31C507.38,794.65,505.95,795.25,504.26,795.25z M504.26,780.61
			c1.02,0,1.89-0.35,2.6-1.06c0.71-0.71,1.06-1.57,1.06-2.6c0-1.01-0.36-1.87-1.07-2.59c-0.71-0.71-1.58-1.07-2.59-1.07
			c-1.02,0-1.89,0.35-2.6,1.06c-0.71,0.71-1.06,1.57-1.06,2.6s0.35,1.89,1.06,2.6C502.37,780.26,503.24,780.61,504.26,780.61z
			 M504.26,792.81c1.02,0,1.89-0.35,2.6-1.06c0.71-0.71,1.06-1.57,1.06-2.6v-2.44c0-1.01-0.36-1.87-1.07-2.59
			c-0.71-0.71-1.58-1.07-2.59-1.07c-1.02,0-1.89,0.35-2.6,1.06c-0.71,0.71-1.06,1.57-1.06,2.6v2.44c0,1.02,0.35,1.89,1.06,2.6
			C502.37,792.45,503.24,792.81,504.26,792.81z"/>
		<path class="st1" d="M520.22,783.05h-2.44c-0.81,0-1.22-0.41-1.22-1.22s0.41-1.22,1.22-1.22h2.44c1.02,0,1.89-0.35,2.6-1.06
			c0.71-0.71,1.06-1.57,1.06-2.6c0-1.01-0.36-1.87-1.07-2.59c-0.71-0.71-1.58-1.07-2.59-1.07h-4.88c-0.81,0-1.22-0.41-1.22-1.22
			s0.41-1.22,1.22-1.22h4.88c1.69,0,3.13,0.6,4.31,1.79s1.78,2.63,1.78,4.31c0,2.02-0.81,3.65-2.44,4.88
			c1.63,1.23,2.44,2.86,2.44,4.88v2.44c0,1.69-0.6,3.13-1.79,4.31c-1.2,1.19-2.63,1.78-4.31,1.78h-4.88c-0.81,0-1.22-0.41-1.22-1.22
			s0.41-1.22,1.22-1.22h4.88c1.02,0,1.89-0.35,2.6-1.06c0.71-0.71,1.06-1.57,1.06-2.6v-2.44c0-1.01-0.36-1.87-1.07-2.59
			C522.09,783.41,521.23,783.05,520.22,783.05z"/>
	</g>
	<g>
		<path class="st1" d="M702.22,775.03l-2.8,2.8c-0.24,0.23-0.52,0.35-0.85,0.35c-0.82,0-1.22-0.41-1.22-1.22
			c0-0.33,0.12-0.62,0.35-0.85l4.77-4.77c0.32-0.32,0.65-0.48,0.98-0.48c0.81,0,1.22,0.41,1.22,1.22v21.95
			c0,0.81-0.41,1.22-1.22,1.22c-0.81,0-1.22-0.41-1.22-1.22V775.03z"/>
		<path class="st1" d="M710.77,792.81c0.81,0,1.22,0.4,1.22,1.2c0,0.11-0.42,1.84-1.26,5.19c-0.15,0.62-0.54,0.92-1.18,0.92
			c-0.81,0-1.22-0.41-1.22-1.22c0-0.55,0.42-2.28,1.26-5.17C709.76,793.12,710.16,792.81,710.77,792.81z"/>
		<path class="st1" d="M716.36,781.83v-9.76c0-0.81,0.41-1.22,1.22-1.22h8.54c0.81,0,1.22,0.41,1.22,1.22s-0.41,1.22-1.22,1.22
			h-7.32v7.32h3.66c1.69,0,3.13,0.6,4.31,1.79c1.19,1.2,1.78,2.63,1.78,4.31v2.44c0,1.69-0.6,3.13-1.79,4.31
			c-1.2,1.19-2.63,1.78-4.31,1.78h-4.88c-0.81,0-1.22-0.41-1.22-1.22s0.41-1.22,1.22-1.22h4.88c1.02,0,1.89-0.35,2.6-1.06
			c0.71-0.71,1.06-1.57,1.06-2.6v-2.44c0-1.01-0.36-1.87-1.07-2.59c-0.71-0.71-1.58-1.07-2.59-1.07h-4.88
			C716.76,783.05,716.36,782.65,716.36,781.83z"/>
		<path class="st1" d="M739,795.25c-1.69,0-3.13-0.59-4.31-1.78c-1.19-1.19-1.78-2.63-1.78-4.31v-2.44c0-2.02,0.81-3.65,2.44-4.88
			c-1.63-1.23-2.44-2.86-2.44-4.88c0-1.69,0.59-3.13,1.78-4.31c1.19-1.19,2.63-1.78,4.31-1.78s3.13,0.59,4.31,1.78
			c1.19,1.19,1.78,2.63,1.78,4.31c0,2.02-0.81,3.65-2.44,4.88c1.17,0.89,1.91,1.98,2.22,3.27c0.15,0.65,0.22,2,0.22,4.05
			c0,1.69-0.59,3.13-1.78,4.31C742.13,794.65,740.69,795.25,739,795.25z M739,780.61c1.02,0,1.89-0.35,2.6-1.06
			c0.71-0.71,1.06-1.57,1.06-2.6c0-1.01-0.36-1.87-1.07-2.59c-0.71-0.71-1.58-1.07-2.59-1.07c-1.02,0-1.89,0.35-2.6,1.06
			c-0.71,0.71-1.06,1.57-1.06,2.6s0.35,1.89,1.06,2.6C737.11,780.26,737.98,780.61,739,780.61z M739,792.81
			c1.02,0,1.89-0.35,2.6-1.06c0.71-0.71,1.06-1.57,1.06-2.6v-2.44c0-1.01-0.36-1.87-1.07-2.59c-0.71-0.71-1.58-1.07-2.59-1.07
			c-1.02,0-1.89,0.35-2.6,1.06c-0.71,0.71-1.06,1.57-1.06,2.6v2.44c0,1.02,0.35,1.89,1.06,2.6
			C737.11,792.45,737.98,792.81,739,792.81z"/>
	</g>
</g>
<g id="Таблички">
</g>
<g id="Этажи_x2C__секции">
</g>
</svg>
